M48
INCH,TZ
T1C0.025
T2C0.028
T3C0.043
T4C0.059
%
G90
G05
T1
X11.7Y-2.145
T2
X1.26Y-2.33
X1.37Y-5.35
X1.45Y-3.1
X1.55Y-3.85
X1.65Y-4.6
X1.66Y-2.33
X1.77Y-5.35
X1.85Y-3.1
X1.95Y-3.85
X2.05Y-2.35
X2.05Y-4.6
X2.3Y-5.35
X2.4Y-3.1
X2.45Y-2.35
X2.6Y-3.85
X2.7Y-5.35
X2.8Y-2.35
X2.8Y-3.1
X2.8Y-4.6
X3.Y-3.85
X3.15Y-3.1
X3.2Y-2.35
X3.2Y-4.6
X3.25Y-5.35
X3.35Y-3.85
X3.55Y-2.35
X3.55Y-3.1
X3.55Y-4.6
X3.65Y-5.35
X3.75Y-3.85
X3.9Y-3.1
X3.95Y-2.35
X3.95Y-4.6
X4.1Y-3.85
X4.3Y-2.35
X4.3Y-3.1
X4.3Y-4.6
X4.5Y-3.85
X4.65Y-3.1
X4.7Y-2.35
X4.7Y-4.6
X4.85Y-3.85
X5.05Y-2.35
X5.05Y-3.1
X5.05Y-4.6
X5.25Y-3.85
X5.4Y-3.1
X5.45Y-2.35
X5.45Y-4.6
X5.6Y-3.85
X5.8Y-2.35
X5.8Y-3.1
X5.8Y-4.6
X6.Y-3.85
X6.1Y-5.35
X6.15Y-3.1
X6.2Y-2.35
X6.2Y-4.6
X6.35Y-3.85
X6.45Y-4.6
X6.5Y-5.35
X6.55Y-2.35
X6.55Y-3.1
X6.75Y-3.85
X6.85Y-4.6
X6.9Y-3.1
X6.95Y-2.35
X7.1Y-3.85
X7.3Y-2.35
X7.3Y-3.1
X7.3Y-4.6
X7.5Y-3.85
X7.65Y-3.1
X7.7Y-2.35
X7.7Y-4.6
X7.85Y-3.85
X8.05Y-2.35
X8.05Y-3.1
X8.05Y-4.6
X8.25Y-3.85
X8.4Y-3.1
X8.45Y-2.35
X8.45Y-4.6
X8.6Y-3.85
X8.8Y-2.35
X8.8Y-3.1
X8.8Y-4.6
X8.95Y-5.35
X9.Y-3.85
X9.15Y-3.1
X9.2Y-2.35
X9.2Y-4.6
X9.35Y-3.85
X9.35Y-5.35
X9.55Y-2.35
X9.55Y-3.1
X9.55Y-4.6
X9.75Y-3.85
X9.9Y-3.1
X9.9Y-5.35
X9.95Y-2.35
X9.95Y-4.6
X10.1Y-3.85
X10.3Y-2.35
X10.3Y-3.1
X10.3Y-5.35
X10.5Y-3.85
X10.65Y-3.1
X10.7Y-2.35
X10.85Y-5.35
X10.95Y-4.6
X11.05Y-3.1
X11.25Y-5.35
X11.35Y-3.85
X11.35Y-4.6
X11.4Y-3.1
X11.43Y-2.35
X11.75Y-3.85
X11.8Y-3.1
X11.83Y-2.35
T3
X9.665Y-1.5525
X9.665Y-1.6525
X9.665Y-1.7525
X9.665Y-1.8525
X9.665Y-1.9525
X9.665Y-2.0525
X9.665Y-2.1525
X9.765Y-1.5525
X9.765Y-2.1525
X9.865Y-1.5525
X9.865Y-2.1525
X9.965Y-1.5525
X9.965Y-2.1525
X10.065Y-1.5525
X10.065Y-2.1525
X10.165Y-1.5525
X10.165Y-2.1525
X10.265Y-1.5525
X10.265Y-2.1525
X10.365Y-1.5525
X10.365Y-1.6525
X10.365Y-2.0525
X10.365Y-2.1525
X10.465Y-1.5525
X10.465Y-2.1525
X10.565Y-1.5525
X10.565Y-2.1525
X10.665Y-1.5525
X10.665Y-2.1525
X10.765Y-1.5525
X10.765Y-2.1525
T4
X1.29Y-2.55
X1.37Y-5.55
X1.45Y-3.3
X1.54Y-2.45
X1.56Y-4.05
X1.62Y-5.45
X1.65Y-4.8
X1.7Y-3.2
X1.81Y-3.95
X1.9Y-4.7
X2.05Y-2.55
X2.3Y-2.45
X2.3Y-5.55
X2.4Y-3.3
X2.55Y-5.45
X2.6Y-4.05
X2.65Y-3.2
X2.8Y-2.55
X2.8Y-4.8
X2.85Y-3.95
X3.05Y-2.45
X3.05Y-4.7
X3.15Y-3.3
X3.25Y-5.55
X3.35Y-4.05
X3.4Y-3.2
X3.5Y-5.45
X3.55Y-2.55
X3.55Y-4.8
X3.6Y-3.95
X3.8Y-2.45
X3.8Y-4.7
X3.9Y-3.3
X4.1Y-4.05
X4.15Y-3.2
X4.3Y-2.55
X4.3Y-4.8
X4.35Y-3.95
X4.55Y-2.45
X4.55Y-4.7
X4.65Y-3.3
X4.85Y-4.05
X4.9Y-3.2
X5.05Y-2.55
X5.05Y-4.8
X5.1Y-3.95
X5.3Y-2.45
X5.3Y-4.7
X5.4Y-3.3
X5.6Y-4.05
X5.65Y-3.2
X5.8Y-2.55
X5.8Y-4.8
X5.85Y-3.95
X6.05Y-2.45
X6.05Y-4.7
X6.1Y-5.55
X6.15Y-3.3
X6.35Y-4.05
X6.35Y-5.45
X6.4Y-3.2
X6.55Y-2.55
X6.55Y-4.8
X6.6Y-3.95
X6.8Y-2.45
X6.8Y-4.7
X6.9Y-3.3
X7.1Y-4.05
X7.15Y-3.2
X7.3Y-2.55
X7.3Y-4.8
X7.35Y-3.95
X7.55Y-2.45
X7.55Y-4.7
X7.65Y-3.3
X7.85Y-4.05
X7.9Y-3.2
X8.05Y-2.55
X8.05Y-4.8
X8.1Y-3.95
X8.3Y-2.45
X8.3Y-4.7
X8.4Y-3.3
X8.6Y-4.05
X8.65Y-3.2
X8.8Y-2.55
X8.8Y-4.8
X8.85Y-3.95
X8.95Y-5.55
X9.05Y-2.45
X9.05Y-4.7
X9.15Y-3.3
X9.2Y-5.45
X9.35Y-4.05
X9.4Y-3.2
X9.55Y-2.55
X9.55Y-4.8
X9.6Y-3.95
X9.8Y-2.45
X9.8Y-4.7
X9.9Y-3.3
X9.9Y-5.55
X10.1Y-4.05
X10.15Y-3.2
X10.15Y-5.45
X10.3Y-2.55
X10.35Y-3.95
X10.55Y-2.45
X10.65Y-3.3
X10.85Y-5.55
X10.9Y-3.2
X10.95Y-4.8
X11.1Y-5.45
X11.2Y-4.7
X11.35Y-4.05
X11.43Y-2.55
X11.6Y-3.3
X11.6Y-3.95
X11.68Y-2.45
X11.85Y-3.2
T0
M30
