G04 #@! TF.FileFunction,Soldermask,Bot*
%FSLAX46Y46*%
G04 Gerber Fmt 4.6, Leading zero omitted, Abs format (unit mm)*
G04 Created by KiCad (PCBNEW (2015-01-16 BZR 5376)-product) date 17/05/2015 23:28:06*
%MOMM*%
G01*
G04 APERTURE LIST*
%ADD10C,0.100000*%
%ADD11C,1.699260*%
%ADD12R,1.699260X1.699260*%
%ADD13C,2.286000*%
%ADD14R,1.752600X1.752600*%
%ADD15C,1.752600*%
G04 APERTURE END LIST*
D10*
D11*
X275590000Y-135178800D03*
D12*
X285750000Y-135178800D03*
D13*
X281940000Y-138430000D03*
X275590000Y-140970000D03*
D11*
X32004000Y-59182000D03*
D12*
X42164000Y-59182000D03*
D11*
X36830000Y-78333600D03*
D12*
X46990000Y-78333600D03*
D11*
X39217600Y-97332800D03*
D12*
X49377600Y-97332800D03*
D11*
X41859200Y-116433600D03*
D12*
X52019200Y-116433600D03*
D11*
X36220400Y-135331200D03*
D12*
X46380400Y-135331200D03*
D11*
X52070000Y-59080400D03*
D12*
X62230000Y-59080400D03*
D11*
X60960000Y-78384400D03*
D12*
X71120000Y-78384400D03*
D11*
X65836800Y-97383600D03*
D12*
X75996800Y-97383600D03*
D11*
X71120000Y-116382800D03*
D12*
X81280000Y-116382800D03*
D11*
X59994800Y-135382000D03*
D12*
X70154800Y-135382000D03*
D11*
X71120000Y-59029600D03*
D12*
X81280000Y-59029600D03*
D11*
X80010000Y-78333600D03*
D12*
X90170000Y-78333600D03*
D11*
X85039200Y-97434400D03*
D12*
X95199200Y-97434400D03*
D11*
X90170000Y-116382800D03*
D12*
X100330000Y-116382800D03*
D11*
X82550000Y-135382000D03*
D12*
X92710000Y-135382000D03*
D11*
X90170000Y-59182000D03*
D12*
X100330000Y-59182000D03*
D11*
X99060000Y-78181200D03*
D12*
X109220000Y-78181200D03*
D11*
X104089200Y-97383600D03*
D12*
X114249200Y-97383600D03*
D11*
X109220000Y-116433600D03*
D12*
X119380000Y-116433600D03*
D11*
X139750800Y-135178800D03*
D12*
X149910800Y-135178800D03*
D11*
X109220000Y-58928000D03*
D12*
X119380000Y-58928000D03*
D11*
X118110000Y-78384400D03*
D12*
X128270000Y-78384400D03*
D11*
X123190000Y-97434400D03*
D12*
X133350000Y-97434400D03*
D11*
X128270000Y-116382800D03*
D12*
X138430000Y-116382800D03*
D11*
X128270000Y-59131200D03*
D12*
X138430000Y-59131200D03*
D11*
X137109200Y-78333600D03*
D12*
X147269200Y-78333600D03*
D11*
X142189200Y-97434400D03*
D12*
X152349200Y-97434400D03*
D11*
X147320000Y-116332000D03*
D12*
X157480000Y-116332000D03*
D11*
X147320000Y-59131200D03*
D12*
X157480000Y-59131200D03*
D11*
X156260800Y-78282800D03*
D12*
X166420800Y-78282800D03*
D11*
X161239200Y-97383600D03*
D12*
X171399200Y-97383600D03*
D11*
X163830000Y-116484400D03*
D12*
X173990000Y-116484400D03*
D11*
X166370000Y-59131200D03*
D12*
X176530000Y-59131200D03*
D11*
X175260000Y-78333600D03*
D12*
X185420000Y-78333600D03*
D11*
X180340000Y-97434400D03*
D12*
X190500000Y-97434400D03*
D11*
X185420000Y-116484400D03*
D12*
X195580000Y-116484400D03*
D11*
X185420000Y-59131200D03*
D12*
X195580000Y-59131200D03*
D11*
X194310000Y-78740000D03*
D12*
X204470000Y-78740000D03*
D11*
X199390000Y-97434400D03*
D12*
X209550000Y-97434400D03*
D11*
X204470000Y-116484400D03*
D12*
X214630000Y-116484400D03*
D11*
X227330000Y-135128000D03*
D12*
X237490000Y-135128000D03*
D11*
X204470000Y-59131200D03*
D12*
X214630000Y-59131200D03*
D11*
X213309200Y-78282800D03*
D12*
X223469200Y-78282800D03*
D11*
X218440000Y-97383600D03*
D12*
X228600000Y-97383600D03*
D11*
X223469200Y-116382800D03*
D12*
X233629200Y-116382800D03*
D11*
X251460000Y-135280400D03*
D12*
X261620000Y-135280400D03*
D11*
X223520000Y-59131200D03*
D12*
X233680000Y-59131200D03*
D11*
X232410000Y-78282800D03*
D12*
X242570000Y-78282800D03*
D11*
X237490000Y-97434400D03*
D12*
X247650000Y-97434400D03*
D11*
X242570000Y-116484400D03*
D12*
X252730000Y-116484400D03*
D11*
X242570000Y-59131200D03*
D12*
X252730000Y-59131200D03*
D11*
X251358400Y-78130400D03*
D12*
X261518400Y-78130400D03*
D11*
X256540000Y-97434400D03*
D12*
X266700000Y-97434400D03*
D11*
X263448800Y-120853200D03*
D12*
X263448800Y-131013200D03*
D11*
X261620000Y-59131200D03*
D12*
X271780000Y-59131200D03*
D11*
X268782800Y-78130400D03*
D12*
X278942800Y-78130400D03*
D11*
X288290000Y-97332800D03*
D12*
X298450000Y-97332800D03*
D11*
X290322000Y-59131200D03*
D12*
X300482000Y-59131200D03*
D11*
X289153600Y-78282800D03*
D12*
X299313600Y-78282800D03*
D13*
X39116000Y-62230000D03*
X32766000Y-64770000D03*
X58420000Y-62230000D03*
X52070000Y-64770000D03*
X77470000Y-62230000D03*
X71120000Y-64770000D03*
X96520000Y-62230000D03*
X90170000Y-64770000D03*
X115570000Y-62230000D03*
X109220000Y-64770000D03*
X134620000Y-62230000D03*
X128270000Y-64770000D03*
X153670000Y-62230000D03*
X147320000Y-64770000D03*
X172720000Y-62230000D03*
X166370000Y-64770000D03*
X191770000Y-62230000D03*
X185420000Y-64770000D03*
X210820000Y-62230000D03*
X204470000Y-64770000D03*
X229870000Y-62230000D03*
X223520000Y-64770000D03*
X248920000Y-62230000D03*
X242570000Y-64770000D03*
X267970000Y-62230000D03*
X261620000Y-64770000D03*
X296672000Y-62230000D03*
X290322000Y-64770000D03*
X43180000Y-81280000D03*
X36830000Y-83820000D03*
X67310000Y-81280000D03*
X60960000Y-83820000D03*
X86360000Y-81280000D03*
X80010000Y-83820000D03*
X105410000Y-81280000D03*
X99060000Y-83820000D03*
X124460000Y-81280000D03*
X118110000Y-83820000D03*
X143510000Y-81280000D03*
X137160000Y-83820000D03*
X162560000Y-81280000D03*
X156210000Y-83820000D03*
X181610000Y-81280000D03*
X175260000Y-83820000D03*
X200660000Y-81280000D03*
X194310000Y-83820000D03*
X219710000Y-81280000D03*
X213360000Y-83820000D03*
X238760000Y-81280000D03*
X232410000Y-83820000D03*
X257810000Y-81280000D03*
X251460000Y-83820000D03*
X276860000Y-81280000D03*
X270510000Y-83820000D03*
X45974000Y-100330000D03*
X39624000Y-102870000D03*
X72390000Y-100330000D03*
X66040000Y-102870000D03*
X91440000Y-100330000D03*
X85090000Y-102870000D03*
X110490000Y-100330000D03*
X104140000Y-102870000D03*
X129540000Y-100330000D03*
X123190000Y-102870000D03*
X148590000Y-100330000D03*
X142240000Y-102870000D03*
X167640000Y-100330000D03*
X161290000Y-102870000D03*
X186690000Y-100330000D03*
X180340000Y-102870000D03*
X205740000Y-100330000D03*
X199390000Y-102870000D03*
X224790000Y-100330000D03*
X218440000Y-102870000D03*
X243840000Y-100330000D03*
X237490000Y-102870000D03*
X262890000Y-100330000D03*
X256540000Y-102870000D03*
X294640000Y-100330000D03*
X288290000Y-102870000D03*
X48260000Y-119380000D03*
X41910000Y-121920000D03*
X77470000Y-119380000D03*
X71120000Y-121920000D03*
X96520000Y-119380000D03*
X90170000Y-121920000D03*
X115570000Y-119380000D03*
X109220000Y-121920000D03*
X134620000Y-119380000D03*
X128270000Y-121920000D03*
X153670000Y-119380000D03*
X147320000Y-121920000D03*
X172720000Y-119380000D03*
X166370000Y-121920000D03*
X191770000Y-119380000D03*
X185420000Y-121920000D03*
X210820000Y-119380000D03*
X204470000Y-121920000D03*
X229870000Y-119380000D03*
X223520000Y-121920000D03*
X248920000Y-119380000D03*
X242570000Y-121920000D03*
X284480000Y-119380000D03*
X278130000Y-121920000D03*
X41148000Y-138430000D03*
X34798000Y-140970000D03*
X64770000Y-138430000D03*
X58420000Y-140970000D03*
X88900000Y-138430000D03*
X82550000Y-140970000D03*
X161290000Y-138430000D03*
X154940000Y-140970000D03*
X233680000Y-138430000D03*
X227330000Y-140970000D03*
X257810000Y-138430000D03*
X251460000Y-140970000D03*
D14*
X171907200Y-133908800D03*
D15*
X174447200Y-133908800D03*
X176987200Y-133908800D03*
X179527200Y-133908800D03*
X182067200Y-133908800D03*
X184607200Y-133908800D03*
X187147200Y-133908800D03*
X189687200Y-133908800D03*
X192227200Y-133908800D03*
X194767200Y-133908800D03*
X197307200Y-133908800D03*
X199847200Y-133908800D03*
X199847200Y-136448800D03*
X199847200Y-138988800D03*
X199847200Y-141528800D03*
X199847200Y-144068800D03*
X199847200Y-146608800D03*
X199847200Y-149148800D03*
X197307200Y-149148800D03*
X194767200Y-149148800D03*
X192227200Y-149148800D03*
X189687200Y-149148800D03*
X187147200Y-149148800D03*
X184607200Y-149148800D03*
X182067200Y-149148800D03*
X179527200Y-149148800D03*
X176987200Y-149148800D03*
X174447200Y-149148800D03*
X171907200Y-149148800D03*
X182067200Y-146608800D03*
X182067200Y-136448800D03*
D13*
X300990000Y-81280000D03*
X294640000Y-83820000D03*
M02*
