G04 #@! TF.FileFunction,Copper,L2,Bot,Signal*
%FSLAX46Y46*%
G04 Gerber Fmt 4.6, Leading zero omitted, Abs format (unit mm)*
G04 Created by KiCad (PCBNEW (2015-01-16 BZR 5376)-product) date 17/05/2015 20:30:34*
%MOMM*%
G01*
G04 APERTURE LIST*
%ADD10C,0.100000*%
%ADD11C,1.699260*%
%ADD12R,1.699260X1.699260*%
%ADD13C,2.286000*%
%ADD14R,1.752600X1.752600*%
%ADD15C,1.752600*%
%ADD16C,0.889000*%
%ADD17C,0.254000*%
G04 APERTURE END LIST*
D10*
D11*
X275590000Y-135890000D03*
D12*
X285750000Y-135890000D03*
D13*
X281940000Y-138430000D03*
X275590000Y-140970000D03*
D11*
X32004000Y-59182000D03*
D12*
X42164000Y-59182000D03*
D11*
X36830000Y-78740000D03*
D12*
X46990000Y-78740000D03*
D11*
X39370000Y-97790000D03*
D12*
X49530000Y-97790000D03*
D11*
X41910000Y-116840000D03*
D12*
X52070000Y-116840000D03*
D11*
X34798000Y-135890000D03*
D12*
X44958000Y-135890000D03*
D11*
X52070000Y-59690000D03*
D12*
X62230000Y-59690000D03*
D11*
X60960000Y-78740000D03*
D12*
X71120000Y-78740000D03*
D11*
X66040000Y-97790000D03*
D12*
X76200000Y-97790000D03*
D11*
X71120000Y-116840000D03*
D12*
X81280000Y-116840000D03*
D11*
X58420000Y-135890000D03*
D12*
X68580000Y-135890000D03*
D11*
X71120000Y-59690000D03*
D12*
X81280000Y-59690000D03*
D11*
X80010000Y-78740000D03*
D12*
X90170000Y-78740000D03*
D11*
X85090000Y-97790000D03*
D12*
X95250000Y-97790000D03*
D11*
X90170000Y-116840000D03*
D12*
X100330000Y-116840000D03*
D11*
X82550000Y-135890000D03*
D12*
X92710000Y-135890000D03*
D11*
X90170000Y-59690000D03*
D12*
X100330000Y-59690000D03*
D11*
X99060000Y-78740000D03*
D12*
X109220000Y-78740000D03*
D11*
X104140000Y-97790000D03*
D12*
X114300000Y-97790000D03*
D11*
X109220000Y-116840000D03*
D12*
X119380000Y-116840000D03*
D11*
X154940000Y-135890000D03*
D12*
X165100000Y-135890000D03*
D11*
X109220000Y-59690000D03*
D12*
X119380000Y-59690000D03*
D11*
X118110000Y-78740000D03*
D12*
X128270000Y-78740000D03*
D11*
X123190000Y-97790000D03*
D12*
X133350000Y-97790000D03*
D11*
X128270000Y-116840000D03*
D12*
X138430000Y-116840000D03*
D11*
X128270000Y-59690000D03*
D12*
X138430000Y-59690000D03*
D11*
X137160000Y-78740000D03*
D12*
X147320000Y-78740000D03*
D11*
X142240000Y-97790000D03*
D12*
X152400000Y-97790000D03*
D11*
X147320000Y-116840000D03*
D12*
X157480000Y-116840000D03*
D11*
X147320000Y-59690000D03*
D12*
X157480000Y-59690000D03*
D11*
X156210000Y-78740000D03*
D12*
X166370000Y-78740000D03*
D11*
X161290000Y-97790000D03*
D12*
X171450000Y-97790000D03*
D11*
X163830000Y-116840000D03*
D12*
X173990000Y-116840000D03*
D11*
X166370000Y-59690000D03*
D12*
X176530000Y-59690000D03*
D11*
X175260000Y-78740000D03*
D12*
X185420000Y-78740000D03*
D11*
X180340000Y-97790000D03*
D12*
X190500000Y-97790000D03*
D11*
X185420000Y-116840000D03*
D12*
X195580000Y-116840000D03*
D11*
X185420000Y-59690000D03*
D12*
X195580000Y-59690000D03*
D11*
X194310000Y-78740000D03*
D12*
X204470000Y-78740000D03*
D11*
X199390000Y-97790000D03*
D12*
X209550000Y-97790000D03*
D11*
X204470000Y-116840000D03*
D12*
X214630000Y-116840000D03*
D11*
X227330000Y-135890000D03*
D12*
X237490000Y-135890000D03*
D11*
X204470000Y-59690000D03*
D12*
X214630000Y-59690000D03*
D11*
X213360000Y-78740000D03*
D12*
X223520000Y-78740000D03*
D11*
X218440000Y-97790000D03*
D12*
X228600000Y-97790000D03*
D11*
X223520000Y-116840000D03*
D12*
X233680000Y-116840000D03*
D11*
X251460000Y-135890000D03*
D12*
X261620000Y-135890000D03*
D11*
X223520000Y-59690000D03*
D12*
X233680000Y-59690000D03*
D11*
X232410000Y-78740000D03*
D12*
X242570000Y-78740000D03*
D11*
X237490000Y-97790000D03*
D12*
X247650000Y-97790000D03*
D11*
X242570000Y-116840000D03*
D12*
X252730000Y-116840000D03*
D11*
X242570000Y-59690000D03*
D12*
X252730000Y-59690000D03*
D11*
X251460000Y-78740000D03*
D12*
X261620000Y-78740000D03*
D11*
X256540000Y-97790000D03*
D12*
X266700000Y-97790000D03*
D11*
X278130000Y-116840000D03*
D12*
X288290000Y-116840000D03*
D11*
X261620000Y-59690000D03*
D12*
X271780000Y-59690000D03*
D11*
X270510000Y-78740000D03*
D12*
X280670000Y-78740000D03*
D11*
X288290000Y-97790000D03*
D12*
X298450000Y-97790000D03*
D11*
X290322000Y-59690000D03*
D12*
X300482000Y-59690000D03*
D11*
X289560000Y-78740000D03*
D12*
X299720000Y-78740000D03*
D13*
X39116000Y-62230000D03*
X32766000Y-64770000D03*
X58420000Y-62230000D03*
X52070000Y-64770000D03*
X77470000Y-62230000D03*
X71120000Y-64770000D03*
X96520000Y-62230000D03*
X90170000Y-64770000D03*
X115570000Y-62230000D03*
X109220000Y-64770000D03*
X134620000Y-62230000D03*
X128270000Y-64770000D03*
X153670000Y-62230000D03*
X147320000Y-64770000D03*
X172720000Y-62230000D03*
X166370000Y-64770000D03*
X191770000Y-62230000D03*
X185420000Y-64770000D03*
X210820000Y-62230000D03*
X204470000Y-64770000D03*
X229870000Y-62230000D03*
X223520000Y-64770000D03*
X248920000Y-62230000D03*
X242570000Y-64770000D03*
X267970000Y-62230000D03*
X261620000Y-64770000D03*
X296672000Y-62230000D03*
X290322000Y-64770000D03*
X43180000Y-81280000D03*
X36830000Y-83820000D03*
X67310000Y-81280000D03*
X60960000Y-83820000D03*
X86360000Y-81280000D03*
X80010000Y-83820000D03*
X105410000Y-81280000D03*
X99060000Y-83820000D03*
X124460000Y-81280000D03*
X118110000Y-83820000D03*
X143510000Y-81280000D03*
X137160000Y-83820000D03*
X162560000Y-81280000D03*
X156210000Y-83820000D03*
X181610000Y-81280000D03*
X175260000Y-83820000D03*
X200660000Y-81280000D03*
X194310000Y-83820000D03*
X219710000Y-81280000D03*
X213360000Y-83820000D03*
X238760000Y-81280000D03*
X232410000Y-83820000D03*
X257810000Y-81280000D03*
X251460000Y-83820000D03*
X276860000Y-81280000D03*
X270510000Y-83820000D03*
X45974000Y-100330000D03*
X39624000Y-102870000D03*
X72390000Y-100330000D03*
X66040000Y-102870000D03*
X91440000Y-100330000D03*
X85090000Y-102870000D03*
X110490000Y-100330000D03*
X104140000Y-102870000D03*
X129540000Y-100330000D03*
X123190000Y-102870000D03*
X148590000Y-100330000D03*
X142240000Y-102870000D03*
X167640000Y-100330000D03*
X161290000Y-102870000D03*
X186690000Y-100330000D03*
X180340000Y-102870000D03*
X205740000Y-100330000D03*
X199390000Y-102870000D03*
X224790000Y-100330000D03*
X218440000Y-102870000D03*
X243840000Y-100330000D03*
X237490000Y-102870000D03*
X262890000Y-100330000D03*
X256540000Y-102870000D03*
X294640000Y-100330000D03*
X288290000Y-102870000D03*
X48260000Y-119380000D03*
X41910000Y-121920000D03*
X77470000Y-119380000D03*
X71120000Y-121920000D03*
X96520000Y-119380000D03*
X90170000Y-121920000D03*
X115570000Y-119380000D03*
X109220000Y-121920000D03*
X134620000Y-119380000D03*
X128270000Y-121920000D03*
X153670000Y-119380000D03*
X147320000Y-121920000D03*
X172720000Y-119380000D03*
X166370000Y-121920000D03*
X191770000Y-119380000D03*
X185420000Y-121920000D03*
X210820000Y-119380000D03*
X204470000Y-121920000D03*
X229870000Y-119380000D03*
X223520000Y-121920000D03*
X248920000Y-119380000D03*
X242570000Y-121920000D03*
X284480000Y-119380000D03*
X278130000Y-121920000D03*
X41148000Y-138430000D03*
X34798000Y-140970000D03*
X64770000Y-138430000D03*
X58420000Y-140970000D03*
X88900000Y-138430000D03*
X82550000Y-140970000D03*
X161290000Y-138430000D03*
X154940000Y-140970000D03*
X233680000Y-138430000D03*
X227330000Y-140970000D03*
X257810000Y-138430000D03*
X251460000Y-140970000D03*
D14*
X171907200Y-133908800D03*
D15*
X174447200Y-133908800D03*
X176987200Y-133908800D03*
X179527200Y-133908800D03*
X182067200Y-133908800D03*
X184607200Y-133908800D03*
X187147200Y-133908800D03*
X189687200Y-133908800D03*
X192227200Y-133908800D03*
X194767200Y-133908800D03*
X197307200Y-133908800D03*
X199847200Y-133908800D03*
X199847200Y-136448800D03*
X199847200Y-138988800D03*
X199847200Y-141528800D03*
X199847200Y-144068800D03*
X199847200Y-146608800D03*
X199847200Y-149148800D03*
X197307200Y-149148800D03*
X194767200Y-149148800D03*
X192227200Y-149148800D03*
X189687200Y-149148800D03*
X187147200Y-149148800D03*
X184607200Y-149148800D03*
X182067200Y-149148800D03*
X179527200Y-149148800D03*
X176987200Y-149148800D03*
X174447200Y-149148800D03*
X171907200Y-149148800D03*
X182067200Y-146608800D03*
X182067200Y-136448800D03*
D13*
X300990000Y-81280000D03*
X294640000Y-83820000D03*
D16*
X102006400Y-152044400D03*
X160274000Y-134416800D03*
X287426400Y-145034000D03*
X286410400Y-147828000D03*
X187756800Y-83058000D03*
X184810400Y-95351600D03*
X175514000Y-142036800D03*
X178409600Y-140665200D03*
D17*
X32004000Y-59182000D02*
X32004000Y-64008000D01*
X32004000Y-64008000D02*
X32766000Y-64770000D01*
X44958000Y-135890000D02*
X44958000Y-145643600D01*
X51358800Y-152044400D02*
X102006400Y-152044400D01*
X44958000Y-145643600D02*
X51358800Y-152044400D01*
X46990000Y-78740000D02*
X46990000Y-61214000D01*
X44704000Y-58928000D02*
X42418000Y-58928000D01*
X46990000Y-61214000D02*
X44704000Y-58928000D01*
X42418000Y-58928000D02*
X42164000Y-59182000D01*
X49530000Y-97790000D02*
X49530000Y-80518000D01*
X49530000Y-80518000D02*
X47752000Y-78740000D01*
X47752000Y-78740000D02*
X46990000Y-78740000D01*
X52070000Y-116840000D02*
X52070000Y-99822000D01*
X52070000Y-99822000D02*
X50038000Y-97790000D01*
X50038000Y-97790000D02*
X49530000Y-97790000D01*
X44958000Y-135890000D02*
X50546000Y-135890000D01*
X53848000Y-118618000D02*
X52070000Y-116840000D01*
X53848000Y-132588000D02*
X53848000Y-118618000D01*
X50546000Y-135890000D02*
X53848000Y-132588000D01*
X36830000Y-83820000D02*
X36830000Y-78740000D01*
X39624000Y-102870000D02*
X39624000Y-98044000D01*
X39624000Y-98044000D02*
X39370000Y-97790000D01*
X41910000Y-121920000D02*
X41910000Y-116840000D01*
X34798000Y-135890000D02*
X34798000Y-140970000D01*
X52070000Y-64770000D02*
X52070000Y-59690000D01*
X68580000Y-135890000D02*
X70256400Y-135890000D01*
X181203600Y-152552400D02*
X184607200Y-149148800D01*
X113995200Y-152552400D02*
X181203600Y-152552400D01*
X110083600Y-148640800D02*
X113995200Y-152552400D01*
X107442000Y-148640800D02*
X110083600Y-148640800D01*
X105054400Y-151028400D02*
X107442000Y-148640800D01*
X85394800Y-151028400D02*
X105054400Y-151028400D01*
X70256400Y-135890000D02*
X85394800Y-151028400D01*
X62230000Y-59690000D02*
X62484000Y-59690000D01*
X81280000Y-116840000D02*
X81280000Y-118364000D01*
X71374000Y-133096000D02*
X68580000Y-135890000D01*
X81788000Y-133096000D02*
X71374000Y-133096000D01*
X83820000Y-131064000D02*
X81788000Y-133096000D01*
X83820000Y-120904000D02*
X83820000Y-131064000D01*
X81280000Y-118364000D02*
X83820000Y-120904000D01*
X81280000Y-116840000D02*
X81280000Y-116332000D01*
X81280000Y-116332000D02*
X78232000Y-113284000D01*
X78232000Y-113284000D02*
X78232000Y-99822000D01*
X78232000Y-99822000D02*
X76200000Y-97790000D01*
X71120000Y-78740000D02*
X73152000Y-80772000D01*
X73152000Y-94488000D02*
X76200000Y-97536000D01*
X73152000Y-80772000D02*
X73152000Y-94488000D01*
X76200000Y-97536000D02*
X76200000Y-97790000D01*
X71120000Y-78740000D02*
X71120000Y-77724000D01*
X64516000Y-61976000D02*
X62230000Y-59690000D01*
X64516000Y-73660000D02*
X64516000Y-61976000D01*
X66040000Y-75184000D02*
X64516000Y-73660000D01*
X68580000Y-75184000D02*
X66040000Y-75184000D01*
X71120000Y-77724000D02*
X68580000Y-75184000D01*
X60960000Y-78740000D02*
X60960000Y-83820000D01*
X66040000Y-97790000D02*
X66040000Y-102870000D01*
X71120000Y-121920000D02*
X71120000Y-116840000D01*
X58420000Y-140970000D02*
X58420000Y-135890000D01*
X71120000Y-64770000D02*
X71120000Y-59690000D01*
X92710000Y-135890000D02*
X101854000Y-135890000D01*
X176784000Y-151892000D02*
X179527200Y-149148800D01*
X117856000Y-151892000D02*
X176784000Y-151892000D01*
X101854000Y-135890000D02*
X117856000Y-151892000D01*
X90170000Y-78740000D02*
X89916000Y-78740000D01*
X89916000Y-78740000D02*
X86868000Y-75692000D01*
X86868000Y-65278000D02*
X81280000Y-59690000D01*
X86868000Y-75692000D02*
X86868000Y-65278000D01*
X95250000Y-97790000D02*
X95250000Y-83820000D01*
X95250000Y-83820000D02*
X90170000Y-78740000D01*
X100330000Y-116840000D02*
X100330000Y-112522000D01*
X99060000Y-101600000D02*
X95250000Y-97790000D01*
X99060000Y-111252000D02*
X99060000Y-101600000D01*
X100330000Y-112522000D02*
X99060000Y-111252000D01*
X92710000Y-135890000D02*
X96774000Y-135890000D01*
X100330000Y-118618000D02*
X100330000Y-116840000D01*
X101092000Y-119380000D02*
X100330000Y-118618000D01*
X101092000Y-131572000D02*
X101092000Y-119380000D01*
X96774000Y-135890000D02*
X101092000Y-131572000D01*
X80010000Y-83820000D02*
X80010000Y-78740000D01*
X85090000Y-97790000D02*
X85090000Y-102870000D01*
X90170000Y-121920000D02*
X90170000Y-116840000D01*
X82550000Y-140970000D02*
X82550000Y-135890000D01*
X90170000Y-64770000D02*
X90170000Y-59690000D01*
X176987200Y-149148800D02*
X176784000Y-149148800D01*
X176784000Y-149148800D02*
X174599600Y-151333200D01*
X174599600Y-151333200D02*
X136702800Y-151333200D01*
X136702800Y-151333200D02*
X119380000Y-134010400D01*
X119380000Y-134010400D02*
X119380000Y-116840000D01*
X114300000Y-97790000D02*
X114300000Y-111760000D01*
X114300000Y-111760000D02*
X119380000Y-116840000D01*
X109220000Y-78740000D02*
X109220000Y-92710000D01*
X109220000Y-92710000D02*
X114300000Y-97790000D01*
X100330000Y-59690000D02*
X100330000Y-69850000D01*
X100330000Y-69850000D02*
X109220000Y-78740000D01*
X99060000Y-83820000D02*
X99060000Y-78740000D01*
X104140000Y-97790000D02*
X104140000Y-102870000D01*
X109220000Y-116840000D02*
X109220000Y-121920000D01*
X154940000Y-140970000D02*
X154940000Y-135890000D01*
X197307200Y-149148800D02*
X197307200Y-150520400D01*
X261620000Y-146507200D02*
X261620000Y-135890000D01*
X256540002Y-151587198D02*
X261620000Y-146507200D01*
X213918798Y-151587198D02*
X256540002Y-151587198D01*
X210667600Y-148336000D02*
X213918798Y-151587198D01*
X207060800Y-148336000D02*
X210667600Y-148336000D01*
X203301600Y-152095200D02*
X207060800Y-148336000D01*
X198882000Y-152095200D02*
X203301600Y-152095200D01*
X197307200Y-150520400D02*
X198882000Y-152095200D01*
X261620000Y-135890000D02*
X261620000Y-125730000D01*
X261620000Y-125730000D02*
X252730000Y-116840000D01*
X247650000Y-97790000D02*
X247650000Y-111760000D01*
X247650000Y-111760000D02*
X252730000Y-116840000D01*
X247650000Y-97790000D02*
X247650000Y-83820000D01*
X247650000Y-83820000D02*
X242570000Y-78740000D01*
X233680000Y-59690000D02*
X233680000Y-69850000D01*
X233680000Y-69850000D02*
X242570000Y-78740000D01*
X109220000Y-59690000D02*
X109220000Y-64770000D01*
X138430000Y-116840000D02*
X138430000Y-120192800D01*
X152654000Y-134416800D02*
X160274000Y-134416800D01*
X138430000Y-120192800D02*
X152654000Y-134416800D01*
X128270000Y-78740000D02*
X128270000Y-92710000D01*
X128270000Y-92710000D02*
X133350000Y-97790000D01*
X138430000Y-116840000D02*
X138430000Y-102870000D01*
X138430000Y-102870000D02*
X133350000Y-97790000D01*
X119380000Y-59690000D02*
X119380000Y-69850000D01*
X119380000Y-69850000D02*
X128270000Y-78740000D01*
X118110000Y-78740000D02*
X118110000Y-83820000D01*
X123190000Y-102870000D02*
X123190000Y-97790000D01*
X128270000Y-121920000D02*
X128270000Y-116840000D01*
X128270000Y-64770000D02*
X128270000Y-59690000D01*
X174447200Y-149148800D02*
X174294800Y-149148800D01*
X174294800Y-149148800D02*
X172923200Y-150520400D01*
X172923200Y-150520400D02*
X170891200Y-150520400D01*
X170891200Y-150520400D02*
X165100000Y-144729200D01*
X165100000Y-144729200D02*
X165100000Y-135890000D01*
X138430000Y-59690000D02*
X138430000Y-59232800D01*
X157480000Y-116840000D02*
X157480000Y-128270000D01*
X157480000Y-128270000D02*
X165100000Y-135890000D01*
X152400000Y-97790000D02*
X152400000Y-111760000D01*
X152400000Y-111760000D02*
X157480000Y-116840000D01*
X147320000Y-78740000D02*
X147320000Y-92710000D01*
X147320000Y-92710000D02*
X152400000Y-97790000D01*
X138430000Y-59690000D02*
X138430000Y-69850000D01*
X138430000Y-69850000D02*
X147320000Y-78740000D01*
X137160000Y-83820000D02*
X137160000Y-78740000D01*
X142240000Y-102870000D02*
X142240000Y-97790000D01*
X147320000Y-116840000D02*
X147320000Y-121920000D01*
X147320000Y-64770000D02*
X147320000Y-59690000D01*
X179527200Y-133908800D02*
X179527200Y-122377200D01*
X179527200Y-122377200D02*
X173990000Y-116840000D01*
X171450000Y-97790000D02*
X171450000Y-114300000D01*
X171450000Y-114300000D02*
X173990000Y-116840000D01*
X171450000Y-97790000D02*
X171450000Y-83820000D01*
X171450000Y-83820000D02*
X166370000Y-78740000D01*
X157480000Y-59690000D02*
X157480000Y-69850000D01*
X157480000Y-69850000D02*
X166370000Y-78740000D01*
X156210000Y-83820000D02*
X156210000Y-78740000D01*
X161290000Y-97790000D02*
X161290000Y-102870000D01*
X166370000Y-121920000D02*
X166370000Y-119380000D01*
X166370000Y-119380000D02*
X163830000Y-116840000D01*
X166370000Y-64770000D02*
X166370000Y-59690000D01*
X175260000Y-78740000D02*
X175260000Y-83820000D01*
X180340000Y-102870000D02*
X180340000Y-97790000D01*
X185420000Y-121920000D02*
X185420000Y-116840000D01*
X185420000Y-59690000D02*
X185420000Y-64770000D01*
X199847200Y-133908800D02*
X199847200Y-117703600D01*
X212547200Y-114757200D02*
X214630000Y-116840000D01*
X202793600Y-114757200D02*
X212547200Y-114757200D01*
X199847200Y-117703600D02*
X202793600Y-114757200D01*
X204470000Y-78740000D02*
X204470000Y-92710000D01*
X204470000Y-92710000D02*
X209550000Y-97790000D01*
X204470000Y-92710000D02*
X209550000Y-97790000D01*
X209550000Y-97790000D02*
X209550000Y-111760000D01*
X209550000Y-111760000D02*
X214630000Y-116840000D01*
X195580000Y-59690000D02*
X195580000Y-69850000D01*
X195580000Y-69850000D02*
X204470000Y-78740000D01*
X194310000Y-78740000D02*
X194310000Y-83820000D01*
X199390000Y-102870000D02*
X199390000Y-97790000D01*
X204470000Y-121920000D02*
X204470000Y-116840000D01*
X227330000Y-140970000D02*
X227330000Y-135890000D01*
X285750000Y-135890000D02*
X285750000Y-146507200D01*
X198577200Y-152958800D02*
X194767200Y-149148800D01*
X203504800Y-152958800D02*
X198577200Y-152958800D01*
X207365600Y-149098000D02*
X203504800Y-152958800D01*
X210210400Y-149098000D02*
X207365600Y-149098000D01*
X213207600Y-152095200D02*
X210210400Y-149098000D01*
X280162000Y-152095200D02*
X213207600Y-152095200D01*
X285750000Y-146507200D02*
X280162000Y-152095200D01*
X252730000Y-59690000D02*
X253174500Y-59690000D01*
X288290000Y-116840000D02*
X288290000Y-133350000D01*
X288290000Y-133350000D02*
X285750000Y-135890000D01*
X266700000Y-97790000D02*
X269240000Y-97790000D01*
X269240000Y-97790000D02*
X288290000Y-116840000D01*
X261620000Y-78740000D02*
X261620000Y-92710000D01*
X261620000Y-92710000D02*
X266700000Y-97790000D01*
X252730000Y-59690000D02*
X252730000Y-69850000D01*
X252730000Y-69850000D02*
X261620000Y-78740000D01*
X204470000Y-59690000D02*
X204470000Y-64770000D01*
X213360000Y-78740000D02*
X213360000Y-83820000D01*
X218440000Y-102870000D02*
X218440000Y-97790000D01*
X223520000Y-121920000D02*
X223520000Y-116840000D01*
X251460000Y-140970000D02*
X251460000Y-135890000D01*
X298450000Y-97790000D02*
X298450000Y-134010400D01*
X298450000Y-134010400D02*
X287426400Y-145034000D01*
X298450000Y-97790000D02*
X298450000Y-96520000D01*
X298450000Y-96520000D02*
X280670000Y-78740000D01*
X271780000Y-59690000D02*
X271780000Y-69850000D01*
X271780000Y-69850000D02*
X280670000Y-78740000D01*
X223520000Y-59690000D02*
X223520000Y-64770000D01*
X232410000Y-78740000D02*
X232410000Y-83820000D01*
X237490000Y-102870000D02*
X237490000Y-97790000D01*
X242570000Y-121920000D02*
X242570000Y-116840000D01*
X275590000Y-140970000D02*
X275590000Y-135890000D01*
X299720000Y-78740000D02*
X301447200Y-78740000D01*
X299618400Y-134620000D02*
X286410400Y-147828000D01*
X299618400Y-121920000D02*
X299618400Y-134620000D01*
X306628800Y-114909600D02*
X299618400Y-121920000D01*
X306628800Y-83921600D02*
X306628800Y-114909600D01*
X301447200Y-78740000D02*
X306628800Y-83921600D01*
X300482000Y-59690000D02*
X300482000Y-77978000D01*
X300482000Y-77978000D02*
X299720000Y-78740000D01*
X242570000Y-64770000D02*
X242570000Y-59690000D01*
X251460000Y-83820000D02*
X251460000Y-78740000D01*
X256540000Y-102870000D02*
X256540000Y-97790000D01*
X278130000Y-121920000D02*
X278130000Y-116840000D01*
X261620000Y-64770000D02*
X261620000Y-59690000D01*
X270510000Y-83820000D02*
X270510000Y-78740000D01*
X288290000Y-102870000D02*
X288290000Y-97790000D01*
X290322000Y-64770000D02*
X290322000Y-59690000D01*
X294640000Y-83820000D02*
X289560000Y-78740000D01*
X194767200Y-133908800D02*
X194767200Y-128320800D01*
X191770000Y-69138800D02*
X191770000Y-62230000D01*
X187655200Y-73253600D02*
X191770000Y-69138800D01*
X187655200Y-82956400D02*
X187655200Y-73253600D01*
X187756800Y-83058000D02*
X187655200Y-82956400D01*
X185115200Y-95351600D02*
X184810400Y-95351600D01*
X193598800Y-103835200D02*
X185115200Y-95351600D01*
X193598800Y-120853200D02*
X193598800Y-103835200D01*
X192684400Y-121767600D02*
X193598800Y-120853200D01*
X192684400Y-126238000D02*
X192684400Y-121767600D01*
X194767200Y-128320800D02*
X192684400Y-126238000D01*
X182067200Y-133908800D02*
X182067200Y-112979200D01*
X181610000Y-88138000D02*
X181610000Y-81280000D01*
X177698400Y-92049600D02*
X181610000Y-88138000D01*
X177698400Y-108610400D02*
X177698400Y-92049600D01*
X182067200Y-112979200D02*
X177698400Y-108610400D01*
X186690000Y-100330000D02*
X186690000Y-117500400D01*
X192125600Y-131470400D02*
X189687200Y-133908800D01*
X192125600Y-122936000D02*
X192125600Y-131470400D01*
X186690000Y-117500400D02*
X192125600Y-122936000D01*
X197307200Y-146608800D02*
X199847200Y-149148800D01*
X195427600Y-146608800D02*
X197307200Y-146608800D01*
X192633600Y-143814800D02*
X195427600Y-146608800D01*
X177292000Y-143814800D02*
X192633600Y-143814800D01*
X175514000Y-142036800D02*
X177292000Y-143814800D01*
X233680000Y-138430000D02*
X233680000Y-144475200D01*
X204673200Y-149148800D02*
X199847200Y-149148800D01*
X206349600Y-147472400D02*
X204673200Y-149148800D01*
X211023200Y-147472400D02*
X206349600Y-147472400D01*
X214477600Y-150926800D02*
X211023200Y-147472400D01*
X227228400Y-150926800D02*
X214477600Y-150926800D01*
X233680000Y-144475200D02*
X227228400Y-150926800D01*
X171907200Y-133908800D02*
X171907200Y-136702800D01*
X176733200Y-141528800D02*
X199847200Y-141528800D01*
X171907200Y-136702800D02*
X176733200Y-141528800D01*
X180086000Y-138988800D02*
X199847200Y-138988800D01*
X178409600Y-140665200D02*
X180086000Y-138988800D01*
X195580000Y-116840000D02*
X195580000Y-132181600D01*
X195580000Y-132181600D02*
X197307200Y-133908800D01*
X195580000Y-116840000D02*
X195580000Y-102870000D01*
X195580000Y-102870000D02*
X190500000Y-97790000D01*
X176530000Y-59690000D02*
X176530000Y-69850000D01*
X176530000Y-69850000D02*
X185420000Y-78740000D01*
X185420000Y-78740000D02*
X185420000Y-92710000D01*
X185420000Y-92710000D02*
X190500000Y-97790000D01*
X237490000Y-135890000D02*
X230327200Y-135890000D01*
X212852000Y-146608800D02*
X199847200Y-146608800D01*
X225145600Y-134315200D02*
X212852000Y-146608800D01*
X228752400Y-134315200D02*
X225145600Y-134315200D01*
X230327200Y-135890000D02*
X228752400Y-134315200D01*
X233680000Y-116840000D02*
X233680000Y-102870000D01*
X233680000Y-102870000D02*
X228600000Y-97790000D01*
X228600000Y-97790000D02*
X228600000Y-83820000D01*
X228600000Y-83820000D02*
X223520000Y-78740000D01*
X237490000Y-135890000D02*
X237490000Y-120650000D01*
X237490000Y-120650000D02*
X233680000Y-116840000D01*
X214630000Y-59690000D02*
X214630000Y-69850000D01*
X214630000Y-69850000D02*
X223520000Y-78740000D01*
M02*
