G04 #@! TF.FileFunction,Legend,Bot*
%FSLAX46Y46*%
G04 Gerber Fmt 4.6, Leading zero omitted, Abs format (unit mm)*
G04 Created by KiCad (PCBNEW (2015-01-16 BZR 5376)-product) date 07/02/2015 16:03:05*
%MOMM*%
G01*
G04 APERTURE LIST*
%ADD10C,0.100000*%
%ADD11C,0.150000*%
G04 APERTURE END LIST*
D10*
D11*
X20574000Y-64770000D02*
X19177000Y-64770000D01*
X25019000Y-64770000D02*
X26543000Y-64770000D01*
X24638000Y-65532000D02*
X24638000Y-64008000D01*
X24892000Y-65532000D02*
X24892000Y-64008000D01*
X25146000Y-64770000D02*
X25146000Y-64008000D01*
X25146000Y-64008000D02*
X20574000Y-64008000D01*
X20574000Y-64008000D02*
X20574000Y-65532000D01*
X20574000Y-65532000D02*
X25146000Y-65532000D01*
X25146000Y-65532000D02*
X25146000Y-64770000D01*
X23114000Y-85090000D02*
X21717000Y-85090000D01*
X27559000Y-85090000D02*
X29083000Y-85090000D01*
X27178000Y-85852000D02*
X27178000Y-84328000D01*
X27432000Y-85852000D02*
X27432000Y-84328000D01*
X27686000Y-85090000D02*
X27686000Y-84328000D01*
X27686000Y-84328000D02*
X23114000Y-84328000D01*
X23114000Y-84328000D02*
X23114000Y-85852000D01*
X23114000Y-85852000D02*
X27686000Y-85852000D01*
X27686000Y-85852000D02*
X27686000Y-85090000D01*
X23598095Y-62682381D02*
X23598095Y-61682381D01*
X23360000Y-61682381D01*
X23217142Y-61730000D01*
X23121904Y-61825238D01*
X23074285Y-61920476D01*
X23026666Y-62110952D01*
X23026666Y-62253810D01*
X23074285Y-62444286D01*
X23121904Y-62539524D01*
X23217142Y-62634762D01*
X23360000Y-62682381D01*
X23598095Y-62682381D01*
X22645714Y-61777619D02*
X22598095Y-61730000D01*
X22502857Y-61682381D01*
X22264761Y-61682381D01*
X22169523Y-61730000D01*
X22121904Y-61777619D01*
X22074285Y-61872857D01*
X22074285Y-61968095D01*
X22121904Y-62110952D01*
X22693333Y-62682381D01*
X22074285Y-62682381D01*
X26138095Y-83002381D02*
X26138095Y-82002381D01*
X25900000Y-82002381D01*
X25757142Y-82050000D01*
X25661904Y-82145238D01*
X25614285Y-82240476D01*
X25566666Y-82430952D01*
X25566666Y-82573810D01*
X25614285Y-82764286D01*
X25661904Y-82859524D01*
X25757142Y-82954762D01*
X25900000Y-83002381D01*
X26138095Y-83002381D01*
X25233333Y-82002381D02*
X24614285Y-82002381D01*
X24947619Y-82383333D01*
X24804761Y-82383333D01*
X24709523Y-82430952D01*
X24661904Y-82478571D01*
X24614285Y-82573810D01*
X24614285Y-82811905D01*
X24661904Y-82907143D01*
X24709523Y-82954762D01*
X24804761Y-83002381D01*
X25090476Y-83002381D01*
X25185714Y-82954762D01*
X25233333Y-82907143D01*
M02*
