G04 #@! TF.FileFunction,Copper,L2,Bot,Signal*
%FSLAX46Y46*%
G04 Gerber Fmt 4.6, Leading zero omitted, Abs format (unit mm)*
G04 Created by KiCad (PCBNEW (2015-01-16 BZR 5376)-product) date 07/02/2015 16:03:05*
%MOMM*%
G01*
G04 APERTURE LIST*
%ADD10C,0.100000*%
%ADD11C,1.699260*%
%ADD12R,1.699260X1.699260*%
%ADD13C,2.286000*%
G04 APERTURE END LIST*
D10*
D11*
X12700000Y-44450000D03*
D12*
X22860000Y-44450000D03*
D11*
X17780000Y-64770000D03*
D12*
X27940000Y-64770000D03*
D11*
X20320000Y-85090000D03*
D12*
X30480000Y-85090000D03*
D11*
X22860000Y-105410000D03*
D12*
X33020000Y-105410000D03*
D11*
X24130000Y-125730000D03*
D12*
X34290000Y-125730000D03*
D11*
X33020000Y-44450000D03*
D12*
X43180000Y-44450000D03*
D11*
X43180000Y-64770000D03*
D12*
X53340000Y-64770000D03*
D11*
X48260000Y-85090000D03*
D12*
X58420000Y-85090000D03*
D11*
X53340000Y-105410000D03*
D12*
X63500000Y-105410000D03*
D11*
X49530000Y-125730000D03*
D12*
X59690000Y-125730000D03*
D11*
X53340000Y-44450000D03*
D12*
X63500000Y-44450000D03*
D11*
X63500000Y-64770000D03*
D12*
X73660000Y-64770000D03*
D11*
X68580000Y-85090000D03*
D12*
X78740000Y-85090000D03*
D11*
X73660000Y-105410000D03*
D12*
X83820000Y-105410000D03*
D11*
X74930000Y-125730000D03*
D12*
X85090000Y-125730000D03*
D11*
X73660000Y-44450000D03*
D12*
X83820000Y-44450000D03*
D11*
X83820000Y-64770000D03*
D12*
X93980000Y-64770000D03*
D11*
X88900000Y-85090000D03*
D12*
X99060000Y-85090000D03*
D11*
X93980000Y-105410000D03*
D12*
X104140000Y-105410000D03*
D11*
X147320000Y-125730000D03*
D12*
X157480000Y-125730000D03*
D11*
X93980000Y-44450000D03*
D12*
X104140000Y-44450000D03*
D11*
X104140000Y-64770000D03*
D12*
X114300000Y-64770000D03*
D11*
X111760000Y-88900000D03*
D12*
X121920000Y-88900000D03*
D11*
X114300000Y-105410000D03*
D12*
X124460000Y-105410000D03*
D11*
X114300000Y-44450000D03*
D12*
X124460000Y-44450000D03*
D11*
X124460000Y-64770000D03*
D12*
X134620000Y-64770000D03*
D11*
X129540000Y-85090000D03*
D12*
X139700000Y-85090000D03*
D11*
X134620000Y-105410000D03*
D12*
X144780000Y-105410000D03*
D11*
X219710000Y-125730000D03*
D12*
X229870000Y-125730000D03*
D11*
X134620000Y-44450000D03*
D12*
X144780000Y-44450000D03*
D11*
X144780000Y-64770000D03*
D12*
X154940000Y-64770000D03*
D11*
X149860000Y-85090000D03*
D12*
X160020000Y-85090000D03*
D11*
X154940000Y-105410000D03*
D12*
X165100000Y-105410000D03*
D11*
X245110000Y-125730000D03*
D12*
X255270000Y-125730000D03*
D11*
X154940000Y-44450000D03*
D12*
X165100000Y-44450000D03*
D11*
X165100000Y-64770000D03*
D12*
X175260000Y-64770000D03*
D11*
X170180000Y-85090000D03*
D12*
X180340000Y-85090000D03*
D11*
X175260000Y-105410000D03*
D12*
X185420000Y-105410000D03*
D11*
X270510000Y-125730000D03*
D12*
X280670000Y-125730000D03*
D11*
X175260000Y-44450000D03*
D12*
X185420000Y-44450000D03*
D11*
X185420000Y-64770000D03*
D12*
X195580000Y-64770000D03*
D11*
X190500000Y-85090000D03*
D12*
X200660000Y-85090000D03*
D11*
X195580000Y-105410000D03*
D12*
X205740000Y-105410000D03*
D11*
X195580000Y-44450000D03*
D12*
X205740000Y-44450000D03*
D11*
X205740000Y-64770000D03*
D12*
X215900000Y-64770000D03*
D11*
X210820000Y-85090000D03*
D12*
X220980000Y-85090000D03*
D11*
X215900000Y-105410000D03*
D12*
X226060000Y-105410000D03*
D11*
X215900000Y-44450000D03*
D12*
X226060000Y-44450000D03*
D11*
X226060000Y-64770000D03*
D12*
X236220000Y-64770000D03*
D11*
X231140000Y-85090000D03*
D12*
X241300000Y-85090000D03*
D11*
X236220000Y-105410000D03*
D12*
X246380000Y-105410000D03*
D11*
X236220000Y-44450000D03*
D12*
X246380000Y-44450000D03*
D11*
X246380000Y-64770000D03*
D12*
X256540000Y-64770000D03*
D11*
X251460000Y-85090000D03*
D12*
X261620000Y-85090000D03*
D11*
X273050000Y-104140000D03*
D12*
X283210000Y-104140000D03*
D11*
X256540000Y-44450000D03*
D12*
X266700000Y-44450000D03*
D11*
X266700000Y-64770000D03*
D12*
X276860000Y-64770000D03*
D11*
X283210000Y-85090000D03*
D12*
X293370000Y-85090000D03*
D11*
X287020000Y-44450000D03*
D12*
X297180000Y-44450000D03*
D11*
X287020000Y-64770000D03*
D12*
X297180000Y-64770000D03*
D13*
X19050000Y-46990000D03*
X12700000Y-49530000D03*
X24130000Y-67310000D03*
X17780000Y-69850000D03*
X26670000Y-87630000D03*
X20320000Y-90170000D03*
X29210000Y-107950000D03*
X22860000Y-110490000D03*
X30480000Y-128270000D03*
X24130000Y-130810000D03*
X39370000Y-46990000D03*
X33020000Y-49530000D03*
X49530000Y-67310000D03*
X43180000Y-69850000D03*
X54610000Y-87630000D03*
X48260000Y-90170000D03*
X59690000Y-107950000D03*
X53340000Y-110490000D03*
X55880000Y-128270000D03*
X49530000Y-130810000D03*
X59690000Y-46990000D03*
X53340000Y-49530000D03*
X69850000Y-67310000D03*
X63500000Y-69850000D03*
X74930000Y-87630000D03*
X68580000Y-90170000D03*
X80010000Y-107950000D03*
X73660000Y-110490000D03*
X81280000Y-128270000D03*
X74930000Y-130810000D03*
X80010000Y-46990000D03*
X73660000Y-49530000D03*
X90170000Y-67310000D03*
X83820000Y-69850000D03*
X95250000Y-87630000D03*
X88900000Y-90170000D03*
X100330000Y-107950000D03*
X93980000Y-110490000D03*
X153670000Y-128270000D03*
X147320000Y-130810000D03*
X100330000Y-46990000D03*
X93980000Y-49530000D03*
X110490000Y-67310000D03*
X104140000Y-69850000D03*
X115570000Y-87630000D03*
X109220000Y-90170000D03*
X120650000Y-107950000D03*
X114300000Y-110490000D03*
X120650000Y-46990000D03*
X114300000Y-49530000D03*
X130810000Y-67310000D03*
X124460000Y-69850000D03*
X135890000Y-87630000D03*
X129540000Y-90170000D03*
X140970000Y-107950000D03*
X134620000Y-110490000D03*
X226060000Y-128270000D03*
X219710000Y-130810000D03*
X140970000Y-46990000D03*
X134620000Y-49530000D03*
X151130000Y-67310000D03*
X144780000Y-69850000D03*
X156210000Y-87630000D03*
X149860000Y-90170000D03*
X161290000Y-107950000D03*
X154940000Y-110490000D03*
X251460000Y-128270000D03*
X245110000Y-130810000D03*
X161290000Y-46990000D03*
X154940000Y-49530000D03*
X171450000Y-67310000D03*
X165100000Y-69850000D03*
X176530000Y-87630000D03*
X170180000Y-90170000D03*
X181610000Y-107950000D03*
X175260000Y-110490000D03*
X276860000Y-128270000D03*
X270510000Y-130810000D03*
X181610000Y-46990000D03*
X175260000Y-49530000D03*
X191770000Y-67310000D03*
X185420000Y-69850000D03*
X196850000Y-87630000D03*
X190500000Y-90170000D03*
X201930000Y-107950000D03*
X195580000Y-110490000D03*
X201930000Y-46990000D03*
X195580000Y-49530000D03*
X212090000Y-67310000D03*
X205740000Y-69850000D03*
X217170000Y-87630000D03*
X210820000Y-90170000D03*
X222250000Y-107950000D03*
X215900000Y-110490000D03*
X222250000Y-46990000D03*
X215900000Y-49530000D03*
X232410000Y-67310000D03*
X226060000Y-69850000D03*
X237490000Y-87630000D03*
X231140000Y-90170000D03*
X242570000Y-107950000D03*
X236220000Y-110490000D03*
X242570000Y-46990000D03*
X236220000Y-49530000D03*
X252730000Y-67310000D03*
X246380000Y-69850000D03*
X257810000Y-87630000D03*
X251460000Y-90170000D03*
X279400000Y-107950000D03*
X273050000Y-110490000D03*
X262890000Y-46990000D03*
X256540000Y-49530000D03*
X273050000Y-67310000D03*
X266700000Y-69850000D03*
X289560000Y-87630000D03*
X283210000Y-90170000D03*
X293370000Y-46990000D03*
X287020000Y-49530000D03*
X293370000Y-67310000D03*
X287020000Y-69850000D03*
X153670000Y-19050000D03*
X147320000Y-21590000D03*
M02*
