G04 #@! TF.FileFunction,Legend,Top*
%FSLAX46Y46*%
G04 Gerber Fmt 4.6, Leading zero omitted, Abs format (unit mm)*
G04 Created by KiCad (PCBNEW (2015-01-16 BZR 5376)-product) date 07/02/2015 16:03:05*
%MOMM*%
G01*
G04 APERTURE LIST*
%ADD10C,0.100000*%
%ADD11C,0.150000*%
%ADD12C,0.381000*%
%ADD13C,0.203200*%
G04 APERTURE END LIST*
D10*
D11*
X15494000Y-44450000D02*
X14097000Y-44450000D01*
X19939000Y-44450000D02*
X21463000Y-44450000D01*
X19558000Y-43688000D02*
X19558000Y-45212000D01*
X19812000Y-43688000D02*
X19812000Y-45212000D01*
X20066000Y-44450000D02*
X20066000Y-45212000D01*
X20066000Y-45212000D02*
X15494000Y-45212000D01*
X15494000Y-45212000D02*
X15494000Y-43688000D01*
X15494000Y-43688000D02*
X20066000Y-43688000D01*
X20066000Y-43688000D02*
X20066000Y-44450000D01*
X25654000Y-105410000D02*
X24257000Y-105410000D01*
X30099000Y-105410000D02*
X31623000Y-105410000D01*
X29718000Y-104648000D02*
X29718000Y-106172000D01*
X29972000Y-104648000D02*
X29972000Y-106172000D01*
X30226000Y-105410000D02*
X30226000Y-106172000D01*
X30226000Y-106172000D02*
X25654000Y-106172000D01*
X25654000Y-106172000D02*
X25654000Y-104648000D01*
X25654000Y-104648000D02*
X30226000Y-104648000D01*
X30226000Y-104648000D02*
X30226000Y-105410000D01*
X26924000Y-125730000D02*
X25527000Y-125730000D01*
X31369000Y-125730000D02*
X32893000Y-125730000D01*
X30988000Y-124968000D02*
X30988000Y-126492000D01*
X31242000Y-124968000D02*
X31242000Y-126492000D01*
X31496000Y-125730000D02*
X31496000Y-126492000D01*
X31496000Y-126492000D02*
X26924000Y-126492000D01*
X26924000Y-126492000D02*
X26924000Y-124968000D01*
X26924000Y-124968000D02*
X31496000Y-124968000D01*
X31496000Y-124968000D02*
X31496000Y-125730000D01*
X35814000Y-44450000D02*
X34417000Y-44450000D01*
X40259000Y-44450000D02*
X41783000Y-44450000D01*
X39878000Y-43688000D02*
X39878000Y-45212000D01*
X40132000Y-43688000D02*
X40132000Y-45212000D01*
X40386000Y-44450000D02*
X40386000Y-45212000D01*
X40386000Y-45212000D02*
X35814000Y-45212000D01*
X35814000Y-45212000D02*
X35814000Y-43688000D01*
X35814000Y-43688000D02*
X40386000Y-43688000D01*
X40386000Y-43688000D02*
X40386000Y-44450000D01*
X45974000Y-64770000D02*
X44577000Y-64770000D01*
X50419000Y-64770000D02*
X51943000Y-64770000D01*
X50038000Y-64008000D02*
X50038000Y-65532000D01*
X50292000Y-64008000D02*
X50292000Y-65532000D01*
X50546000Y-64770000D02*
X50546000Y-65532000D01*
X50546000Y-65532000D02*
X45974000Y-65532000D01*
X45974000Y-65532000D02*
X45974000Y-64008000D01*
X45974000Y-64008000D02*
X50546000Y-64008000D01*
X50546000Y-64008000D02*
X50546000Y-64770000D01*
X51054000Y-85090000D02*
X49657000Y-85090000D01*
X55499000Y-85090000D02*
X57023000Y-85090000D01*
X55118000Y-84328000D02*
X55118000Y-85852000D01*
X55372000Y-84328000D02*
X55372000Y-85852000D01*
X55626000Y-85090000D02*
X55626000Y-85852000D01*
X55626000Y-85852000D02*
X51054000Y-85852000D01*
X51054000Y-85852000D02*
X51054000Y-84328000D01*
X51054000Y-84328000D02*
X55626000Y-84328000D01*
X55626000Y-84328000D02*
X55626000Y-85090000D01*
X56134000Y-105410000D02*
X54737000Y-105410000D01*
X60579000Y-105410000D02*
X62103000Y-105410000D01*
X60198000Y-104648000D02*
X60198000Y-106172000D01*
X60452000Y-104648000D02*
X60452000Y-106172000D01*
X60706000Y-105410000D02*
X60706000Y-106172000D01*
X60706000Y-106172000D02*
X56134000Y-106172000D01*
X56134000Y-106172000D02*
X56134000Y-104648000D01*
X56134000Y-104648000D02*
X60706000Y-104648000D01*
X60706000Y-104648000D02*
X60706000Y-105410000D01*
X52324000Y-125730000D02*
X50927000Y-125730000D01*
X56769000Y-125730000D02*
X58293000Y-125730000D01*
X56388000Y-124968000D02*
X56388000Y-126492000D01*
X56642000Y-124968000D02*
X56642000Y-126492000D01*
X56896000Y-125730000D02*
X56896000Y-126492000D01*
X56896000Y-126492000D02*
X52324000Y-126492000D01*
X52324000Y-126492000D02*
X52324000Y-124968000D01*
X52324000Y-124968000D02*
X56896000Y-124968000D01*
X56896000Y-124968000D02*
X56896000Y-125730000D01*
X56134000Y-44450000D02*
X54737000Y-44450000D01*
X60579000Y-44450000D02*
X62103000Y-44450000D01*
X60198000Y-43688000D02*
X60198000Y-45212000D01*
X60452000Y-43688000D02*
X60452000Y-45212000D01*
X60706000Y-44450000D02*
X60706000Y-45212000D01*
X60706000Y-45212000D02*
X56134000Y-45212000D01*
X56134000Y-45212000D02*
X56134000Y-43688000D01*
X56134000Y-43688000D02*
X60706000Y-43688000D01*
X60706000Y-43688000D02*
X60706000Y-44450000D01*
X66294000Y-64770000D02*
X64897000Y-64770000D01*
X70739000Y-64770000D02*
X72263000Y-64770000D01*
X70358000Y-64008000D02*
X70358000Y-65532000D01*
X70612000Y-64008000D02*
X70612000Y-65532000D01*
X70866000Y-64770000D02*
X70866000Y-65532000D01*
X70866000Y-65532000D02*
X66294000Y-65532000D01*
X66294000Y-65532000D02*
X66294000Y-64008000D01*
X66294000Y-64008000D02*
X70866000Y-64008000D01*
X70866000Y-64008000D02*
X70866000Y-64770000D01*
X71374000Y-85090000D02*
X69977000Y-85090000D01*
X75819000Y-85090000D02*
X77343000Y-85090000D01*
X75438000Y-84328000D02*
X75438000Y-85852000D01*
X75692000Y-84328000D02*
X75692000Y-85852000D01*
X75946000Y-85090000D02*
X75946000Y-85852000D01*
X75946000Y-85852000D02*
X71374000Y-85852000D01*
X71374000Y-85852000D02*
X71374000Y-84328000D01*
X71374000Y-84328000D02*
X75946000Y-84328000D01*
X75946000Y-84328000D02*
X75946000Y-85090000D01*
X76454000Y-105410000D02*
X75057000Y-105410000D01*
X80899000Y-105410000D02*
X82423000Y-105410000D01*
X80518000Y-104648000D02*
X80518000Y-106172000D01*
X80772000Y-104648000D02*
X80772000Y-106172000D01*
X81026000Y-105410000D02*
X81026000Y-106172000D01*
X81026000Y-106172000D02*
X76454000Y-106172000D01*
X76454000Y-106172000D02*
X76454000Y-104648000D01*
X76454000Y-104648000D02*
X81026000Y-104648000D01*
X81026000Y-104648000D02*
X81026000Y-105410000D01*
X77724000Y-125730000D02*
X76327000Y-125730000D01*
X82169000Y-125730000D02*
X83693000Y-125730000D01*
X81788000Y-124968000D02*
X81788000Y-126492000D01*
X82042000Y-124968000D02*
X82042000Y-126492000D01*
X82296000Y-125730000D02*
X82296000Y-126492000D01*
X82296000Y-126492000D02*
X77724000Y-126492000D01*
X77724000Y-126492000D02*
X77724000Y-124968000D01*
X77724000Y-124968000D02*
X82296000Y-124968000D01*
X82296000Y-124968000D02*
X82296000Y-125730000D01*
X76454000Y-44450000D02*
X75057000Y-44450000D01*
X80899000Y-44450000D02*
X82423000Y-44450000D01*
X80518000Y-43688000D02*
X80518000Y-45212000D01*
X80772000Y-43688000D02*
X80772000Y-45212000D01*
X81026000Y-44450000D02*
X81026000Y-45212000D01*
X81026000Y-45212000D02*
X76454000Y-45212000D01*
X76454000Y-45212000D02*
X76454000Y-43688000D01*
X76454000Y-43688000D02*
X81026000Y-43688000D01*
X81026000Y-43688000D02*
X81026000Y-44450000D01*
X86614000Y-64770000D02*
X85217000Y-64770000D01*
X91059000Y-64770000D02*
X92583000Y-64770000D01*
X90678000Y-64008000D02*
X90678000Y-65532000D01*
X90932000Y-64008000D02*
X90932000Y-65532000D01*
X91186000Y-64770000D02*
X91186000Y-65532000D01*
X91186000Y-65532000D02*
X86614000Y-65532000D01*
X86614000Y-65532000D02*
X86614000Y-64008000D01*
X86614000Y-64008000D02*
X91186000Y-64008000D01*
X91186000Y-64008000D02*
X91186000Y-64770000D01*
X91694000Y-85090000D02*
X90297000Y-85090000D01*
X96139000Y-85090000D02*
X97663000Y-85090000D01*
X95758000Y-84328000D02*
X95758000Y-85852000D01*
X96012000Y-84328000D02*
X96012000Y-85852000D01*
X96266000Y-85090000D02*
X96266000Y-85852000D01*
X96266000Y-85852000D02*
X91694000Y-85852000D01*
X91694000Y-85852000D02*
X91694000Y-84328000D01*
X91694000Y-84328000D02*
X96266000Y-84328000D01*
X96266000Y-84328000D02*
X96266000Y-85090000D01*
X96774000Y-105410000D02*
X95377000Y-105410000D01*
X101219000Y-105410000D02*
X102743000Y-105410000D01*
X100838000Y-104648000D02*
X100838000Y-106172000D01*
X101092000Y-104648000D02*
X101092000Y-106172000D01*
X101346000Y-105410000D02*
X101346000Y-106172000D01*
X101346000Y-106172000D02*
X96774000Y-106172000D01*
X96774000Y-106172000D02*
X96774000Y-104648000D01*
X96774000Y-104648000D02*
X101346000Y-104648000D01*
X101346000Y-104648000D02*
X101346000Y-105410000D01*
X150114000Y-125730000D02*
X148717000Y-125730000D01*
X154559000Y-125730000D02*
X156083000Y-125730000D01*
X154178000Y-124968000D02*
X154178000Y-126492000D01*
X154432000Y-124968000D02*
X154432000Y-126492000D01*
X154686000Y-125730000D02*
X154686000Y-126492000D01*
X154686000Y-126492000D02*
X150114000Y-126492000D01*
X150114000Y-126492000D02*
X150114000Y-124968000D01*
X150114000Y-124968000D02*
X154686000Y-124968000D01*
X154686000Y-124968000D02*
X154686000Y-125730000D01*
X96774000Y-44450000D02*
X95377000Y-44450000D01*
X101219000Y-44450000D02*
X102743000Y-44450000D01*
X100838000Y-43688000D02*
X100838000Y-45212000D01*
X101092000Y-43688000D02*
X101092000Y-45212000D01*
X101346000Y-44450000D02*
X101346000Y-45212000D01*
X101346000Y-45212000D02*
X96774000Y-45212000D01*
X96774000Y-45212000D02*
X96774000Y-43688000D01*
X96774000Y-43688000D02*
X101346000Y-43688000D01*
X101346000Y-43688000D02*
X101346000Y-44450000D01*
X106934000Y-64770000D02*
X105537000Y-64770000D01*
X111379000Y-64770000D02*
X112903000Y-64770000D01*
X110998000Y-64008000D02*
X110998000Y-65532000D01*
X111252000Y-64008000D02*
X111252000Y-65532000D01*
X111506000Y-64770000D02*
X111506000Y-65532000D01*
X111506000Y-65532000D02*
X106934000Y-65532000D01*
X106934000Y-65532000D02*
X106934000Y-64008000D01*
X106934000Y-64008000D02*
X111506000Y-64008000D01*
X111506000Y-64008000D02*
X111506000Y-64770000D01*
X114554000Y-88900000D02*
X113157000Y-88900000D01*
X118999000Y-88900000D02*
X120523000Y-88900000D01*
X118618000Y-88138000D02*
X118618000Y-89662000D01*
X118872000Y-88138000D02*
X118872000Y-89662000D01*
X119126000Y-88900000D02*
X119126000Y-89662000D01*
X119126000Y-89662000D02*
X114554000Y-89662000D01*
X114554000Y-89662000D02*
X114554000Y-88138000D01*
X114554000Y-88138000D02*
X119126000Y-88138000D01*
X119126000Y-88138000D02*
X119126000Y-88900000D01*
X117094000Y-105410000D02*
X115697000Y-105410000D01*
X121539000Y-105410000D02*
X123063000Y-105410000D01*
X121158000Y-104648000D02*
X121158000Y-106172000D01*
X121412000Y-104648000D02*
X121412000Y-106172000D01*
X121666000Y-105410000D02*
X121666000Y-106172000D01*
X121666000Y-106172000D02*
X117094000Y-106172000D01*
X117094000Y-106172000D02*
X117094000Y-104648000D01*
X117094000Y-104648000D02*
X121666000Y-104648000D01*
X121666000Y-104648000D02*
X121666000Y-105410000D01*
X117094000Y-44450000D02*
X115697000Y-44450000D01*
X121539000Y-44450000D02*
X123063000Y-44450000D01*
X121158000Y-43688000D02*
X121158000Y-45212000D01*
X121412000Y-43688000D02*
X121412000Y-45212000D01*
X121666000Y-44450000D02*
X121666000Y-45212000D01*
X121666000Y-45212000D02*
X117094000Y-45212000D01*
X117094000Y-45212000D02*
X117094000Y-43688000D01*
X117094000Y-43688000D02*
X121666000Y-43688000D01*
X121666000Y-43688000D02*
X121666000Y-44450000D01*
X127254000Y-64770000D02*
X125857000Y-64770000D01*
X131699000Y-64770000D02*
X133223000Y-64770000D01*
X131318000Y-64008000D02*
X131318000Y-65532000D01*
X131572000Y-64008000D02*
X131572000Y-65532000D01*
X131826000Y-64770000D02*
X131826000Y-65532000D01*
X131826000Y-65532000D02*
X127254000Y-65532000D01*
X127254000Y-65532000D02*
X127254000Y-64008000D01*
X127254000Y-64008000D02*
X131826000Y-64008000D01*
X131826000Y-64008000D02*
X131826000Y-64770000D01*
X132334000Y-85090000D02*
X130937000Y-85090000D01*
X136779000Y-85090000D02*
X138303000Y-85090000D01*
X136398000Y-84328000D02*
X136398000Y-85852000D01*
X136652000Y-84328000D02*
X136652000Y-85852000D01*
X136906000Y-85090000D02*
X136906000Y-85852000D01*
X136906000Y-85852000D02*
X132334000Y-85852000D01*
X132334000Y-85852000D02*
X132334000Y-84328000D01*
X132334000Y-84328000D02*
X136906000Y-84328000D01*
X136906000Y-84328000D02*
X136906000Y-85090000D01*
X137414000Y-105410000D02*
X136017000Y-105410000D01*
X141859000Y-105410000D02*
X143383000Y-105410000D01*
X141478000Y-104648000D02*
X141478000Y-106172000D01*
X141732000Y-104648000D02*
X141732000Y-106172000D01*
X141986000Y-105410000D02*
X141986000Y-106172000D01*
X141986000Y-106172000D02*
X137414000Y-106172000D01*
X137414000Y-106172000D02*
X137414000Y-104648000D01*
X137414000Y-104648000D02*
X141986000Y-104648000D01*
X141986000Y-104648000D02*
X141986000Y-105410000D01*
X222504000Y-125730000D02*
X221107000Y-125730000D01*
X226949000Y-125730000D02*
X228473000Y-125730000D01*
X226568000Y-124968000D02*
X226568000Y-126492000D01*
X226822000Y-124968000D02*
X226822000Y-126492000D01*
X227076000Y-125730000D02*
X227076000Y-126492000D01*
X227076000Y-126492000D02*
X222504000Y-126492000D01*
X222504000Y-126492000D02*
X222504000Y-124968000D01*
X222504000Y-124968000D02*
X227076000Y-124968000D01*
X227076000Y-124968000D02*
X227076000Y-125730000D01*
X137414000Y-44450000D02*
X136017000Y-44450000D01*
X141859000Y-44450000D02*
X143383000Y-44450000D01*
X141478000Y-43688000D02*
X141478000Y-45212000D01*
X141732000Y-43688000D02*
X141732000Y-45212000D01*
X141986000Y-44450000D02*
X141986000Y-45212000D01*
X141986000Y-45212000D02*
X137414000Y-45212000D01*
X137414000Y-45212000D02*
X137414000Y-43688000D01*
X137414000Y-43688000D02*
X141986000Y-43688000D01*
X141986000Y-43688000D02*
X141986000Y-44450000D01*
X147574000Y-64770000D02*
X146177000Y-64770000D01*
X152019000Y-64770000D02*
X153543000Y-64770000D01*
X151638000Y-64008000D02*
X151638000Y-65532000D01*
X151892000Y-64008000D02*
X151892000Y-65532000D01*
X152146000Y-64770000D02*
X152146000Y-65532000D01*
X152146000Y-65532000D02*
X147574000Y-65532000D01*
X147574000Y-65532000D02*
X147574000Y-64008000D01*
X147574000Y-64008000D02*
X152146000Y-64008000D01*
X152146000Y-64008000D02*
X152146000Y-64770000D01*
X152654000Y-85090000D02*
X151257000Y-85090000D01*
X157099000Y-85090000D02*
X158623000Y-85090000D01*
X156718000Y-84328000D02*
X156718000Y-85852000D01*
X156972000Y-84328000D02*
X156972000Y-85852000D01*
X157226000Y-85090000D02*
X157226000Y-85852000D01*
X157226000Y-85852000D02*
X152654000Y-85852000D01*
X152654000Y-85852000D02*
X152654000Y-84328000D01*
X152654000Y-84328000D02*
X157226000Y-84328000D01*
X157226000Y-84328000D02*
X157226000Y-85090000D01*
X157734000Y-105410000D02*
X156337000Y-105410000D01*
X162179000Y-105410000D02*
X163703000Y-105410000D01*
X161798000Y-104648000D02*
X161798000Y-106172000D01*
X162052000Y-104648000D02*
X162052000Y-106172000D01*
X162306000Y-105410000D02*
X162306000Y-106172000D01*
X162306000Y-106172000D02*
X157734000Y-106172000D01*
X157734000Y-106172000D02*
X157734000Y-104648000D01*
X157734000Y-104648000D02*
X162306000Y-104648000D01*
X162306000Y-104648000D02*
X162306000Y-105410000D01*
X247904000Y-125730000D02*
X246507000Y-125730000D01*
X252349000Y-125730000D02*
X253873000Y-125730000D01*
X251968000Y-124968000D02*
X251968000Y-126492000D01*
X252222000Y-124968000D02*
X252222000Y-126492000D01*
X252476000Y-125730000D02*
X252476000Y-126492000D01*
X252476000Y-126492000D02*
X247904000Y-126492000D01*
X247904000Y-126492000D02*
X247904000Y-124968000D01*
X247904000Y-124968000D02*
X252476000Y-124968000D01*
X252476000Y-124968000D02*
X252476000Y-125730000D01*
X157734000Y-44450000D02*
X156337000Y-44450000D01*
X162179000Y-44450000D02*
X163703000Y-44450000D01*
X161798000Y-43688000D02*
X161798000Y-45212000D01*
X162052000Y-43688000D02*
X162052000Y-45212000D01*
X162306000Y-44450000D02*
X162306000Y-45212000D01*
X162306000Y-45212000D02*
X157734000Y-45212000D01*
X157734000Y-45212000D02*
X157734000Y-43688000D01*
X157734000Y-43688000D02*
X162306000Y-43688000D01*
X162306000Y-43688000D02*
X162306000Y-44450000D01*
X167894000Y-64770000D02*
X166497000Y-64770000D01*
X172339000Y-64770000D02*
X173863000Y-64770000D01*
X171958000Y-64008000D02*
X171958000Y-65532000D01*
X172212000Y-64008000D02*
X172212000Y-65532000D01*
X172466000Y-64770000D02*
X172466000Y-65532000D01*
X172466000Y-65532000D02*
X167894000Y-65532000D01*
X167894000Y-65532000D02*
X167894000Y-64008000D01*
X167894000Y-64008000D02*
X172466000Y-64008000D01*
X172466000Y-64008000D02*
X172466000Y-64770000D01*
X172974000Y-85090000D02*
X171577000Y-85090000D01*
X177419000Y-85090000D02*
X178943000Y-85090000D01*
X177038000Y-84328000D02*
X177038000Y-85852000D01*
X177292000Y-84328000D02*
X177292000Y-85852000D01*
X177546000Y-85090000D02*
X177546000Y-85852000D01*
X177546000Y-85852000D02*
X172974000Y-85852000D01*
X172974000Y-85852000D02*
X172974000Y-84328000D01*
X172974000Y-84328000D02*
X177546000Y-84328000D01*
X177546000Y-84328000D02*
X177546000Y-85090000D01*
X178054000Y-105410000D02*
X176657000Y-105410000D01*
X182499000Y-105410000D02*
X184023000Y-105410000D01*
X182118000Y-104648000D02*
X182118000Y-106172000D01*
X182372000Y-104648000D02*
X182372000Y-106172000D01*
X182626000Y-105410000D02*
X182626000Y-106172000D01*
X182626000Y-106172000D02*
X178054000Y-106172000D01*
X178054000Y-106172000D02*
X178054000Y-104648000D01*
X178054000Y-104648000D02*
X182626000Y-104648000D01*
X182626000Y-104648000D02*
X182626000Y-105410000D01*
X273304000Y-125730000D02*
X271907000Y-125730000D01*
X277749000Y-125730000D02*
X279273000Y-125730000D01*
X277368000Y-124968000D02*
X277368000Y-126492000D01*
X277622000Y-124968000D02*
X277622000Y-126492000D01*
X277876000Y-125730000D02*
X277876000Y-126492000D01*
X277876000Y-126492000D02*
X273304000Y-126492000D01*
X273304000Y-126492000D02*
X273304000Y-124968000D01*
X273304000Y-124968000D02*
X277876000Y-124968000D01*
X277876000Y-124968000D02*
X277876000Y-125730000D01*
X178054000Y-44450000D02*
X176657000Y-44450000D01*
X182499000Y-44450000D02*
X184023000Y-44450000D01*
X182118000Y-43688000D02*
X182118000Y-45212000D01*
X182372000Y-43688000D02*
X182372000Y-45212000D01*
X182626000Y-44450000D02*
X182626000Y-45212000D01*
X182626000Y-45212000D02*
X178054000Y-45212000D01*
X178054000Y-45212000D02*
X178054000Y-43688000D01*
X178054000Y-43688000D02*
X182626000Y-43688000D01*
X182626000Y-43688000D02*
X182626000Y-44450000D01*
X188214000Y-64770000D02*
X186817000Y-64770000D01*
X192659000Y-64770000D02*
X194183000Y-64770000D01*
X192278000Y-64008000D02*
X192278000Y-65532000D01*
X192532000Y-64008000D02*
X192532000Y-65532000D01*
X192786000Y-64770000D02*
X192786000Y-65532000D01*
X192786000Y-65532000D02*
X188214000Y-65532000D01*
X188214000Y-65532000D02*
X188214000Y-64008000D01*
X188214000Y-64008000D02*
X192786000Y-64008000D01*
X192786000Y-64008000D02*
X192786000Y-64770000D01*
X193294000Y-85090000D02*
X191897000Y-85090000D01*
X197739000Y-85090000D02*
X199263000Y-85090000D01*
X197358000Y-84328000D02*
X197358000Y-85852000D01*
X197612000Y-84328000D02*
X197612000Y-85852000D01*
X197866000Y-85090000D02*
X197866000Y-85852000D01*
X197866000Y-85852000D02*
X193294000Y-85852000D01*
X193294000Y-85852000D02*
X193294000Y-84328000D01*
X193294000Y-84328000D02*
X197866000Y-84328000D01*
X197866000Y-84328000D02*
X197866000Y-85090000D01*
X198374000Y-105410000D02*
X196977000Y-105410000D01*
X202819000Y-105410000D02*
X204343000Y-105410000D01*
X202438000Y-104648000D02*
X202438000Y-106172000D01*
X202692000Y-104648000D02*
X202692000Y-106172000D01*
X202946000Y-105410000D02*
X202946000Y-106172000D01*
X202946000Y-106172000D02*
X198374000Y-106172000D01*
X198374000Y-106172000D02*
X198374000Y-104648000D01*
X198374000Y-104648000D02*
X202946000Y-104648000D01*
X202946000Y-104648000D02*
X202946000Y-105410000D01*
X198374000Y-44450000D02*
X196977000Y-44450000D01*
X202819000Y-44450000D02*
X204343000Y-44450000D01*
X202438000Y-43688000D02*
X202438000Y-45212000D01*
X202692000Y-43688000D02*
X202692000Y-45212000D01*
X202946000Y-44450000D02*
X202946000Y-45212000D01*
X202946000Y-45212000D02*
X198374000Y-45212000D01*
X198374000Y-45212000D02*
X198374000Y-43688000D01*
X198374000Y-43688000D02*
X202946000Y-43688000D01*
X202946000Y-43688000D02*
X202946000Y-44450000D01*
X208534000Y-64770000D02*
X207137000Y-64770000D01*
X212979000Y-64770000D02*
X214503000Y-64770000D01*
X212598000Y-64008000D02*
X212598000Y-65532000D01*
X212852000Y-64008000D02*
X212852000Y-65532000D01*
X213106000Y-64770000D02*
X213106000Y-65532000D01*
X213106000Y-65532000D02*
X208534000Y-65532000D01*
X208534000Y-65532000D02*
X208534000Y-64008000D01*
X208534000Y-64008000D02*
X213106000Y-64008000D01*
X213106000Y-64008000D02*
X213106000Y-64770000D01*
X213614000Y-85090000D02*
X212217000Y-85090000D01*
X218059000Y-85090000D02*
X219583000Y-85090000D01*
X217678000Y-84328000D02*
X217678000Y-85852000D01*
X217932000Y-84328000D02*
X217932000Y-85852000D01*
X218186000Y-85090000D02*
X218186000Y-85852000D01*
X218186000Y-85852000D02*
X213614000Y-85852000D01*
X213614000Y-85852000D02*
X213614000Y-84328000D01*
X213614000Y-84328000D02*
X218186000Y-84328000D01*
X218186000Y-84328000D02*
X218186000Y-85090000D01*
X218694000Y-105410000D02*
X217297000Y-105410000D01*
X223139000Y-105410000D02*
X224663000Y-105410000D01*
X222758000Y-104648000D02*
X222758000Y-106172000D01*
X223012000Y-104648000D02*
X223012000Y-106172000D01*
X223266000Y-105410000D02*
X223266000Y-106172000D01*
X223266000Y-106172000D02*
X218694000Y-106172000D01*
X218694000Y-106172000D02*
X218694000Y-104648000D01*
X218694000Y-104648000D02*
X223266000Y-104648000D01*
X223266000Y-104648000D02*
X223266000Y-105410000D01*
X218694000Y-44450000D02*
X217297000Y-44450000D01*
X223139000Y-44450000D02*
X224663000Y-44450000D01*
X222758000Y-43688000D02*
X222758000Y-45212000D01*
X223012000Y-43688000D02*
X223012000Y-45212000D01*
X223266000Y-44450000D02*
X223266000Y-45212000D01*
X223266000Y-45212000D02*
X218694000Y-45212000D01*
X218694000Y-45212000D02*
X218694000Y-43688000D01*
X218694000Y-43688000D02*
X223266000Y-43688000D01*
X223266000Y-43688000D02*
X223266000Y-44450000D01*
X228854000Y-64770000D02*
X227457000Y-64770000D01*
X233299000Y-64770000D02*
X234823000Y-64770000D01*
X232918000Y-64008000D02*
X232918000Y-65532000D01*
X233172000Y-64008000D02*
X233172000Y-65532000D01*
X233426000Y-64770000D02*
X233426000Y-65532000D01*
X233426000Y-65532000D02*
X228854000Y-65532000D01*
X228854000Y-65532000D02*
X228854000Y-64008000D01*
X228854000Y-64008000D02*
X233426000Y-64008000D01*
X233426000Y-64008000D02*
X233426000Y-64770000D01*
X233934000Y-85090000D02*
X232537000Y-85090000D01*
X238379000Y-85090000D02*
X239903000Y-85090000D01*
X237998000Y-84328000D02*
X237998000Y-85852000D01*
X238252000Y-84328000D02*
X238252000Y-85852000D01*
X238506000Y-85090000D02*
X238506000Y-85852000D01*
X238506000Y-85852000D02*
X233934000Y-85852000D01*
X233934000Y-85852000D02*
X233934000Y-84328000D01*
X233934000Y-84328000D02*
X238506000Y-84328000D01*
X238506000Y-84328000D02*
X238506000Y-85090000D01*
X239014000Y-105410000D02*
X237617000Y-105410000D01*
X243459000Y-105410000D02*
X244983000Y-105410000D01*
X243078000Y-104648000D02*
X243078000Y-106172000D01*
X243332000Y-104648000D02*
X243332000Y-106172000D01*
X243586000Y-105410000D02*
X243586000Y-106172000D01*
X243586000Y-106172000D02*
X239014000Y-106172000D01*
X239014000Y-106172000D02*
X239014000Y-104648000D01*
X239014000Y-104648000D02*
X243586000Y-104648000D01*
X243586000Y-104648000D02*
X243586000Y-105410000D01*
X239014000Y-44450000D02*
X237617000Y-44450000D01*
X243459000Y-44450000D02*
X244983000Y-44450000D01*
X243078000Y-43688000D02*
X243078000Y-45212000D01*
X243332000Y-43688000D02*
X243332000Y-45212000D01*
X243586000Y-44450000D02*
X243586000Y-45212000D01*
X243586000Y-45212000D02*
X239014000Y-45212000D01*
X239014000Y-45212000D02*
X239014000Y-43688000D01*
X239014000Y-43688000D02*
X243586000Y-43688000D01*
X243586000Y-43688000D02*
X243586000Y-44450000D01*
X249174000Y-64770000D02*
X247777000Y-64770000D01*
X253619000Y-64770000D02*
X255143000Y-64770000D01*
X253238000Y-64008000D02*
X253238000Y-65532000D01*
X253492000Y-64008000D02*
X253492000Y-65532000D01*
X253746000Y-64770000D02*
X253746000Y-65532000D01*
X253746000Y-65532000D02*
X249174000Y-65532000D01*
X249174000Y-65532000D02*
X249174000Y-64008000D01*
X249174000Y-64008000D02*
X253746000Y-64008000D01*
X253746000Y-64008000D02*
X253746000Y-64770000D01*
X254254000Y-85090000D02*
X252857000Y-85090000D01*
X258699000Y-85090000D02*
X260223000Y-85090000D01*
X258318000Y-84328000D02*
X258318000Y-85852000D01*
X258572000Y-84328000D02*
X258572000Y-85852000D01*
X258826000Y-85090000D02*
X258826000Y-85852000D01*
X258826000Y-85852000D02*
X254254000Y-85852000D01*
X254254000Y-85852000D02*
X254254000Y-84328000D01*
X254254000Y-84328000D02*
X258826000Y-84328000D01*
X258826000Y-84328000D02*
X258826000Y-85090000D01*
X275844000Y-104140000D02*
X274447000Y-104140000D01*
X280289000Y-104140000D02*
X281813000Y-104140000D01*
X279908000Y-103378000D02*
X279908000Y-104902000D01*
X280162000Y-103378000D02*
X280162000Y-104902000D01*
X280416000Y-104140000D02*
X280416000Y-104902000D01*
X280416000Y-104902000D02*
X275844000Y-104902000D01*
X275844000Y-104902000D02*
X275844000Y-103378000D01*
X275844000Y-103378000D02*
X280416000Y-103378000D01*
X280416000Y-103378000D02*
X280416000Y-104140000D01*
X259334000Y-44450000D02*
X257937000Y-44450000D01*
X263779000Y-44450000D02*
X265303000Y-44450000D01*
X263398000Y-43688000D02*
X263398000Y-45212000D01*
X263652000Y-43688000D02*
X263652000Y-45212000D01*
X263906000Y-44450000D02*
X263906000Y-45212000D01*
X263906000Y-45212000D02*
X259334000Y-45212000D01*
X259334000Y-45212000D02*
X259334000Y-43688000D01*
X259334000Y-43688000D02*
X263906000Y-43688000D01*
X263906000Y-43688000D02*
X263906000Y-44450000D01*
X269494000Y-64770000D02*
X268097000Y-64770000D01*
X273939000Y-64770000D02*
X275463000Y-64770000D01*
X273558000Y-64008000D02*
X273558000Y-65532000D01*
X273812000Y-64008000D02*
X273812000Y-65532000D01*
X274066000Y-64770000D02*
X274066000Y-65532000D01*
X274066000Y-65532000D02*
X269494000Y-65532000D01*
X269494000Y-65532000D02*
X269494000Y-64008000D01*
X269494000Y-64008000D02*
X274066000Y-64008000D01*
X274066000Y-64008000D02*
X274066000Y-64770000D01*
X286004000Y-85090000D02*
X284607000Y-85090000D01*
X290449000Y-85090000D02*
X291973000Y-85090000D01*
X290068000Y-84328000D02*
X290068000Y-85852000D01*
X290322000Y-84328000D02*
X290322000Y-85852000D01*
X290576000Y-85090000D02*
X290576000Y-85852000D01*
X290576000Y-85852000D02*
X286004000Y-85852000D01*
X286004000Y-85852000D02*
X286004000Y-84328000D01*
X286004000Y-84328000D02*
X290576000Y-84328000D01*
X290576000Y-84328000D02*
X290576000Y-85090000D01*
X289814000Y-44450000D02*
X288417000Y-44450000D01*
X294259000Y-44450000D02*
X295783000Y-44450000D01*
X293878000Y-43688000D02*
X293878000Y-45212000D01*
X294132000Y-43688000D02*
X294132000Y-45212000D01*
X294386000Y-44450000D02*
X294386000Y-45212000D01*
X294386000Y-45212000D02*
X289814000Y-45212000D01*
X289814000Y-45212000D02*
X289814000Y-43688000D01*
X289814000Y-43688000D02*
X294386000Y-43688000D01*
X294386000Y-43688000D02*
X294386000Y-44450000D01*
X289814000Y-64770000D02*
X288417000Y-64770000D01*
X294259000Y-64770000D02*
X295783000Y-64770000D01*
X293878000Y-64008000D02*
X293878000Y-65532000D01*
X294132000Y-64008000D02*
X294132000Y-65532000D01*
X294386000Y-64770000D02*
X294386000Y-65532000D01*
X294386000Y-65532000D02*
X289814000Y-65532000D01*
X289814000Y-65532000D02*
X289814000Y-64008000D01*
X289814000Y-64008000D02*
X294386000Y-64008000D01*
X294386000Y-64008000D02*
X294386000Y-64770000D01*
D12*
X10160000Y-45720000D02*
X11938000Y-45720000D01*
X21082000Y-45720000D02*
X22860000Y-45720000D01*
X22860000Y-45720000D02*
X22860000Y-47498000D01*
X22860000Y-56642000D02*
X22860000Y-58420000D01*
X22860000Y-58420000D02*
X21082000Y-58420000D01*
X11938000Y-58420000D02*
X10160000Y-58420000D01*
X10160000Y-58420000D02*
X10160000Y-56642000D01*
X10160000Y-47498000D02*
X10160000Y-45720000D01*
X15240000Y-66040000D02*
X17018000Y-66040000D01*
X26162000Y-66040000D02*
X27940000Y-66040000D01*
X27940000Y-66040000D02*
X27940000Y-67818000D01*
X27940000Y-76962000D02*
X27940000Y-78740000D01*
X27940000Y-78740000D02*
X26162000Y-78740000D01*
X17018000Y-78740000D02*
X15240000Y-78740000D01*
X15240000Y-78740000D02*
X15240000Y-76962000D01*
X15240000Y-67818000D02*
X15240000Y-66040000D01*
X17780000Y-86360000D02*
X19558000Y-86360000D01*
X28702000Y-86360000D02*
X30480000Y-86360000D01*
X30480000Y-86360000D02*
X30480000Y-88138000D01*
X30480000Y-97282000D02*
X30480000Y-99060000D01*
X30480000Y-99060000D02*
X28702000Y-99060000D01*
X19558000Y-99060000D02*
X17780000Y-99060000D01*
X17780000Y-99060000D02*
X17780000Y-97282000D01*
X17780000Y-88138000D02*
X17780000Y-86360000D01*
X20320000Y-106680000D02*
X22098000Y-106680000D01*
X31242000Y-106680000D02*
X33020000Y-106680000D01*
X33020000Y-106680000D02*
X33020000Y-108458000D01*
X33020000Y-117602000D02*
X33020000Y-119380000D01*
X33020000Y-119380000D02*
X31242000Y-119380000D01*
X22098000Y-119380000D02*
X20320000Y-119380000D01*
X20320000Y-119380000D02*
X20320000Y-117602000D01*
X20320000Y-108458000D02*
X20320000Y-106680000D01*
X21590000Y-127000000D02*
X23368000Y-127000000D01*
X32512000Y-127000000D02*
X34290000Y-127000000D01*
X34290000Y-127000000D02*
X34290000Y-128778000D01*
X34290000Y-137922000D02*
X34290000Y-139700000D01*
X34290000Y-139700000D02*
X32512000Y-139700000D01*
X23368000Y-139700000D02*
X21590000Y-139700000D01*
X21590000Y-139700000D02*
X21590000Y-137922000D01*
X21590000Y-128778000D02*
X21590000Y-127000000D01*
X30480000Y-45720000D02*
X32258000Y-45720000D01*
X41402000Y-45720000D02*
X43180000Y-45720000D01*
X43180000Y-45720000D02*
X43180000Y-47498000D01*
X43180000Y-56642000D02*
X43180000Y-58420000D01*
X43180000Y-58420000D02*
X41402000Y-58420000D01*
X32258000Y-58420000D02*
X30480000Y-58420000D01*
X30480000Y-58420000D02*
X30480000Y-56642000D01*
X30480000Y-47498000D02*
X30480000Y-45720000D01*
X40640000Y-66040000D02*
X42418000Y-66040000D01*
X51562000Y-66040000D02*
X53340000Y-66040000D01*
X53340000Y-66040000D02*
X53340000Y-67818000D01*
X53340000Y-76962000D02*
X53340000Y-78740000D01*
X53340000Y-78740000D02*
X51562000Y-78740000D01*
X42418000Y-78740000D02*
X40640000Y-78740000D01*
X40640000Y-78740000D02*
X40640000Y-76962000D01*
X40640000Y-67818000D02*
X40640000Y-66040000D01*
X45720000Y-86360000D02*
X47498000Y-86360000D01*
X56642000Y-86360000D02*
X58420000Y-86360000D01*
X58420000Y-86360000D02*
X58420000Y-88138000D01*
X58420000Y-97282000D02*
X58420000Y-99060000D01*
X58420000Y-99060000D02*
X56642000Y-99060000D01*
X47498000Y-99060000D02*
X45720000Y-99060000D01*
X45720000Y-99060000D02*
X45720000Y-97282000D01*
X45720000Y-88138000D02*
X45720000Y-86360000D01*
X50800000Y-106680000D02*
X52578000Y-106680000D01*
X61722000Y-106680000D02*
X63500000Y-106680000D01*
X63500000Y-106680000D02*
X63500000Y-108458000D01*
X63500000Y-117602000D02*
X63500000Y-119380000D01*
X63500000Y-119380000D02*
X61722000Y-119380000D01*
X52578000Y-119380000D02*
X50800000Y-119380000D01*
X50800000Y-119380000D02*
X50800000Y-117602000D01*
X50800000Y-108458000D02*
X50800000Y-106680000D01*
X46990000Y-127000000D02*
X48768000Y-127000000D01*
X57912000Y-127000000D02*
X59690000Y-127000000D01*
X59690000Y-127000000D02*
X59690000Y-128778000D01*
X59690000Y-137922000D02*
X59690000Y-139700000D01*
X59690000Y-139700000D02*
X57912000Y-139700000D01*
X48768000Y-139700000D02*
X46990000Y-139700000D01*
X46990000Y-139700000D02*
X46990000Y-137922000D01*
X46990000Y-128778000D02*
X46990000Y-127000000D01*
X50800000Y-45720000D02*
X52578000Y-45720000D01*
X61722000Y-45720000D02*
X63500000Y-45720000D01*
X63500000Y-45720000D02*
X63500000Y-47498000D01*
X63500000Y-56642000D02*
X63500000Y-58420000D01*
X63500000Y-58420000D02*
X61722000Y-58420000D01*
X52578000Y-58420000D02*
X50800000Y-58420000D01*
X50800000Y-58420000D02*
X50800000Y-56642000D01*
X50800000Y-47498000D02*
X50800000Y-45720000D01*
X60960000Y-66040000D02*
X62738000Y-66040000D01*
X71882000Y-66040000D02*
X73660000Y-66040000D01*
X73660000Y-66040000D02*
X73660000Y-67818000D01*
X73660000Y-76962000D02*
X73660000Y-78740000D01*
X73660000Y-78740000D02*
X71882000Y-78740000D01*
X62738000Y-78740000D02*
X60960000Y-78740000D01*
X60960000Y-78740000D02*
X60960000Y-76962000D01*
X60960000Y-67818000D02*
X60960000Y-66040000D01*
X66040000Y-86360000D02*
X67818000Y-86360000D01*
X76962000Y-86360000D02*
X78740000Y-86360000D01*
X78740000Y-86360000D02*
X78740000Y-88138000D01*
X78740000Y-97282000D02*
X78740000Y-99060000D01*
X78740000Y-99060000D02*
X76962000Y-99060000D01*
X67818000Y-99060000D02*
X66040000Y-99060000D01*
X66040000Y-99060000D02*
X66040000Y-97282000D01*
X66040000Y-88138000D02*
X66040000Y-86360000D01*
X71120000Y-106680000D02*
X72898000Y-106680000D01*
X82042000Y-106680000D02*
X83820000Y-106680000D01*
X83820000Y-106680000D02*
X83820000Y-108458000D01*
X83820000Y-117602000D02*
X83820000Y-119380000D01*
X83820000Y-119380000D02*
X82042000Y-119380000D01*
X72898000Y-119380000D02*
X71120000Y-119380000D01*
X71120000Y-119380000D02*
X71120000Y-117602000D01*
X71120000Y-108458000D02*
X71120000Y-106680000D01*
X72390000Y-127000000D02*
X74168000Y-127000000D01*
X83312000Y-127000000D02*
X85090000Y-127000000D01*
X85090000Y-127000000D02*
X85090000Y-128778000D01*
X85090000Y-137922000D02*
X85090000Y-139700000D01*
X85090000Y-139700000D02*
X83312000Y-139700000D01*
X74168000Y-139700000D02*
X72390000Y-139700000D01*
X72390000Y-139700000D02*
X72390000Y-137922000D01*
X72390000Y-128778000D02*
X72390000Y-127000000D01*
X71120000Y-45720000D02*
X72898000Y-45720000D01*
X82042000Y-45720000D02*
X83820000Y-45720000D01*
X83820000Y-45720000D02*
X83820000Y-47498000D01*
X83820000Y-56642000D02*
X83820000Y-58420000D01*
X83820000Y-58420000D02*
X82042000Y-58420000D01*
X72898000Y-58420000D02*
X71120000Y-58420000D01*
X71120000Y-58420000D02*
X71120000Y-56642000D01*
X71120000Y-47498000D02*
X71120000Y-45720000D01*
X81280000Y-66040000D02*
X83058000Y-66040000D01*
X92202000Y-66040000D02*
X93980000Y-66040000D01*
X93980000Y-66040000D02*
X93980000Y-67818000D01*
X93980000Y-76962000D02*
X93980000Y-78740000D01*
X93980000Y-78740000D02*
X92202000Y-78740000D01*
X83058000Y-78740000D02*
X81280000Y-78740000D01*
X81280000Y-78740000D02*
X81280000Y-76962000D01*
X81280000Y-67818000D02*
X81280000Y-66040000D01*
X86360000Y-86360000D02*
X88138000Y-86360000D01*
X97282000Y-86360000D02*
X99060000Y-86360000D01*
X99060000Y-86360000D02*
X99060000Y-88138000D01*
X99060000Y-97282000D02*
X99060000Y-99060000D01*
X99060000Y-99060000D02*
X97282000Y-99060000D01*
X88138000Y-99060000D02*
X86360000Y-99060000D01*
X86360000Y-99060000D02*
X86360000Y-97282000D01*
X86360000Y-88138000D02*
X86360000Y-86360000D01*
X91440000Y-106680000D02*
X93218000Y-106680000D01*
X102362000Y-106680000D02*
X104140000Y-106680000D01*
X104140000Y-106680000D02*
X104140000Y-108458000D01*
X104140000Y-117602000D02*
X104140000Y-119380000D01*
X104140000Y-119380000D02*
X102362000Y-119380000D01*
X93218000Y-119380000D02*
X91440000Y-119380000D01*
X91440000Y-119380000D02*
X91440000Y-117602000D01*
X91440000Y-108458000D02*
X91440000Y-106680000D01*
X144780000Y-127000000D02*
X146558000Y-127000000D01*
X155702000Y-127000000D02*
X157480000Y-127000000D01*
X157480000Y-127000000D02*
X157480000Y-128778000D01*
X157480000Y-137922000D02*
X157480000Y-139700000D01*
X157480000Y-139700000D02*
X155702000Y-139700000D01*
X146558000Y-139700000D02*
X144780000Y-139700000D01*
X144780000Y-139700000D02*
X144780000Y-137922000D01*
X144780000Y-128778000D02*
X144780000Y-127000000D01*
X91440000Y-45720000D02*
X93218000Y-45720000D01*
X102362000Y-45720000D02*
X104140000Y-45720000D01*
X104140000Y-45720000D02*
X104140000Y-47498000D01*
X104140000Y-56642000D02*
X104140000Y-58420000D01*
X104140000Y-58420000D02*
X102362000Y-58420000D01*
X93218000Y-58420000D02*
X91440000Y-58420000D01*
X91440000Y-58420000D02*
X91440000Y-56642000D01*
X91440000Y-47498000D02*
X91440000Y-45720000D01*
X101600000Y-66040000D02*
X103378000Y-66040000D01*
X112522000Y-66040000D02*
X114300000Y-66040000D01*
X114300000Y-66040000D02*
X114300000Y-67818000D01*
X114300000Y-76962000D02*
X114300000Y-78740000D01*
X114300000Y-78740000D02*
X112522000Y-78740000D01*
X103378000Y-78740000D02*
X101600000Y-78740000D01*
X101600000Y-78740000D02*
X101600000Y-76962000D01*
X101600000Y-67818000D02*
X101600000Y-66040000D01*
X106680000Y-86360000D02*
X108458000Y-86360000D01*
X117602000Y-86360000D02*
X119380000Y-86360000D01*
X119380000Y-86360000D02*
X119380000Y-88138000D01*
X119380000Y-97282000D02*
X119380000Y-99060000D01*
X119380000Y-99060000D02*
X117602000Y-99060000D01*
X108458000Y-99060000D02*
X106680000Y-99060000D01*
X106680000Y-99060000D02*
X106680000Y-97282000D01*
X106680000Y-88138000D02*
X106680000Y-86360000D01*
X111760000Y-106680000D02*
X113538000Y-106680000D01*
X122682000Y-106680000D02*
X124460000Y-106680000D01*
X124460000Y-106680000D02*
X124460000Y-108458000D01*
X124460000Y-117602000D02*
X124460000Y-119380000D01*
X124460000Y-119380000D02*
X122682000Y-119380000D01*
X113538000Y-119380000D02*
X111760000Y-119380000D01*
X111760000Y-119380000D02*
X111760000Y-117602000D01*
X111760000Y-108458000D02*
X111760000Y-106680000D01*
X111760000Y-45720000D02*
X113538000Y-45720000D01*
X122682000Y-45720000D02*
X124460000Y-45720000D01*
X124460000Y-45720000D02*
X124460000Y-47498000D01*
X124460000Y-56642000D02*
X124460000Y-58420000D01*
X124460000Y-58420000D02*
X122682000Y-58420000D01*
X113538000Y-58420000D02*
X111760000Y-58420000D01*
X111760000Y-58420000D02*
X111760000Y-56642000D01*
X111760000Y-47498000D02*
X111760000Y-45720000D01*
X121920000Y-66040000D02*
X123698000Y-66040000D01*
X132842000Y-66040000D02*
X134620000Y-66040000D01*
X134620000Y-66040000D02*
X134620000Y-67818000D01*
X134620000Y-76962000D02*
X134620000Y-78740000D01*
X134620000Y-78740000D02*
X132842000Y-78740000D01*
X123698000Y-78740000D02*
X121920000Y-78740000D01*
X121920000Y-78740000D02*
X121920000Y-76962000D01*
X121920000Y-67818000D02*
X121920000Y-66040000D01*
X127000000Y-86360000D02*
X128778000Y-86360000D01*
X137922000Y-86360000D02*
X139700000Y-86360000D01*
X139700000Y-86360000D02*
X139700000Y-88138000D01*
X139700000Y-97282000D02*
X139700000Y-99060000D01*
X139700000Y-99060000D02*
X137922000Y-99060000D01*
X128778000Y-99060000D02*
X127000000Y-99060000D01*
X127000000Y-99060000D02*
X127000000Y-97282000D01*
X127000000Y-88138000D02*
X127000000Y-86360000D01*
X132080000Y-106680000D02*
X133858000Y-106680000D01*
X143002000Y-106680000D02*
X144780000Y-106680000D01*
X144780000Y-106680000D02*
X144780000Y-108458000D01*
X144780000Y-117602000D02*
X144780000Y-119380000D01*
X144780000Y-119380000D02*
X143002000Y-119380000D01*
X133858000Y-119380000D02*
X132080000Y-119380000D01*
X132080000Y-119380000D02*
X132080000Y-117602000D01*
X132080000Y-108458000D02*
X132080000Y-106680000D01*
X217170000Y-127000000D02*
X218948000Y-127000000D01*
X228092000Y-127000000D02*
X229870000Y-127000000D01*
X229870000Y-127000000D02*
X229870000Y-128778000D01*
X229870000Y-137922000D02*
X229870000Y-139700000D01*
X229870000Y-139700000D02*
X228092000Y-139700000D01*
X218948000Y-139700000D02*
X217170000Y-139700000D01*
X217170000Y-139700000D02*
X217170000Y-137922000D01*
X217170000Y-128778000D02*
X217170000Y-127000000D01*
X132080000Y-45720000D02*
X133858000Y-45720000D01*
X143002000Y-45720000D02*
X144780000Y-45720000D01*
X144780000Y-45720000D02*
X144780000Y-47498000D01*
X144780000Y-56642000D02*
X144780000Y-58420000D01*
X144780000Y-58420000D02*
X143002000Y-58420000D01*
X133858000Y-58420000D02*
X132080000Y-58420000D01*
X132080000Y-58420000D02*
X132080000Y-56642000D01*
X132080000Y-47498000D02*
X132080000Y-45720000D01*
X142240000Y-66040000D02*
X144018000Y-66040000D01*
X153162000Y-66040000D02*
X154940000Y-66040000D01*
X154940000Y-66040000D02*
X154940000Y-67818000D01*
X154940000Y-76962000D02*
X154940000Y-78740000D01*
X154940000Y-78740000D02*
X153162000Y-78740000D01*
X144018000Y-78740000D02*
X142240000Y-78740000D01*
X142240000Y-78740000D02*
X142240000Y-76962000D01*
X142240000Y-67818000D02*
X142240000Y-66040000D01*
X147320000Y-86360000D02*
X149098000Y-86360000D01*
X158242000Y-86360000D02*
X160020000Y-86360000D01*
X160020000Y-86360000D02*
X160020000Y-88138000D01*
X160020000Y-97282000D02*
X160020000Y-99060000D01*
X160020000Y-99060000D02*
X158242000Y-99060000D01*
X149098000Y-99060000D02*
X147320000Y-99060000D01*
X147320000Y-99060000D02*
X147320000Y-97282000D01*
X147320000Y-88138000D02*
X147320000Y-86360000D01*
X152400000Y-106680000D02*
X154178000Y-106680000D01*
X163322000Y-106680000D02*
X165100000Y-106680000D01*
X165100000Y-106680000D02*
X165100000Y-108458000D01*
X165100000Y-117602000D02*
X165100000Y-119380000D01*
X165100000Y-119380000D02*
X163322000Y-119380000D01*
X154178000Y-119380000D02*
X152400000Y-119380000D01*
X152400000Y-119380000D02*
X152400000Y-117602000D01*
X152400000Y-108458000D02*
X152400000Y-106680000D01*
X242570000Y-127000000D02*
X244348000Y-127000000D01*
X253492000Y-127000000D02*
X255270000Y-127000000D01*
X255270000Y-127000000D02*
X255270000Y-128778000D01*
X255270000Y-137922000D02*
X255270000Y-139700000D01*
X255270000Y-139700000D02*
X253492000Y-139700000D01*
X244348000Y-139700000D02*
X242570000Y-139700000D01*
X242570000Y-139700000D02*
X242570000Y-137922000D01*
X242570000Y-128778000D02*
X242570000Y-127000000D01*
X152400000Y-45720000D02*
X154178000Y-45720000D01*
X163322000Y-45720000D02*
X165100000Y-45720000D01*
X165100000Y-45720000D02*
X165100000Y-47498000D01*
X165100000Y-56642000D02*
X165100000Y-58420000D01*
X165100000Y-58420000D02*
X163322000Y-58420000D01*
X154178000Y-58420000D02*
X152400000Y-58420000D01*
X152400000Y-58420000D02*
X152400000Y-56642000D01*
X152400000Y-47498000D02*
X152400000Y-45720000D01*
X162560000Y-66040000D02*
X164338000Y-66040000D01*
X173482000Y-66040000D02*
X175260000Y-66040000D01*
X175260000Y-66040000D02*
X175260000Y-67818000D01*
X175260000Y-76962000D02*
X175260000Y-78740000D01*
X175260000Y-78740000D02*
X173482000Y-78740000D01*
X164338000Y-78740000D02*
X162560000Y-78740000D01*
X162560000Y-78740000D02*
X162560000Y-76962000D01*
X162560000Y-67818000D02*
X162560000Y-66040000D01*
X167640000Y-86360000D02*
X169418000Y-86360000D01*
X178562000Y-86360000D02*
X180340000Y-86360000D01*
X180340000Y-86360000D02*
X180340000Y-88138000D01*
X180340000Y-97282000D02*
X180340000Y-99060000D01*
X180340000Y-99060000D02*
X178562000Y-99060000D01*
X169418000Y-99060000D02*
X167640000Y-99060000D01*
X167640000Y-99060000D02*
X167640000Y-97282000D01*
X167640000Y-88138000D02*
X167640000Y-86360000D01*
X172720000Y-106680000D02*
X174498000Y-106680000D01*
X183642000Y-106680000D02*
X185420000Y-106680000D01*
X185420000Y-106680000D02*
X185420000Y-108458000D01*
X185420000Y-117602000D02*
X185420000Y-119380000D01*
X185420000Y-119380000D02*
X183642000Y-119380000D01*
X174498000Y-119380000D02*
X172720000Y-119380000D01*
X172720000Y-119380000D02*
X172720000Y-117602000D01*
X172720000Y-108458000D02*
X172720000Y-106680000D01*
X267970000Y-127000000D02*
X269748000Y-127000000D01*
X278892000Y-127000000D02*
X280670000Y-127000000D01*
X280670000Y-127000000D02*
X280670000Y-128778000D01*
X280670000Y-137922000D02*
X280670000Y-139700000D01*
X280670000Y-139700000D02*
X278892000Y-139700000D01*
X269748000Y-139700000D02*
X267970000Y-139700000D01*
X267970000Y-139700000D02*
X267970000Y-137922000D01*
X267970000Y-128778000D02*
X267970000Y-127000000D01*
X172720000Y-45720000D02*
X174498000Y-45720000D01*
X183642000Y-45720000D02*
X185420000Y-45720000D01*
X185420000Y-45720000D02*
X185420000Y-47498000D01*
X185420000Y-56642000D02*
X185420000Y-58420000D01*
X185420000Y-58420000D02*
X183642000Y-58420000D01*
X174498000Y-58420000D02*
X172720000Y-58420000D01*
X172720000Y-58420000D02*
X172720000Y-56642000D01*
X172720000Y-47498000D02*
X172720000Y-45720000D01*
X182880000Y-66040000D02*
X184658000Y-66040000D01*
X193802000Y-66040000D02*
X195580000Y-66040000D01*
X195580000Y-66040000D02*
X195580000Y-67818000D01*
X195580000Y-76962000D02*
X195580000Y-78740000D01*
X195580000Y-78740000D02*
X193802000Y-78740000D01*
X184658000Y-78740000D02*
X182880000Y-78740000D01*
X182880000Y-78740000D02*
X182880000Y-76962000D01*
X182880000Y-67818000D02*
X182880000Y-66040000D01*
X187960000Y-86360000D02*
X189738000Y-86360000D01*
X198882000Y-86360000D02*
X200660000Y-86360000D01*
X200660000Y-86360000D02*
X200660000Y-88138000D01*
X200660000Y-97282000D02*
X200660000Y-99060000D01*
X200660000Y-99060000D02*
X198882000Y-99060000D01*
X189738000Y-99060000D02*
X187960000Y-99060000D01*
X187960000Y-99060000D02*
X187960000Y-97282000D01*
X187960000Y-88138000D02*
X187960000Y-86360000D01*
X193040000Y-106680000D02*
X194818000Y-106680000D01*
X203962000Y-106680000D02*
X205740000Y-106680000D01*
X205740000Y-106680000D02*
X205740000Y-108458000D01*
X205740000Y-117602000D02*
X205740000Y-119380000D01*
X205740000Y-119380000D02*
X203962000Y-119380000D01*
X194818000Y-119380000D02*
X193040000Y-119380000D01*
X193040000Y-119380000D02*
X193040000Y-117602000D01*
X193040000Y-108458000D02*
X193040000Y-106680000D01*
X193040000Y-45720000D02*
X194818000Y-45720000D01*
X203962000Y-45720000D02*
X205740000Y-45720000D01*
X205740000Y-45720000D02*
X205740000Y-47498000D01*
X205740000Y-56642000D02*
X205740000Y-58420000D01*
X205740000Y-58420000D02*
X203962000Y-58420000D01*
X194818000Y-58420000D02*
X193040000Y-58420000D01*
X193040000Y-58420000D02*
X193040000Y-56642000D01*
X193040000Y-47498000D02*
X193040000Y-45720000D01*
X203200000Y-66040000D02*
X204978000Y-66040000D01*
X214122000Y-66040000D02*
X215900000Y-66040000D01*
X215900000Y-66040000D02*
X215900000Y-67818000D01*
X215900000Y-76962000D02*
X215900000Y-78740000D01*
X215900000Y-78740000D02*
X214122000Y-78740000D01*
X204978000Y-78740000D02*
X203200000Y-78740000D01*
X203200000Y-78740000D02*
X203200000Y-76962000D01*
X203200000Y-67818000D02*
X203200000Y-66040000D01*
X208280000Y-86360000D02*
X210058000Y-86360000D01*
X219202000Y-86360000D02*
X220980000Y-86360000D01*
X220980000Y-86360000D02*
X220980000Y-88138000D01*
X220980000Y-97282000D02*
X220980000Y-99060000D01*
X220980000Y-99060000D02*
X219202000Y-99060000D01*
X210058000Y-99060000D02*
X208280000Y-99060000D01*
X208280000Y-99060000D02*
X208280000Y-97282000D01*
X208280000Y-88138000D02*
X208280000Y-86360000D01*
X213360000Y-106680000D02*
X215138000Y-106680000D01*
X224282000Y-106680000D02*
X226060000Y-106680000D01*
X226060000Y-106680000D02*
X226060000Y-108458000D01*
X226060000Y-117602000D02*
X226060000Y-119380000D01*
X226060000Y-119380000D02*
X224282000Y-119380000D01*
X215138000Y-119380000D02*
X213360000Y-119380000D01*
X213360000Y-119380000D02*
X213360000Y-117602000D01*
X213360000Y-108458000D02*
X213360000Y-106680000D01*
X213360000Y-45720000D02*
X215138000Y-45720000D01*
X224282000Y-45720000D02*
X226060000Y-45720000D01*
X226060000Y-45720000D02*
X226060000Y-47498000D01*
X226060000Y-56642000D02*
X226060000Y-58420000D01*
X226060000Y-58420000D02*
X224282000Y-58420000D01*
X215138000Y-58420000D02*
X213360000Y-58420000D01*
X213360000Y-58420000D02*
X213360000Y-56642000D01*
X213360000Y-47498000D02*
X213360000Y-45720000D01*
X223520000Y-66040000D02*
X225298000Y-66040000D01*
X234442000Y-66040000D02*
X236220000Y-66040000D01*
X236220000Y-66040000D02*
X236220000Y-67818000D01*
X236220000Y-76962000D02*
X236220000Y-78740000D01*
X236220000Y-78740000D02*
X234442000Y-78740000D01*
X225298000Y-78740000D02*
X223520000Y-78740000D01*
X223520000Y-78740000D02*
X223520000Y-76962000D01*
X223520000Y-67818000D02*
X223520000Y-66040000D01*
X228600000Y-86360000D02*
X230378000Y-86360000D01*
X239522000Y-86360000D02*
X241300000Y-86360000D01*
X241300000Y-86360000D02*
X241300000Y-88138000D01*
X241300000Y-97282000D02*
X241300000Y-99060000D01*
X241300000Y-99060000D02*
X239522000Y-99060000D01*
X230378000Y-99060000D02*
X228600000Y-99060000D01*
X228600000Y-99060000D02*
X228600000Y-97282000D01*
X228600000Y-88138000D02*
X228600000Y-86360000D01*
X233680000Y-106680000D02*
X235458000Y-106680000D01*
X244602000Y-106680000D02*
X246380000Y-106680000D01*
X246380000Y-106680000D02*
X246380000Y-108458000D01*
X246380000Y-117602000D02*
X246380000Y-119380000D01*
X246380000Y-119380000D02*
X244602000Y-119380000D01*
X235458000Y-119380000D02*
X233680000Y-119380000D01*
X233680000Y-119380000D02*
X233680000Y-117602000D01*
X233680000Y-108458000D02*
X233680000Y-106680000D01*
X233680000Y-45720000D02*
X235458000Y-45720000D01*
X244602000Y-45720000D02*
X246380000Y-45720000D01*
X246380000Y-45720000D02*
X246380000Y-47498000D01*
X246380000Y-56642000D02*
X246380000Y-58420000D01*
X246380000Y-58420000D02*
X244602000Y-58420000D01*
X235458000Y-58420000D02*
X233680000Y-58420000D01*
X233680000Y-58420000D02*
X233680000Y-56642000D01*
X233680000Y-47498000D02*
X233680000Y-45720000D01*
X243840000Y-66040000D02*
X245618000Y-66040000D01*
X254762000Y-66040000D02*
X256540000Y-66040000D01*
X256540000Y-66040000D02*
X256540000Y-67818000D01*
X256540000Y-76962000D02*
X256540000Y-78740000D01*
X256540000Y-78740000D02*
X254762000Y-78740000D01*
X245618000Y-78740000D02*
X243840000Y-78740000D01*
X243840000Y-78740000D02*
X243840000Y-76962000D01*
X243840000Y-67818000D02*
X243840000Y-66040000D01*
X248920000Y-86360000D02*
X250698000Y-86360000D01*
X259842000Y-86360000D02*
X261620000Y-86360000D01*
X261620000Y-86360000D02*
X261620000Y-88138000D01*
X261620000Y-97282000D02*
X261620000Y-99060000D01*
X261620000Y-99060000D02*
X259842000Y-99060000D01*
X250698000Y-99060000D02*
X248920000Y-99060000D01*
X248920000Y-99060000D02*
X248920000Y-97282000D01*
X248920000Y-88138000D02*
X248920000Y-86360000D01*
X270510000Y-106680000D02*
X272288000Y-106680000D01*
X281432000Y-106680000D02*
X283210000Y-106680000D01*
X283210000Y-106680000D02*
X283210000Y-108458000D01*
X283210000Y-117602000D02*
X283210000Y-119380000D01*
X283210000Y-119380000D02*
X281432000Y-119380000D01*
X272288000Y-119380000D02*
X270510000Y-119380000D01*
X270510000Y-119380000D02*
X270510000Y-117602000D01*
X270510000Y-108458000D02*
X270510000Y-106680000D01*
X254000000Y-45720000D02*
X255778000Y-45720000D01*
X264922000Y-45720000D02*
X266700000Y-45720000D01*
X266700000Y-45720000D02*
X266700000Y-47498000D01*
X266700000Y-56642000D02*
X266700000Y-58420000D01*
X266700000Y-58420000D02*
X264922000Y-58420000D01*
X255778000Y-58420000D02*
X254000000Y-58420000D01*
X254000000Y-58420000D02*
X254000000Y-56642000D01*
X254000000Y-47498000D02*
X254000000Y-45720000D01*
X264160000Y-66040000D02*
X265938000Y-66040000D01*
X275082000Y-66040000D02*
X276860000Y-66040000D01*
X276860000Y-66040000D02*
X276860000Y-67818000D01*
X276860000Y-76962000D02*
X276860000Y-78740000D01*
X276860000Y-78740000D02*
X275082000Y-78740000D01*
X265938000Y-78740000D02*
X264160000Y-78740000D01*
X264160000Y-78740000D02*
X264160000Y-76962000D01*
X264160000Y-67818000D02*
X264160000Y-66040000D01*
X280670000Y-86360000D02*
X282448000Y-86360000D01*
X291592000Y-86360000D02*
X293370000Y-86360000D01*
X293370000Y-86360000D02*
X293370000Y-88138000D01*
X293370000Y-97282000D02*
X293370000Y-99060000D01*
X293370000Y-99060000D02*
X291592000Y-99060000D01*
X282448000Y-99060000D02*
X280670000Y-99060000D01*
X280670000Y-99060000D02*
X280670000Y-97282000D01*
X280670000Y-88138000D02*
X280670000Y-86360000D01*
X284480000Y-45720000D02*
X286258000Y-45720000D01*
X295402000Y-45720000D02*
X297180000Y-45720000D01*
X297180000Y-45720000D02*
X297180000Y-47498000D01*
X297180000Y-56642000D02*
X297180000Y-58420000D01*
X297180000Y-58420000D02*
X295402000Y-58420000D01*
X286258000Y-58420000D02*
X284480000Y-58420000D01*
X284480000Y-58420000D02*
X284480000Y-56642000D01*
X284480000Y-47498000D02*
X284480000Y-45720000D01*
X284480000Y-66040000D02*
X286258000Y-66040000D01*
X295402000Y-66040000D02*
X297180000Y-66040000D01*
X297180000Y-66040000D02*
X297180000Y-67818000D01*
X297180000Y-76962000D02*
X297180000Y-78740000D01*
X297180000Y-78740000D02*
X295402000Y-78740000D01*
X286258000Y-78740000D02*
X284480000Y-78740000D01*
X284480000Y-78740000D02*
X284480000Y-76962000D01*
X284480000Y-67818000D02*
X284480000Y-66040000D01*
X144780000Y-17780000D02*
X146558000Y-17780000D01*
X155702000Y-17780000D02*
X157480000Y-17780000D01*
X157480000Y-17780000D02*
X157480000Y-19558000D01*
X157480000Y-28702000D02*
X157480000Y-30480000D01*
X157480000Y-30480000D02*
X155702000Y-30480000D01*
X146558000Y-30480000D02*
X144780000Y-30480000D01*
X144780000Y-30480000D02*
X144780000Y-28702000D01*
X144780000Y-19558000D02*
X144780000Y-17780000D01*
D11*
X17041905Y-47442381D02*
X17041905Y-46442381D01*
X17280000Y-46442381D01*
X17422858Y-46490000D01*
X17518096Y-46585238D01*
X17565715Y-46680476D01*
X17613334Y-46870952D01*
X17613334Y-47013810D01*
X17565715Y-47204286D01*
X17518096Y-47299524D01*
X17422858Y-47394762D01*
X17280000Y-47442381D01*
X17041905Y-47442381D01*
X18565715Y-47442381D02*
X17994286Y-47442381D01*
X18280000Y-47442381D02*
X18280000Y-46442381D01*
X18184762Y-46585238D01*
X18089524Y-46680476D01*
X17994286Y-46728095D01*
X27201905Y-108402381D02*
X27201905Y-107402381D01*
X27440000Y-107402381D01*
X27582858Y-107450000D01*
X27678096Y-107545238D01*
X27725715Y-107640476D01*
X27773334Y-107830952D01*
X27773334Y-107973810D01*
X27725715Y-108164286D01*
X27678096Y-108259524D01*
X27582858Y-108354762D01*
X27440000Y-108402381D01*
X27201905Y-108402381D01*
X28630477Y-107735714D02*
X28630477Y-108402381D01*
X28392381Y-107354762D02*
X28154286Y-108069048D01*
X28773334Y-108069048D01*
X28471905Y-128722381D02*
X28471905Y-127722381D01*
X28710000Y-127722381D01*
X28852858Y-127770000D01*
X28948096Y-127865238D01*
X28995715Y-127960476D01*
X29043334Y-128150952D01*
X29043334Y-128293810D01*
X28995715Y-128484286D01*
X28948096Y-128579524D01*
X28852858Y-128674762D01*
X28710000Y-128722381D01*
X28471905Y-128722381D01*
X29948096Y-127722381D02*
X29471905Y-127722381D01*
X29424286Y-128198571D01*
X29471905Y-128150952D01*
X29567143Y-128103333D01*
X29805239Y-128103333D01*
X29900477Y-128150952D01*
X29948096Y-128198571D01*
X29995715Y-128293810D01*
X29995715Y-128531905D01*
X29948096Y-128627143D01*
X29900477Y-128674762D01*
X29805239Y-128722381D01*
X29567143Y-128722381D01*
X29471905Y-128674762D01*
X29424286Y-128627143D01*
X37361905Y-47442381D02*
X37361905Y-46442381D01*
X37600000Y-46442381D01*
X37742858Y-46490000D01*
X37838096Y-46585238D01*
X37885715Y-46680476D01*
X37933334Y-46870952D01*
X37933334Y-47013810D01*
X37885715Y-47204286D01*
X37838096Y-47299524D01*
X37742858Y-47394762D01*
X37600000Y-47442381D01*
X37361905Y-47442381D01*
X38790477Y-46442381D02*
X38600000Y-46442381D01*
X38504762Y-46490000D01*
X38457143Y-46537619D01*
X38361905Y-46680476D01*
X38314286Y-46870952D01*
X38314286Y-47251905D01*
X38361905Y-47347143D01*
X38409524Y-47394762D01*
X38504762Y-47442381D01*
X38695239Y-47442381D01*
X38790477Y-47394762D01*
X38838096Y-47347143D01*
X38885715Y-47251905D01*
X38885715Y-47013810D01*
X38838096Y-46918571D01*
X38790477Y-46870952D01*
X38695239Y-46823333D01*
X38504762Y-46823333D01*
X38409524Y-46870952D01*
X38361905Y-46918571D01*
X38314286Y-47013810D01*
X47521905Y-67762381D02*
X47521905Y-66762381D01*
X47760000Y-66762381D01*
X47902858Y-66810000D01*
X47998096Y-66905238D01*
X48045715Y-67000476D01*
X48093334Y-67190952D01*
X48093334Y-67333810D01*
X48045715Y-67524286D01*
X47998096Y-67619524D01*
X47902858Y-67714762D01*
X47760000Y-67762381D01*
X47521905Y-67762381D01*
X48426667Y-66762381D02*
X49093334Y-66762381D01*
X48664762Y-67762381D01*
X52601905Y-88082381D02*
X52601905Y-87082381D01*
X52840000Y-87082381D01*
X52982858Y-87130000D01*
X53078096Y-87225238D01*
X53125715Y-87320476D01*
X53173334Y-87510952D01*
X53173334Y-87653810D01*
X53125715Y-87844286D01*
X53078096Y-87939524D01*
X52982858Y-88034762D01*
X52840000Y-88082381D01*
X52601905Y-88082381D01*
X53744762Y-87510952D02*
X53649524Y-87463333D01*
X53601905Y-87415714D01*
X53554286Y-87320476D01*
X53554286Y-87272857D01*
X53601905Y-87177619D01*
X53649524Y-87130000D01*
X53744762Y-87082381D01*
X53935239Y-87082381D01*
X54030477Y-87130000D01*
X54078096Y-87177619D01*
X54125715Y-87272857D01*
X54125715Y-87320476D01*
X54078096Y-87415714D01*
X54030477Y-87463333D01*
X53935239Y-87510952D01*
X53744762Y-87510952D01*
X53649524Y-87558571D01*
X53601905Y-87606190D01*
X53554286Y-87701429D01*
X53554286Y-87891905D01*
X53601905Y-87987143D01*
X53649524Y-88034762D01*
X53744762Y-88082381D01*
X53935239Y-88082381D01*
X54030477Y-88034762D01*
X54078096Y-87987143D01*
X54125715Y-87891905D01*
X54125715Y-87701429D01*
X54078096Y-87606190D01*
X54030477Y-87558571D01*
X53935239Y-87510952D01*
X57681905Y-108402381D02*
X57681905Y-107402381D01*
X57920000Y-107402381D01*
X58062858Y-107450000D01*
X58158096Y-107545238D01*
X58205715Y-107640476D01*
X58253334Y-107830952D01*
X58253334Y-107973810D01*
X58205715Y-108164286D01*
X58158096Y-108259524D01*
X58062858Y-108354762D01*
X57920000Y-108402381D01*
X57681905Y-108402381D01*
X58729524Y-108402381D02*
X58920000Y-108402381D01*
X59015239Y-108354762D01*
X59062858Y-108307143D01*
X59158096Y-108164286D01*
X59205715Y-107973810D01*
X59205715Y-107592857D01*
X59158096Y-107497619D01*
X59110477Y-107450000D01*
X59015239Y-107402381D01*
X58824762Y-107402381D01*
X58729524Y-107450000D01*
X58681905Y-107497619D01*
X58634286Y-107592857D01*
X58634286Y-107830952D01*
X58681905Y-107926190D01*
X58729524Y-107973810D01*
X58824762Y-108021429D01*
X59015239Y-108021429D01*
X59110477Y-107973810D01*
X59158096Y-107926190D01*
X59205715Y-107830952D01*
X53395714Y-128722381D02*
X53395714Y-127722381D01*
X53633809Y-127722381D01*
X53776667Y-127770000D01*
X53871905Y-127865238D01*
X53919524Y-127960476D01*
X53967143Y-128150952D01*
X53967143Y-128293810D01*
X53919524Y-128484286D01*
X53871905Y-128579524D01*
X53776667Y-128674762D01*
X53633809Y-128722381D01*
X53395714Y-128722381D01*
X54919524Y-128722381D02*
X54348095Y-128722381D01*
X54633809Y-128722381D02*
X54633809Y-127722381D01*
X54538571Y-127865238D01*
X54443333Y-127960476D01*
X54348095Y-128008095D01*
X55538571Y-127722381D02*
X55633810Y-127722381D01*
X55729048Y-127770000D01*
X55776667Y-127817619D01*
X55824286Y-127912857D01*
X55871905Y-128103333D01*
X55871905Y-128341429D01*
X55824286Y-128531905D01*
X55776667Y-128627143D01*
X55729048Y-128674762D01*
X55633810Y-128722381D01*
X55538571Y-128722381D01*
X55443333Y-128674762D01*
X55395714Y-128627143D01*
X55348095Y-128531905D01*
X55300476Y-128341429D01*
X55300476Y-128103333D01*
X55348095Y-127912857D01*
X55395714Y-127817619D01*
X55443333Y-127770000D01*
X55538571Y-127722381D01*
X57205714Y-47442381D02*
X57205714Y-46442381D01*
X57443809Y-46442381D01*
X57586667Y-46490000D01*
X57681905Y-46585238D01*
X57729524Y-46680476D01*
X57777143Y-46870952D01*
X57777143Y-47013810D01*
X57729524Y-47204286D01*
X57681905Y-47299524D01*
X57586667Y-47394762D01*
X57443809Y-47442381D01*
X57205714Y-47442381D01*
X58729524Y-47442381D02*
X58158095Y-47442381D01*
X58443809Y-47442381D02*
X58443809Y-46442381D01*
X58348571Y-46585238D01*
X58253333Y-46680476D01*
X58158095Y-46728095D01*
X59681905Y-47442381D02*
X59110476Y-47442381D01*
X59396190Y-47442381D02*
X59396190Y-46442381D01*
X59300952Y-46585238D01*
X59205714Y-46680476D01*
X59110476Y-46728095D01*
X67365714Y-67762381D02*
X67365714Y-66762381D01*
X67603809Y-66762381D01*
X67746667Y-66810000D01*
X67841905Y-66905238D01*
X67889524Y-67000476D01*
X67937143Y-67190952D01*
X67937143Y-67333810D01*
X67889524Y-67524286D01*
X67841905Y-67619524D01*
X67746667Y-67714762D01*
X67603809Y-67762381D01*
X67365714Y-67762381D01*
X68889524Y-67762381D02*
X68318095Y-67762381D01*
X68603809Y-67762381D02*
X68603809Y-66762381D01*
X68508571Y-66905238D01*
X68413333Y-67000476D01*
X68318095Y-67048095D01*
X69270476Y-66857619D02*
X69318095Y-66810000D01*
X69413333Y-66762381D01*
X69651429Y-66762381D01*
X69746667Y-66810000D01*
X69794286Y-66857619D01*
X69841905Y-66952857D01*
X69841905Y-67048095D01*
X69794286Y-67190952D01*
X69222857Y-67762381D01*
X69841905Y-67762381D01*
X72445714Y-88082381D02*
X72445714Y-87082381D01*
X72683809Y-87082381D01*
X72826667Y-87130000D01*
X72921905Y-87225238D01*
X72969524Y-87320476D01*
X73017143Y-87510952D01*
X73017143Y-87653810D01*
X72969524Y-87844286D01*
X72921905Y-87939524D01*
X72826667Y-88034762D01*
X72683809Y-88082381D01*
X72445714Y-88082381D01*
X73969524Y-88082381D02*
X73398095Y-88082381D01*
X73683809Y-88082381D02*
X73683809Y-87082381D01*
X73588571Y-87225238D01*
X73493333Y-87320476D01*
X73398095Y-87368095D01*
X74302857Y-87082381D02*
X74921905Y-87082381D01*
X74588571Y-87463333D01*
X74731429Y-87463333D01*
X74826667Y-87510952D01*
X74874286Y-87558571D01*
X74921905Y-87653810D01*
X74921905Y-87891905D01*
X74874286Y-87987143D01*
X74826667Y-88034762D01*
X74731429Y-88082381D01*
X74445714Y-88082381D01*
X74350476Y-88034762D01*
X74302857Y-87987143D01*
X77525714Y-108402381D02*
X77525714Y-107402381D01*
X77763809Y-107402381D01*
X77906667Y-107450000D01*
X78001905Y-107545238D01*
X78049524Y-107640476D01*
X78097143Y-107830952D01*
X78097143Y-107973810D01*
X78049524Y-108164286D01*
X78001905Y-108259524D01*
X77906667Y-108354762D01*
X77763809Y-108402381D01*
X77525714Y-108402381D01*
X79049524Y-108402381D02*
X78478095Y-108402381D01*
X78763809Y-108402381D02*
X78763809Y-107402381D01*
X78668571Y-107545238D01*
X78573333Y-107640476D01*
X78478095Y-107688095D01*
X79906667Y-107735714D02*
X79906667Y-108402381D01*
X79668571Y-107354762D02*
X79430476Y-108069048D01*
X80049524Y-108069048D01*
X78795714Y-128722381D02*
X78795714Y-127722381D01*
X79033809Y-127722381D01*
X79176667Y-127770000D01*
X79271905Y-127865238D01*
X79319524Y-127960476D01*
X79367143Y-128150952D01*
X79367143Y-128293810D01*
X79319524Y-128484286D01*
X79271905Y-128579524D01*
X79176667Y-128674762D01*
X79033809Y-128722381D01*
X78795714Y-128722381D01*
X80319524Y-128722381D02*
X79748095Y-128722381D01*
X80033809Y-128722381D02*
X80033809Y-127722381D01*
X79938571Y-127865238D01*
X79843333Y-127960476D01*
X79748095Y-128008095D01*
X81224286Y-127722381D02*
X80748095Y-127722381D01*
X80700476Y-128198571D01*
X80748095Y-128150952D01*
X80843333Y-128103333D01*
X81081429Y-128103333D01*
X81176667Y-128150952D01*
X81224286Y-128198571D01*
X81271905Y-128293810D01*
X81271905Y-128531905D01*
X81224286Y-128627143D01*
X81176667Y-128674762D01*
X81081429Y-128722381D01*
X80843333Y-128722381D01*
X80748095Y-128674762D01*
X80700476Y-128627143D01*
X77525714Y-47442381D02*
X77525714Y-46442381D01*
X77763809Y-46442381D01*
X77906667Y-46490000D01*
X78001905Y-46585238D01*
X78049524Y-46680476D01*
X78097143Y-46870952D01*
X78097143Y-47013810D01*
X78049524Y-47204286D01*
X78001905Y-47299524D01*
X77906667Y-47394762D01*
X77763809Y-47442381D01*
X77525714Y-47442381D01*
X79049524Y-47442381D02*
X78478095Y-47442381D01*
X78763809Y-47442381D02*
X78763809Y-46442381D01*
X78668571Y-46585238D01*
X78573333Y-46680476D01*
X78478095Y-46728095D01*
X79906667Y-46442381D02*
X79716190Y-46442381D01*
X79620952Y-46490000D01*
X79573333Y-46537619D01*
X79478095Y-46680476D01*
X79430476Y-46870952D01*
X79430476Y-47251905D01*
X79478095Y-47347143D01*
X79525714Y-47394762D01*
X79620952Y-47442381D01*
X79811429Y-47442381D01*
X79906667Y-47394762D01*
X79954286Y-47347143D01*
X80001905Y-47251905D01*
X80001905Y-47013810D01*
X79954286Y-46918571D01*
X79906667Y-46870952D01*
X79811429Y-46823333D01*
X79620952Y-46823333D01*
X79525714Y-46870952D01*
X79478095Y-46918571D01*
X79430476Y-47013810D01*
X87685714Y-67762381D02*
X87685714Y-66762381D01*
X87923809Y-66762381D01*
X88066667Y-66810000D01*
X88161905Y-66905238D01*
X88209524Y-67000476D01*
X88257143Y-67190952D01*
X88257143Y-67333810D01*
X88209524Y-67524286D01*
X88161905Y-67619524D01*
X88066667Y-67714762D01*
X87923809Y-67762381D01*
X87685714Y-67762381D01*
X89209524Y-67762381D02*
X88638095Y-67762381D01*
X88923809Y-67762381D02*
X88923809Y-66762381D01*
X88828571Y-66905238D01*
X88733333Y-67000476D01*
X88638095Y-67048095D01*
X89542857Y-66762381D02*
X90209524Y-66762381D01*
X89780952Y-67762381D01*
X92765714Y-88082381D02*
X92765714Y-87082381D01*
X93003809Y-87082381D01*
X93146667Y-87130000D01*
X93241905Y-87225238D01*
X93289524Y-87320476D01*
X93337143Y-87510952D01*
X93337143Y-87653810D01*
X93289524Y-87844286D01*
X93241905Y-87939524D01*
X93146667Y-88034762D01*
X93003809Y-88082381D01*
X92765714Y-88082381D01*
X94289524Y-88082381D02*
X93718095Y-88082381D01*
X94003809Y-88082381D02*
X94003809Y-87082381D01*
X93908571Y-87225238D01*
X93813333Y-87320476D01*
X93718095Y-87368095D01*
X94860952Y-87510952D02*
X94765714Y-87463333D01*
X94718095Y-87415714D01*
X94670476Y-87320476D01*
X94670476Y-87272857D01*
X94718095Y-87177619D01*
X94765714Y-87130000D01*
X94860952Y-87082381D01*
X95051429Y-87082381D01*
X95146667Y-87130000D01*
X95194286Y-87177619D01*
X95241905Y-87272857D01*
X95241905Y-87320476D01*
X95194286Y-87415714D01*
X95146667Y-87463333D01*
X95051429Y-87510952D01*
X94860952Y-87510952D01*
X94765714Y-87558571D01*
X94718095Y-87606190D01*
X94670476Y-87701429D01*
X94670476Y-87891905D01*
X94718095Y-87987143D01*
X94765714Y-88034762D01*
X94860952Y-88082381D01*
X95051429Y-88082381D01*
X95146667Y-88034762D01*
X95194286Y-87987143D01*
X95241905Y-87891905D01*
X95241905Y-87701429D01*
X95194286Y-87606190D01*
X95146667Y-87558571D01*
X95051429Y-87510952D01*
X97845714Y-108402381D02*
X97845714Y-107402381D01*
X98083809Y-107402381D01*
X98226667Y-107450000D01*
X98321905Y-107545238D01*
X98369524Y-107640476D01*
X98417143Y-107830952D01*
X98417143Y-107973810D01*
X98369524Y-108164286D01*
X98321905Y-108259524D01*
X98226667Y-108354762D01*
X98083809Y-108402381D01*
X97845714Y-108402381D01*
X99369524Y-108402381D02*
X98798095Y-108402381D01*
X99083809Y-108402381D02*
X99083809Y-107402381D01*
X98988571Y-107545238D01*
X98893333Y-107640476D01*
X98798095Y-107688095D01*
X99845714Y-108402381D02*
X100036190Y-108402381D01*
X100131429Y-108354762D01*
X100179048Y-108307143D01*
X100274286Y-108164286D01*
X100321905Y-107973810D01*
X100321905Y-107592857D01*
X100274286Y-107497619D01*
X100226667Y-107450000D01*
X100131429Y-107402381D01*
X99940952Y-107402381D01*
X99845714Y-107450000D01*
X99798095Y-107497619D01*
X99750476Y-107592857D01*
X99750476Y-107830952D01*
X99798095Y-107926190D01*
X99845714Y-107973810D01*
X99940952Y-108021429D01*
X100131429Y-108021429D01*
X100226667Y-107973810D01*
X100274286Y-107926190D01*
X100321905Y-107830952D01*
X151185714Y-128722381D02*
X151185714Y-127722381D01*
X151423809Y-127722381D01*
X151566667Y-127770000D01*
X151661905Y-127865238D01*
X151709524Y-127960476D01*
X151757143Y-128150952D01*
X151757143Y-128293810D01*
X151709524Y-128484286D01*
X151661905Y-128579524D01*
X151566667Y-128674762D01*
X151423809Y-128722381D01*
X151185714Y-128722381D01*
X152138095Y-127817619D02*
X152185714Y-127770000D01*
X152280952Y-127722381D01*
X152519048Y-127722381D01*
X152614286Y-127770000D01*
X152661905Y-127817619D01*
X152709524Y-127912857D01*
X152709524Y-128008095D01*
X152661905Y-128150952D01*
X152090476Y-128722381D01*
X152709524Y-128722381D01*
X153328571Y-127722381D02*
X153423810Y-127722381D01*
X153519048Y-127770000D01*
X153566667Y-127817619D01*
X153614286Y-127912857D01*
X153661905Y-128103333D01*
X153661905Y-128341429D01*
X153614286Y-128531905D01*
X153566667Y-128627143D01*
X153519048Y-128674762D01*
X153423810Y-128722381D01*
X153328571Y-128722381D01*
X153233333Y-128674762D01*
X153185714Y-128627143D01*
X153138095Y-128531905D01*
X153090476Y-128341429D01*
X153090476Y-128103333D01*
X153138095Y-127912857D01*
X153185714Y-127817619D01*
X153233333Y-127770000D01*
X153328571Y-127722381D01*
X97845714Y-47442381D02*
X97845714Y-46442381D01*
X98083809Y-46442381D01*
X98226667Y-46490000D01*
X98321905Y-46585238D01*
X98369524Y-46680476D01*
X98417143Y-46870952D01*
X98417143Y-47013810D01*
X98369524Y-47204286D01*
X98321905Y-47299524D01*
X98226667Y-47394762D01*
X98083809Y-47442381D01*
X97845714Y-47442381D01*
X98798095Y-46537619D02*
X98845714Y-46490000D01*
X98940952Y-46442381D01*
X99179048Y-46442381D01*
X99274286Y-46490000D01*
X99321905Y-46537619D01*
X99369524Y-46632857D01*
X99369524Y-46728095D01*
X99321905Y-46870952D01*
X98750476Y-47442381D01*
X99369524Y-47442381D01*
X100321905Y-47442381D02*
X99750476Y-47442381D01*
X100036190Y-47442381D02*
X100036190Y-46442381D01*
X99940952Y-46585238D01*
X99845714Y-46680476D01*
X99750476Y-46728095D01*
X108005714Y-67762381D02*
X108005714Y-66762381D01*
X108243809Y-66762381D01*
X108386667Y-66810000D01*
X108481905Y-66905238D01*
X108529524Y-67000476D01*
X108577143Y-67190952D01*
X108577143Y-67333810D01*
X108529524Y-67524286D01*
X108481905Y-67619524D01*
X108386667Y-67714762D01*
X108243809Y-67762381D01*
X108005714Y-67762381D01*
X108958095Y-66857619D02*
X109005714Y-66810000D01*
X109100952Y-66762381D01*
X109339048Y-66762381D01*
X109434286Y-66810000D01*
X109481905Y-66857619D01*
X109529524Y-66952857D01*
X109529524Y-67048095D01*
X109481905Y-67190952D01*
X108910476Y-67762381D01*
X109529524Y-67762381D01*
X109910476Y-66857619D02*
X109958095Y-66810000D01*
X110053333Y-66762381D01*
X110291429Y-66762381D01*
X110386667Y-66810000D01*
X110434286Y-66857619D01*
X110481905Y-66952857D01*
X110481905Y-67048095D01*
X110434286Y-67190952D01*
X109862857Y-67762381D01*
X110481905Y-67762381D01*
X115625714Y-91892381D02*
X115625714Y-90892381D01*
X115863809Y-90892381D01*
X116006667Y-90940000D01*
X116101905Y-91035238D01*
X116149524Y-91130476D01*
X116197143Y-91320952D01*
X116197143Y-91463810D01*
X116149524Y-91654286D01*
X116101905Y-91749524D01*
X116006667Y-91844762D01*
X115863809Y-91892381D01*
X115625714Y-91892381D01*
X116578095Y-90987619D02*
X116625714Y-90940000D01*
X116720952Y-90892381D01*
X116959048Y-90892381D01*
X117054286Y-90940000D01*
X117101905Y-90987619D01*
X117149524Y-91082857D01*
X117149524Y-91178095D01*
X117101905Y-91320952D01*
X116530476Y-91892381D01*
X117149524Y-91892381D01*
X117482857Y-90892381D02*
X118101905Y-90892381D01*
X117768571Y-91273333D01*
X117911429Y-91273333D01*
X118006667Y-91320952D01*
X118054286Y-91368571D01*
X118101905Y-91463810D01*
X118101905Y-91701905D01*
X118054286Y-91797143D01*
X118006667Y-91844762D01*
X117911429Y-91892381D01*
X117625714Y-91892381D01*
X117530476Y-91844762D01*
X117482857Y-91797143D01*
X118165714Y-108402381D02*
X118165714Y-107402381D01*
X118403809Y-107402381D01*
X118546667Y-107450000D01*
X118641905Y-107545238D01*
X118689524Y-107640476D01*
X118737143Y-107830952D01*
X118737143Y-107973810D01*
X118689524Y-108164286D01*
X118641905Y-108259524D01*
X118546667Y-108354762D01*
X118403809Y-108402381D01*
X118165714Y-108402381D01*
X119118095Y-107497619D02*
X119165714Y-107450000D01*
X119260952Y-107402381D01*
X119499048Y-107402381D01*
X119594286Y-107450000D01*
X119641905Y-107497619D01*
X119689524Y-107592857D01*
X119689524Y-107688095D01*
X119641905Y-107830952D01*
X119070476Y-108402381D01*
X119689524Y-108402381D01*
X120546667Y-107735714D02*
X120546667Y-108402381D01*
X120308571Y-107354762D02*
X120070476Y-108069048D01*
X120689524Y-108069048D01*
X118165714Y-47442381D02*
X118165714Y-46442381D01*
X118403809Y-46442381D01*
X118546667Y-46490000D01*
X118641905Y-46585238D01*
X118689524Y-46680476D01*
X118737143Y-46870952D01*
X118737143Y-47013810D01*
X118689524Y-47204286D01*
X118641905Y-47299524D01*
X118546667Y-47394762D01*
X118403809Y-47442381D01*
X118165714Y-47442381D01*
X119118095Y-46537619D02*
X119165714Y-46490000D01*
X119260952Y-46442381D01*
X119499048Y-46442381D01*
X119594286Y-46490000D01*
X119641905Y-46537619D01*
X119689524Y-46632857D01*
X119689524Y-46728095D01*
X119641905Y-46870952D01*
X119070476Y-47442381D01*
X119689524Y-47442381D01*
X120546667Y-46442381D02*
X120356190Y-46442381D01*
X120260952Y-46490000D01*
X120213333Y-46537619D01*
X120118095Y-46680476D01*
X120070476Y-46870952D01*
X120070476Y-47251905D01*
X120118095Y-47347143D01*
X120165714Y-47394762D01*
X120260952Y-47442381D01*
X120451429Y-47442381D01*
X120546667Y-47394762D01*
X120594286Y-47347143D01*
X120641905Y-47251905D01*
X120641905Y-47013810D01*
X120594286Y-46918571D01*
X120546667Y-46870952D01*
X120451429Y-46823333D01*
X120260952Y-46823333D01*
X120165714Y-46870952D01*
X120118095Y-46918571D01*
X120070476Y-47013810D01*
X128325714Y-67762381D02*
X128325714Y-66762381D01*
X128563809Y-66762381D01*
X128706667Y-66810000D01*
X128801905Y-66905238D01*
X128849524Y-67000476D01*
X128897143Y-67190952D01*
X128897143Y-67333810D01*
X128849524Y-67524286D01*
X128801905Y-67619524D01*
X128706667Y-67714762D01*
X128563809Y-67762381D01*
X128325714Y-67762381D01*
X129278095Y-66857619D02*
X129325714Y-66810000D01*
X129420952Y-66762381D01*
X129659048Y-66762381D01*
X129754286Y-66810000D01*
X129801905Y-66857619D01*
X129849524Y-66952857D01*
X129849524Y-67048095D01*
X129801905Y-67190952D01*
X129230476Y-67762381D01*
X129849524Y-67762381D01*
X130182857Y-66762381D02*
X130849524Y-66762381D01*
X130420952Y-67762381D01*
X133405714Y-88082381D02*
X133405714Y-87082381D01*
X133643809Y-87082381D01*
X133786667Y-87130000D01*
X133881905Y-87225238D01*
X133929524Y-87320476D01*
X133977143Y-87510952D01*
X133977143Y-87653810D01*
X133929524Y-87844286D01*
X133881905Y-87939524D01*
X133786667Y-88034762D01*
X133643809Y-88082381D01*
X133405714Y-88082381D01*
X134358095Y-87177619D02*
X134405714Y-87130000D01*
X134500952Y-87082381D01*
X134739048Y-87082381D01*
X134834286Y-87130000D01*
X134881905Y-87177619D01*
X134929524Y-87272857D01*
X134929524Y-87368095D01*
X134881905Y-87510952D01*
X134310476Y-88082381D01*
X134929524Y-88082381D01*
X135500952Y-87510952D02*
X135405714Y-87463333D01*
X135358095Y-87415714D01*
X135310476Y-87320476D01*
X135310476Y-87272857D01*
X135358095Y-87177619D01*
X135405714Y-87130000D01*
X135500952Y-87082381D01*
X135691429Y-87082381D01*
X135786667Y-87130000D01*
X135834286Y-87177619D01*
X135881905Y-87272857D01*
X135881905Y-87320476D01*
X135834286Y-87415714D01*
X135786667Y-87463333D01*
X135691429Y-87510952D01*
X135500952Y-87510952D01*
X135405714Y-87558571D01*
X135358095Y-87606190D01*
X135310476Y-87701429D01*
X135310476Y-87891905D01*
X135358095Y-87987143D01*
X135405714Y-88034762D01*
X135500952Y-88082381D01*
X135691429Y-88082381D01*
X135786667Y-88034762D01*
X135834286Y-87987143D01*
X135881905Y-87891905D01*
X135881905Y-87701429D01*
X135834286Y-87606190D01*
X135786667Y-87558571D01*
X135691429Y-87510952D01*
X138485714Y-108402381D02*
X138485714Y-107402381D01*
X138723809Y-107402381D01*
X138866667Y-107450000D01*
X138961905Y-107545238D01*
X139009524Y-107640476D01*
X139057143Y-107830952D01*
X139057143Y-107973810D01*
X139009524Y-108164286D01*
X138961905Y-108259524D01*
X138866667Y-108354762D01*
X138723809Y-108402381D01*
X138485714Y-108402381D01*
X139438095Y-107497619D02*
X139485714Y-107450000D01*
X139580952Y-107402381D01*
X139819048Y-107402381D01*
X139914286Y-107450000D01*
X139961905Y-107497619D01*
X140009524Y-107592857D01*
X140009524Y-107688095D01*
X139961905Y-107830952D01*
X139390476Y-108402381D01*
X140009524Y-108402381D01*
X140485714Y-108402381D02*
X140676190Y-108402381D01*
X140771429Y-108354762D01*
X140819048Y-108307143D01*
X140914286Y-108164286D01*
X140961905Y-107973810D01*
X140961905Y-107592857D01*
X140914286Y-107497619D01*
X140866667Y-107450000D01*
X140771429Y-107402381D01*
X140580952Y-107402381D01*
X140485714Y-107450000D01*
X140438095Y-107497619D01*
X140390476Y-107592857D01*
X140390476Y-107830952D01*
X140438095Y-107926190D01*
X140485714Y-107973810D01*
X140580952Y-108021429D01*
X140771429Y-108021429D01*
X140866667Y-107973810D01*
X140914286Y-107926190D01*
X140961905Y-107830952D01*
X223575714Y-128722381D02*
X223575714Y-127722381D01*
X223813809Y-127722381D01*
X223956667Y-127770000D01*
X224051905Y-127865238D01*
X224099524Y-127960476D01*
X224147143Y-128150952D01*
X224147143Y-128293810D01*
X224099524Y-128484286D01*
X224051905Y-128579524D01*
X223956667Y-128674762D01*
X223813809Y-128722381D01*
X223575714Y-128722381D01*
X224480476Y-127722381D02*
X225099524Y-127722381D01*
X224766190Y-128103333D01*
X224909048Y-128103333D01*
X225004286Y-128150952D01*
X225051905Y-128198571D01*
X225099524Y-128293810D01*
X225099524Y-128531905D01*
X225051905Y-128627143D01*
X225004286Y-128674762D01*
X224909048Y-128722381D01*
X224623333Y-128722381D01*
X224528095Y-128674762D01*
X224480476Y-128627143D01*
X225718571Y-127722381D02*
X225813810Y-127722381D01*
X225909048Y-127770000D01*
X225956667Y-127817619D01*
X226004286Y-127912857D01*
X226051905Y-128103333D01*
X226051905Y-128341429D01*
X226004286Y-128531905D01*
X225956667Y-128627143D01*
X225909048Y-128674762D01*
X225813810Y-128722381D01*
X225718571Y-128722381D01*
X225623333Y-128674762D01*
X225575714Y-128627143D01*
X225528095Y-128531905D01*
X225480476Y-128341429D01*
X225480476Y-128103333D01*
X225528095Y-127912857D01*
X225575714Y-127817619D01*
X225623333Y-127770000D01*
X225718571Y-127722381D01*
X138485714Y-47442381D02*
X138485714Y-46442381D01*
X138723809Y-46442381D01*
X138866667Y-46490000D01*
X138961905Y-46585238D01*
X139009524Y-46680476D01*
X139057143Y-46870952D01*
X139057143Y-47013810D01*
X139009524Y-47204286D01*
X138961905Y-47299524D01*
X138866667Y-47394762D01*
X138723809Y-47442381D01*
X138485714Y-47442381D01*
X139390476Y-46442381D02*
X140009524Y-46442381D01*
X139676190Y-46823333D01*
X139819048Y-46823333D01*
X139914286Y-46870952D01*
X139961905Y-46918571D01*
X140009524Y-47013810D01*
X140009524Y-47251905D01*
X139961905Y-47347143D01*
X139914286Y-47394762D01*
X139819048Y-47442381D01*
X139533333Y-47442381D01*
X139438095Y-47394762D01*
X139390476Y-47347143D01*
X140961905Y-47442381D02*
X140390476Y-47442381D01*
X140676190Y-47442381D02*
X140676190Y-46442381D01*
X140580952Y-46585238D01*
X140485714Y-46680476D01*
X140390476Y-46728095D01*
X148645714Y-67762381D02*
X148645714Y-66762381D01*
X148883809Y-66762381D01*
X149026667Y-66810000D01*
X149121905Y-66905238D01*
X149169524Y-67000476D01*
X149217143Y-67190952D01*
X149217143Y-67333810D01*
X149169524Y-67524286D01*
X149121905Y-67619524D01*
X149026667Y-67714762D01*
X148883809Y-67762381D01*
X148645714Y-67762381D01*
X149550476Y-66762381D02*
X150169524Y-66762381D01*
X149836190Y-67143333D01*
X149979048Y-67143333D01*
X150074286Y-67190952D01*
X150121905Y-67238571D01*
X150169524Y-67333810D01*
X150169524Y-67571905D01*
X150121905Y-67667143D01*
X150074286Y-67714762D01*
X149979048Y-67762381D01*
X149693333Y-67762381D01*
X149598095Y-67714762D01*
X149550476Y-67667143D01*
X150550476Y-66857619D02*
X150598095Y-66810000D01*
X150693333Y-66762381D01*
X150931429Y-66762381D01*
X151026667Y-66810000D01*
X151074286Y-66857619D01*
X151121905Y-66952857D01*
X151121905Y-67048095D01*
X151074286Y-67190952D01*
X150502857Y-67762381D01*
X151121905Y-67762381D01*
X153725714Y-88082381D02*
X153725714Y-87082381D01*
X153963809Y-87082381D01*
X154106667Y-87130000D01*
X154201905Y-87225238D01*
X154249524Y-87320476D01*
X154297143Y-87510952D01*
X154297143Y-87653810D01*
X154249524Y-87844286D01*
X154201905Y-87939524D01*
X154106667Y-88034762D01*
X153963809Y-88082381D01*
X153725714Y-88082381D01*
X154630476Y-87082381D02*
X155249524Y-87082381D01*
X154916190Y-87463333D01*
X155059048Y-87463333D01*
X155154286Y-87510952D01*
X155201905Y-87558571D01*
X155249524Y-87653810D01*
X155249524Y-87891905D01*
X155201905Y-87987143D01*
X155154286Y-88034762D01*
X155059048Y-88082381D01*
X154773333Y-88082381D01*
X154678095Y-88034762D01*
X154630476Y-87987143D01*
X155582857Y-87082381D02*
X156201905Y-87082381D01*
X155868571Y-87463333D01*
X156011429Y-87463333D01*
X156106667Y-87510952D01*
X156154286Y-87558571D01*
X156201905Y-87653810D01*
X156201905Y-87891905D01*
X156154286Y-87987143D01*
X156106667Y-88034762D01*
X156011429Y-88082381D01*
X155725714Y-88082381D01*
X155630476Y-88034762D01*
X155582857Y-87987143D01*
X158805714Y-108402381D02*
X158805714Y-107402381D01*
X159043809Y-107402381D01*
X159186667Y-107450000D01*
X159281905Y-107545238D01*
X159329524Y-107640476D01*
X159377143Y-107830952D01*
X159377143Y-107973810D01*
X159329524Y-108164286D01*
X159281905Y-108259524D01*
X159186667Y-108354762D01*
X159043809Y-108402381D01*
X158805714Y-108402381D01*
X159710476Y-107402381D02*
X160329524Y-107402381D01*
X159996190Y-107783333D01*
X160139048Y-107783333D01*
X160234286Y-107830952D01*
X160281905Y-107878571D01*
X160329524Y-107973810D01*
X160329524Y-108211905D01*
X160281905Y-108307143D01*
X160234286Y-108354762D01*
X160139048Y-108402381D01*
X159853333Y-108402381D01*
X159758095Y-108354762D01*
X159710476Y-108307143D01*
X161186667Y-107735714D02*
X161186667Y-108402381D01*
X160948571Y-107354762D02*
X160710476Y-108069048D01*
X161329524Y-108069048D01*
X248975714Y-128722381D02*
X248975714Y-127722381D01*
X249213809Y-127722381D01*
X249356667Y-127770000D01*
X249451905Y-127865238D01*
X249499524Y-127960476D01*
X249547143Y-128150952D01*
X249547143Y-128293810D01*
X249499524Y-128484286D01*
X249451905Y-128579524D01*
X249356667Y-128674762D01*
X249213809Y-128722381D01*
X248975714Y-128722381D01*
X249880476Y-127722381D02*
X250499524Y-127722381D01*
X250166190Y-128103333D01*
X250309048Y-128103333D01*
X250404286Y-128150952D01*
X250451905Y-128198571D01*
X250499524Y-128293810D01*
X250499524Y-128531905D01*
X250451905Y-128627143D01*
X250404286Y-128674762D01*
X250309048Y-128722381D01*
X250023333Y-128722381D01*
X249928095Y-128674762D01*
X249880476Y-128627143D01*
X251404286Y-127722381D02*
X250928095Y-127722381D01*
X250880476Y-128198571D01*
X250928095Y-128150952D01*
X251023333Y-128103333D01*
X251261429Y-128103333D01*
X251356667Y-128150952D01*
X251404286Y-128198571D01*
X251451905Y-128293810D01*
X251451905Y-128531905D01*
X251404286Y-128627143D01*
X251356667Y-128674762D01*
X251261429Y-128722381D01*
X251023333Y-128722381D01*
X250928095Y-128674762D01*
X250880476Y-128627143D01*
X158805714Y-47442381D02*
X158805714Y-46442381D01*
X159043809Y-46442381D01*
X159186667Y-46490000D01*
X159281905Y-46585238D01*
X159329524Y-46680476D01*
X159377143Y-46870952D01*
X159377143Y-47013810D01*
X159329524Y-47204286D01*
X159281905Y-47299524D01*
X159186667Y-47394762D01*
X159043809Y-47442381D01*
X158805714Y-47442381D01*
X159710476Y-46442381D02*
X160329524Y-46442381D01*
X159996190Y-46823333D01*
X160139048Y-46823333D01*
X160234286Y-46870952D01*
X160281905Y-46918571D01*
X160329524Y-47013810D01*
X160329524Y-47251905D01*
X160281905Y-47347143D01*
X160234286Y-47394762D01*
X160139048Y-47442381D01*
X159853333Y-47442381D01*
X159758095Y-47394762D01*
X159710476Y-47347143D01*
X161186667Y-46442381D02*
X160996190Y-46442381D01*
X160900952Y-46490000D01*
X160853333Y-46537619D01*
X160758095Y-46680476D01*
X160710476Y-46870952D01*
X160710476Y-47251905D01*
X160758095Y-47347143D01*
X160805714Y-47394762D01*
X160900952Y-47442381D01*
X161091429Y-47442381D01*
X161186667Y-47394762D01*
X161234286Y-47347143D01*
X161281905Y-47251905D01*
X161281905Y-47013810D01*
X161234286Y-46918571D01*
X161186667Y-46870952D01*
X161091429Y-46823333D01*
X160900952Y-46823333D01*
X160805714Y-46870952D01*
X160758095Y-46918571D01*
X160710476Y-47013810D01*
X168965714Y-67762381D02*
X168965714Y-66762381D01*
X169203809Y-66762381D01*
X169346667Y-66810000D01*
X169441905Y-66905238D01*
X169489524Y-67000476D01*
X169537143Y-67190952D01*
X169537143Y-67333810D01*
X169489524Y-67524286D01*
X169441905Y-67619524D01*
X169346667Y-67714762D01*
X169203809Y-67762381D01*
X168965714Y-67762381D01*
X169870476Y-66762381D02*
X170489524Y-66762381D01*
X170156190Y-67143333D01*
X170299048Y-67143333D01*
X170394286Y-67190952D01*
X170441905Y-67238571D01*
X170489524Y-67333810D01*
X170489524Y-67571905D01*
X170441905Y-67667143D01*
X170394286Y-67714762D01*
X170299048Y-67762381D01*
X170013333Y-67762381D01*
X169918095Y-67714762D01*
X169870476Y-67667143D01*
X170822857Y-66762381D02*
X171489524Y-66762381D01*
X171060952Y-67762381D01*
X174045714Y-88082381D02*
X174045714Y-87082381D01*
X174283809Y-87082381D01*
X174426667Y-87130000D01*
X174521905Y-87225238D01*
X174569524Y-87320476D01*
X174617143Y-87510952D01*
X174617143Y-87653810D01*
X174569524Y-87844286D01*
X174521905Y-87939524D01*
X174426667Y-88034762D01*
X174283809Y-88082381D01*
X174045714Y-88082381D01*
X174950476Y-87082381D02*
X175569524Y-87082381D01*
X175236190Y-87463333D01*
X175379048Y-87463333D01*
X175474286Y-87510952D01*
X175521905Y-87558571D01*
X175569524Y-87653810D01*
X175569524Y-87891905D01*
X175521905Y-87987143D01*
X175474286Y-88034762D01*
X175379048Y-88082381D01*
X175093333Y-88082381D01*
X174998095Y-88034762D01*
X174950476Y-87987143D01*
X176140952Y-87510952D02*
X176045714Y-87463333D01*
X175998095Y-87415714D01*
X175950476Y-87320476D01*
X175950476Y-87272857D01*
X175998095Y-87177619D01*
X176045714Y-87130000D01*
X176140952Y-87082381D01*
X176331429Y-87082381D01*
X176426667Y-87130000D01*
X176474286Y-87177619D01*
X176521905Y-87272857D01*
X176521905Y-87320476D01*
X176474286Y-87415714D01*
X176426667Y-87463333D01*
X176331429Y-87510952D01*
X176140952Y-87510952D01*
X176045714Y-87558571D01*
X175998095Y-87606190D01*
X175950476Y-87701429D01*
X175950476Y-87891905D01*
X175998095Y-87987143D01*
X176045714Y-88034762D01*
X176140952Y-88082381D01*
X176331429Y-88082381D01*
X176426667Y-88034762D01*
X176474286Y-87987143D01*
X176521905Y-87891905D01*
X176521905Y-87701429D01*
X176474286Y-87606190D01*
X176426667Y-87558571D01*
X176331429Y-87510952D01*
X179125714Y-108402381D02*
X179125714Y-107402381D01*
X179363809Y-107402381D01*
X179506667Y-107450000D01*
X179601905Y-107545238D01*
X179649524Y-107640476D01*
X179697143Y-107830952D01*
X179697143Y-107973810D01*
X179649524Y-108164286D01*
X179601905Y-108259524D01*
X179506667Y-108354762D01*
X179363809Y-108402381D01*
X179125714Y-108402381D01*
X180030476Y-107402381D02*
X180649524Y-107402381D01*
X180316190Y-107783333D01*
X180459048Y-107783333D01*
X180554286Y-107830952D01*
X180601905Y-107878571D01*
X180649524Y-107973810D01*
X180649524Y-108211905D01*
X180601905Y-108307143D01*
X180554286Y-108354762D01*
X180459048Y-108402381D01*
X180173333Y-108402381D01*
X180078095Y-108354762D01*
X180030476Y-108307143D01*
X181125714Y-108402381D02*
X181316190Y-108402381D01*
X181411429Y-108354762D01*
X181459048Y-108307143D01*
X181554286Y-108164286D01*
X181601905Y-107973810D01*
X181601905Y-107592857D01*
X181554286Y-107497619D01*
X181506667Y-107450000D01*
X181411429Y-107402381D01*
X181220952Y-107402381D01*
X181125714Y-107450000D01*
X181078095Y-107497619D01*
X181030476Y-107592857D01*
X181030476Y-107830952D01*
X181078095Y-107926190D01*
X181125714Y-107973810D01*
X181220952Y-108021429D01*
X181411429Y-108021429D01*
X181506667Y-107973810D01*
X181554286Y-107926190D01*
X181601905Y-107830952D01*
X274375714Y-128722381D02*
X274375714Y-127722381D01*
X274613809Y-127722381D01*
X274756667Y-127770000D01*
X274851905Y-127865238D01*
X274899524Y-127960476D01*
X274947143Y-128150952D01*
X274947143Y-128293810D01*
X274899524Y-128484286D01*
X274851905Y-128579524D01*
X274756667Y-128674762D01*
X274613809Y-128722381D01*
X274375714Y-128722381D01*
X275804286Y-128055714D02*
X275804286Y-128722381D01*
X275566190Y-127674762D02*
X275328095Y-128389048D01*
X275947143Y-128389048D01*
X276518571Y-127722381D02*
X276613810Y-127722381D01*
X276709048Y-127770000D01*
X276756667Y-127817619D01*
X276804286Y-127912857D01*
X276851905Y-128103333D01*
X276851905Y-128341429D01*
X276804286Y-128531905D01*
X276756667Y-128627143D01*
X276709048Y-128674762D01*
X276613810Y-128722381D01*
X276518571Y-128722381D01*
X276423333Y-128674762D01*
X276375714Y-128627143D01*
X276328095Y-128531905D01*
X276280476Y-128341429D01*
X276280476Y-128103333D01*
X276328095Y-127912857D01*
X276375714Y-127817619D01*
X276423333Y-127770000D01*
X276518571Y-127722381D01*
X179125714Y-47442381D02*
X179125714Y-46442381D01*
X179363809Y-46442381D01*
X179506667Y-46490000D01*
X179601905Y-46585238D01*
X179649524Y-46680476D01*
X179697143Y-46870952D01*
X179697143Y-47013810D01*
X179649524Y-47204286D01*
X179601905Y-47299524D01*
X179506667Y-47394762D01*
X179363809Y-47442381D01*
X179125714Y-47442381D01*
X180554286Y-46775714D02*
X180554286Y-47442381D01*
X180316190Y-46394762D02*
X180078095Y-47109048D01*
X180697143Y-47109048D01*
X181601905Y-47442381D02*
X181030476Y-47442381D01*
X181316190Y-47442381D02*
X181316190Y-46442381D01*
X181220952Y-46585238D01*
X181125714Y-46680476D01*
X181030476Y-46728095D01*
X189285714Y-67762381D02*
X189285714Y-66762381D01*
X189523809Y-66762381D01*
X189666667Y-66810000D01*
X189761905Y-66905238D01*
X189809524Y-67000476D01*
X189857143Y-67190952D01*
X189857143Y-67333810D01*
X189809524Y-67524286D01*
X189761905Y-67619524D01*
X189666667Y-67714762D01*
X189523809Y-67762381D01*
X189285714Y-67762381D01*
X190714286Y-67095714D02*
X190714286Y-67762381D01*
X190476190Y-66714762D02*
X190238095Y-67429048D01*
X190857143Y-67429048D01*
X191190476Y-66857619D02*
X191238095Y-66810000D01*
X191333333Y-66762381D01*
X191571429Y-66762381D01*
X191666667Y-66810000D01*
X191714286Y-66857619D01*
X191761905Y-66952857D01*
X191761905Y-67048095D01*
X191714286Y-67190952D01*
X191142857Y-67762381D01*
X191761905Y-67762381D01*
X194365714Y-88082381D02*
X194365714Y-87082381D01*
X194603809Y-87082381D01*
X194746667Y-87130000D01*
X194841905Y-87225238D01*
X194889524Y-87320476D01*
X194937143Y-87510952D01*
X194937143Y-87653810D01*
X194889524Y-87844286D01*
X194841905Y-87939524D01*
X194746667Y-88034762D01*
X194603809Y-88082381D01*
X194365714Y-88082381D01*
X195794286Y-87415714D02*
X195794286Y-88082381D01*
X195556190Y-87034762D02*
X195318095Y-87749048D01*
X195937143Y-87749048D01*
X196222857Y-87082381D02*
X196841905Y-87082381D01*
X196508571Y-87463333D01*
X196651429Y-87463333D01*
X196746667Y-87510952D01*
X196794286Y-87558571D01*
X196841905Y-87653810D01*
X196841905Y-87891905D01*
X196794286Y-87987143D01*
X196746667Y-88034762D01*
X196651429Y-88082381D01*
X196365714Y-88082381D01*
X196270476Y-88034762D01*
X196222857Y-87987143D01*
X199445714Y-108402381D02*
X199445714Y-107402381D01*
X199683809Y-107402381D01*
X199826667Y-107450000D01*
X199921905Y-107545238D01*
X199969524Y-107640476D01*
X200017143Y-107830952D01*
X200017143Y-107973810D01*
X199969524Y-108164286D01*
X199921905Y-108259524D01*
X199826667Y-108354762D01*
X199683809Y-108402381D01*
X199445714Y-108402381D01*
X200874286Y-107735714D02*
X200874286Y-108402381D01*
X200636190Y-107354762D02*
X200398095Y-108069048D01*
X201017143Y-108069048D01*
X201826667Y-107735714D02*
X201826667Y-108402381D01*
X201588571Y-107354762D02*
X201350476Y-108069048D01*
X201969524Y-108069048D01*
X199445714Y-47442381D02*
X199445714Y-46442381D01*
X199683809Y-46442381D01*
X199826667Y-46490000D01*
X199921905Y-46585238D01*
X199969524Y-46680476D01*
X200017143Y-46870952D01*
X200017143Y-47013810D01*
X199969524Y-47204286D01*
X199921905Y-47299524D01*
X199826667Y-47394762D01*
X199683809Y-47442381D01*
X199445714Y-47442381D01*
X200874286Y-46775714D02*
X200874286Y-47442381D01*
X200636190Y-46394762D02*
X200398095Y-47109048D01*
X201017143Y-47109048D01*
X201826667Y-46442381D02*
X201636190Y-46442381D01*
X201540952Y-46490000D01*
X201493333Y-46537619D01*
X201398095Y-46680476D01*
X201350476Y-46870952D01*
X201350476Y-47251905D01*
X201398095Y-47347143D01*
X201445714Y-47394762D01*
X201540952Y-47442381D01*
X201731429Y-47442381D01*
X201826667Y-47394762D01*
X201874286Y-47347143D01*
X201921905Y-47251905D01*
X201921905Y-47013810D01*
X201874286Y-46918571D01*
X201826667Y-46870952D01*
X201731429Y-46823333D01*
X201540952Y-46823333D01*
X201445714Y-46870952D01*
X201398095Y-46918571D01*
X201350476Y-47013810D01*
X209605714Y-67762381D02*
X209605714Y-66762381D01*
X209843809Y-66762381D01*
X209986667Y-66810000D01*
X210081905Y-66905238D01*
X210129524Y-67000476D01*
X210177143Y-67190952D01*
X210177143Y-67333810D01*
X210129524Y-67524286D01*
X210081905Y-67619524D01*
X209986667Y-67714762D01*
X209843809Y-67762381D01*
X209605714Y-67762381D01*
X211034286Y-67095714D02*
X211034286Y-67762381D01*
X210796190Y-66714762D02*
X210558095Y-67429048D01*
X211177143Y-67429048D01*
X211462857Y-66762381D02*
X212129524Y-66762381D01*
X211700952Y-67762381D01*
X214685714Y-88082381D02*
X214685714Y-87082381D01*
X214923809Y-87082381D01*
X215066667Y-87130000D01*
X215161905Y-87225238D01*
X215209524Y-87320476D01*
X215257143Y-87510952D01*
X215257143Y-87653810D01*
X215209524Y-87844286D01*
X215161905Y-87939524D01*
X215066667Y-88034762D01*
X214923809Y-88082381D01*
X214685714Y-88082381D01*
X216114286Y-87415714D02*
X216114286Y-88082381D01*
X215876190Y-87034762D02*
X215638095Y-87749048D01*
X216257143Y-87749048D01*
X216780952Y-87510952D02*
X216685714Y-87463333D01*
X216638095Y-87415714D01*
X216590476Y-87320476D01*
X216590476Y-87272857D01*
X216638095Y-87177619D01*
X216685714Y-87130000D01*
X216780952Y-87082381D01*
X216971429Y-87082381D01*
X217066667Y-87130000D01*
X217114286Y-87177619D01*
X217161905Y-87272857D01*
X217161905Y-87320476D01*
X217114286Y-87415714D01*
X217066667Y-87463333D01*
X216971429Y-87510952D01*
X216780952Y-87510952D01*
X216685714Y-87558571D01*
X216638095Y-87606190D01*
X216590476Y-87701429D01*
X216590476Y-87891905D01*
X216638095Y-87987143D01*
X216685714Y-88034762D01*
X216780952Y-88082381D01*
X216971429Y-88082381D01*
X217066667Y-88034762D01*
X217114286Y-87987143D01*
X217161905Y-87891905D01*
X217161905Y-87701429D01*
X217114286Y-87606190D01*
X217066667Y-87558571D01*
X216971429Y-87510952D01*
X219765714Y-108402381D02*
X219765714Y-107402381D01*
X220003809Y-107402381D01*
X220146667Y-107450000D01*
X220241905Y-107545238D01*
X220289524Y-107640476D01*
X220337143Y-107830952D01*
X220337143Y-107973810D01*
X220289524Y-108164286D01*
X220241905Y-108259524D01*
X220146667Y-108354762D01*
X220003809Y-108402381D01*
X219765714Y-108402381D01*
X221194286Y-107735714D02*
X221194286Y-108402381D01*
X220956190Y-107354762D02*
X220718095Y-108069048D01*
X221337143Y-108069048D01*
X221765714Y-108402381D02*
X221956190Y-108402381D01*
X222051429Y-108354762D01*
X222099048Y-108307143D01*
X222194286Y-108164286D01*
X222241905Y-107973810D01*
X222241905Y-107592857D01*
X222194286Y-107497619D01*
X222146667Y-107450000D01*
X222051429Y-107402381D01*
X221860952Y-107402381D01*
X221765714Y-107450000D01*
X221718095Y-107497619D01*
X221670476Y-107592857D01*
X221670476Y-107830952D01*
X221718095Y-107926190D01*
X221765714Y-107973810D01*
X221860952Y-108021429D01*
X222051429Y-108021429D01*
X222146667Y-107973810D01*
X222194286Y-107926190D01*
X222241905Y-107830952D01*
X219765714Y-47442381D02*
X219765714Y-46442381D01*
X220003809Y-46442381D01*
X220146667Y-46490000D01*
X220241905Y-46585238D01*
X220289524Y-46680476D01*
X220337143Y-46870952D01*
X220337143Y-47013810D01*
X220289524Y-47204286D01*
X220241905Y-47299524D01*
X220146667Y-47394762D01*
X220003809Y-47442381D01*
X219765714Y-47442381D01*
X221241905Y-46442381D02*
X220765714Y-46442381D01*
X220718095Y-46918571D01*
X220765714Y-46870952D01*
X220860952Y-46823333D01*
X221099048Y-46823333D01*
X221194286Y-46870952D01*
X221241905Y-46918571D01*
X221289524Y-47013810D01*
X221289524Y-47251905D01*
X221241905Y-47347143D01*
X221194286Y-47394762D01*
X221099048Y-47442381D01*
X220860952Y-47442381D01*
X220765714Y-47394762D01*
X220718095Y-47347143D01*
X222241905Y-47442381D02*
X221670476Y-47442381D01*
X221956190Y-47442381D02*
X221956190Y-46442381D01*
X221860952Y-46585238D01*
X221765714Y-46680476D01*
X221670476Y-46728095D01*
X229925714Y-67762381D02*
X229925714Y-66762381D01*
X230163809Y-66762381D01*
X230306667Y-66810000D01*
X230401905Y-66905238D01*
X230449524Y-67000476D01*
X230497143Y-67190952D01*
X230497143Y-67333810D01*
X230449524Y-67524286D01*
X230401905Y-67619524D01*
X230306667Y-67714762D01*
X230163809Y-67762381D01*
X229925714Y-67762381D01*
X231401905Y-66762381D02*
X230925714Y-66762381D01*
X230878095Y-67238571D01*
X230925714Y-67190952D01*
X231020952Y-67143333D01*
X231259048Y-67143333D01*
X231354286Y-67190952D01*
X231401905Y-67238571D01*
X231449524Y-67333810D01*
X231449524Y-67571905D01*
X231401905Y-67667143D01*
X231354286Y-67714762D01*
X231259048Y-67762381D01*
X231020952Y-67762381D01*
X230925714Y-67714762D01*
X230878095Y-67667143D01*
X231830476Y-66857619D02*
X231878095Y-66810000D01*
X231973333Y-66762381D01*
X232211429Y-66762381D01*
X232306667Y-66810000D01*
X232354286Y-66857619D01*
X232401905Y-66952857D01*
X232401905Y-67048095D01*
X232354286Y-67190952D01*
X231782857Y-67762381D01*
X232401905Y-67762381D01*
X235005714Y-88082381D02*
X235005714Y-87082381D01*
X235243809Y-87082381D01*
X235386667Y-87130000D01*
X235481905Y-87225238D01*
X235529524Y-87320476D01*
X235577143Y-87510952D01*
X235577143Y-87653810D01*
X235529524Y-87844286D01*
X235481905Y-87939524D01*
X235386667Y-88034762D01*
X235243809Y-88082381D01*
X235005714Y-88082381D01*
X236481905Y-87082381D02*
X236005714Y-87082381D01*
X235958095Y-87558571D01*
X236005714Y-87510952D01*
X236100952Y-87463333D01*
X236339048Y-87463333D01*
X236434286Y-87510952D01*
X236481905Y-87558571D01*
X236529524Y-87653810D01*
X236529524Y-87891905D01*
X236481905Y-87987143D01*
X236434286Y-88034762D01*
X236339048Y-88082381D01*
X236100952Y-88082381D01*
X236005714Y-88034762D01*
X235958095Y-87987143D01*
X236862857Y-87082381D02*
X237481905Y-87082381D01*
X237148571Y-87463333D01*
X237291429Y-87463333D01*
X237386667Y-87510952D01*
X237434286Y-87558571D01*
X237481905Y-87653810D01*
X237481905Y-87891905D01*
X237434286Y-87987143D01*
X237386667Y-88034762D01*
X237291429Y-88082381D01*
X237005714Y-88082381D01*
X236910476Y-88034762D01*
X236862857Y-87987143D01*
X240085714Y-108402381D02*
X240085714Y-107402381D01*
X240323809Y-107402381D01*
X240466667Y-107450000D01*
X240561905Y-107545238D01*
X240609524Y-107640476D01*
X240657143Y-107830952D01*
X240657143Y-107973810D01*
X240609524Y-108164286D01*
X240561905Y-108259524D01*
X240466667Y-108354762D01*
X240323809Y-108402381D01*
X240085714Y-108402381D01*
X241561905Y-107402381D02*
X241085714Y-107402381D01*
X241038095Y-107878571D01*
X241085714Y-107830952D01*
X241180952Y-107783333D01*
X241419048Y-107783333D01*
X241514286Y-107830952D01*
X241561905Y-107878571D01*
X241609524Y-107973810D01*
X241609524Y-108211905D01*
X241561905Y-108307143D01*
X241514286Y-108354762D01*
X241419048Y-108402381D01*
X241180952Y-108402381D01*
X241085714Y-108354762D01*
X241038095Y-108307143D01*
X242466667Y-107735714D02*
X242466667Y-108402381D01*
X242228571Y-107354762D02*
X241990476Y-108069048D01*
X242609524Y-108069048D01*
X240085714Y-47442381D02*
X240085714Y-46442381D01*
X240323809Y-46442381D01*
X240466667Y-46490000D01*
X240561905Y-46585238D01*
X240609524Y-46680476D01*
X240657143Y-46870952D01*
X240657143Y-47013810D01*
X240609524Y-47204286D01*
X240561905Y-47299524D01*
X240466667Y-47394762D01*
X240323809Y-47442381D01*
X240085714Y-47442381D01*
X241561905Y-46442381D02*
X241085714Y-46442381D01*
X241038095Y-46918571D01*
X241085714Y-46870952D01*
X241180952Y-46823333D01*
X241419048Y-46823333D01*
X241514286Y-46870952D01*
X241561905Y-46918571D01*
X241609524Y-47013810D01*
X241609524Y-47251905D01*
X241561905Y-47347143D01*
X241514286Y-47394762D01*
X241419048Y-47442381D01*
X241180952Y-47442381D01*
X241085714Y-47394762D01*
X241038095Y-47347143D01*
X242466667Y-46442381D02*
X242276190Y-46442381D01*
X242180952Y-46490000D01*
X242133333Y-46537619D01*
X242038095Y-46680476D01*
X241990476Y-46870952D01*
X241990476Y-47251905D01*
X242038095Y-47347143D01*
X242085714Y-47394762D01*
X242180952Y-47442381D01*
X242371429Y-47442381D01*
X242466667Y-47394762D01*
X242514286Y-47347143D01*
X242561905Y-47251905D01*
X242561905Y-47013810D01*
X242514286Y-46918571D01*
X242466667Y-46870952D01*
X242371429Y-46823333D01*
X242180952Y-46823333D01*
X242085714Y-46870952D01*
X242038095Y-46918571D01*
X241990476Y-47013810D01*
X250245714Y-67762381D02*
X250245714Y-66762381D01*
X250483809Y-66762381D01*
X250626667Y-66810000D01*
X250721905Y-66905238D01*
X250769524Y-67000476D01*
X250817143Y-67190952D01*
X250817143Y-67333810D01*
X250769524Y-67524286D01*
X250721905Y-67619524D01*
X250626667Y-67714762D01*
X250483809Y-67762381D01*
X250245714Y-67762381D01*
X251721905Y-66762381D02*
X251245714Y-66762381D01*
X251198095Y-67238571D01*
X251245714Y-67190952D01*
X251340952Y-67143333D01*
X251579048Y-67143333D01*
X251674286Y-67190952D01*
X251721905Y-67238571D01*
X251769524Y-67333810D01*
X251769524Y-67571905D01*
X251721905Y-67667143D01*
X251674286Y-67714762D01*
X251579048Y-67762381D01*
X251340952Y-67762381D01*
X251245714Y-67714762D01*
X251198095Y-67667143D01*
X252102857Y-66762381D02*
X252769524Y-66762381D01*
X252340952Y-67762381D01*
X255325714Y-88082381D02*
X255325714Y-87082381D01*
X255563809Y-87082381D01*
X255706667Y-87130000D01*
X255801905Y-87225238D01*
X255849524Y-87320476D01*
X255897143Y-87510952D01*
X255897143Y-87653810D01*
X255849524Y-87844286D01*
X255801905Y-87939524D01*
X255706667Y-88034762D01*
X255563809Y-88082381D01*
X255325714Y-88082381D01*
X256801905Y-87082381D02*
X256325714Y-87082381D01*
X256278095Y-87558571D01*
X256325714Y-87510952D01*
X256420952Y-87463333D01*
X256659048Y-87463333D01*
X256754286Y-87510952D01*
X256801905Y-87558571D01*
X256849524Y-87653810D01*
X256849524Y-87891905D01*
X256801905Y-87987143D01*
X256754286Y-88034762D01*
X256659048Y-88082381D01*
X256420952Y-88082381D01*
X256325714Y-88034762D01*
X256278095Y-87987143D01*
X257420952Y-87510952D02*
X257325714Y-87463333D01*
X257278095Y-87415714D01*
X257230476Y-87320476D01*
X257230476Y-87272857D01*
X257278095Y-87177619D01*
X257325714Y-87130000D01*
X257420952Y-87082381D01*
X257611429Y-87082381D01*
X257706667Y-87130000D01*
X257754286Y-87177619D01*
X257801905Y-87272857D01*
X257801905Y-87320476D01*
X257754286Y-87415714D01*
X257706667Y-87463333D01*
X257611429Y-87510952D01*
X257420952Y-87510952D01*
X257325714Y-87558571D01*
X257278095Y-87606190D01*
X257230476Y-87701429D01*
X257230476Y-87891905D01*
X257278095Y-87987143D01*
X257325714Y-88034762D01*
X257420952Y-88082381D01*
X257611429Y-88082381D01*
X257706667Y-88034762D01*
X257754286Y-87987143D01*
X257801905Y-87891905D01*
X257801905Y-87701429D01*
X257754286Y-87606190D01*
X257706667Y-87558571D01*
X257611429Y-87510952D01*
X276915714Y-107132381D02*
X276915714Y-106132381D01*
X277153809Y-106132381D01*
X277296667Y-106180000D01*
X277391905Y-106275238D01*
X277439524Y-106370476D01*
X277487143Y-106560952D01*
X277487143Y-106703810D01*
X277439524Y-106894286D01*
X277391905Y-106989524D01*
X277296667Y-107084762D01*
X277153809Y-107132381D01*
X276915714Y-107132381D01*
X278391905Y-106132381D02*
X277915714Y-106132381D01*
X277868095Y-106608571D01*
X277915714Y-106560952D01*
X278010952Y-106513333D01*
X278249048Y-106513333D01*
X278344286Y-106560952D01*
X278391905Y-106608571D01*
X278439524Y-106703810D01*
X278439524Y-106941905D01*
X278391905Y-107037143D01*
X278344286Y-107084762D01*
X278249048Y-107132381D01*
X278010952Y-107132381D01*
X277915714Y-107084762D01*
X277868095Y-107037143D01*
X278915714Y-107132381D02*
X279106190Y-107132381D01*
X279201429Y-107084762D01*
X279249048Y-107037143D01*
X279344286Y-106894286D01*
X279391905Y-106703810D01*
X279391905Y-106322857D01*
X279344286Y-106227619D01*
X279296667Y-106180000D01*
X279201429Y-106132381D01*
X279010952Y-106132381D01*
X278915714Y-106180000D01*
X278868095Y-106227619D01*
X278820476Y-106322857D01*
X278820476Y-106560952D01*
X278868095Y-106656190D01*
X278915714Y-106703810D01*
X279010952Y-106751429D01*
X279201429Y-106751429D01*
X279296667Y-106703810D01*
X279344286Y-106656190D01*
X279391905Y-106560952D01*
X260405714Y-47442381D02*
X260405714Y-46442381D01*
X260643809Y-46442381D01*
X260786667Y-46490000D01*
X260881905Y-46585238D01*
X260929524Y-46680476D01*
X260977143Y-46870952D01*
X260977143Y-47013810D01*
X260929524Y-47204286D01*
X260881905Y-47299524D01*
X260786667Y-47394762D01*
X260643809Y-47442381D01*
X260405714Y-47442381D01*
X261834286Y-46442381D02*
X261643809Y-46442381D01*
X261548571Y-46490000D01*
X261500952Y-46537619D01*
X261405714Y-46680476D01*
X261358095Y-46870952D01*
X261358095Y-47251905D01*
X261405714Y-47347143D01*
X261453333Y-47394762D01*
X261548571Y-47442381D01*
X261739048Y-47442381D01*
X261834286Y-47394762D01*
X261881905Y-47347143D01*
X261929524Y-47251905D01*
X261929524Y-47013810D01*
X261881905Y-46918571D01*
X261834286Y-46870952D01*
X261739048Y-46823333D01*
X261548571Y-46823333D01*
X261453333Y-46870952D01*
X261405714Y-46918571D01*
X261358095Y-47013810D01*
X262881905Y-47442381D02*
X262310476Y-47442381D01*
X262596190Y-47442381D02*
X262596190Y-46442381D01*
X262500952Y-46585238D01*
X262405714Y-46680476D01*
X262310476Y-46728095D01*
X270565714Y-67762381D02*
X270565714Y-66762381D01*
X270803809Y-66762381D01*
X270946667Y-66810000D01*
X271041905Y-66905238D01*
X271089524Y-67000476D01*
X271137143Y-67190952D01*
X271137143Y-67333810D01*
X271089524Y-67524286D01*
X271041905Y-67619524D01*
X270946667Y-67714762D01*
X270803809Y-67762381D01*
X270565714Y-67762381D01*
X271994286Y-66762381D02*
X271803809Y-66762381D01*
X271708571Y-66810000D01*
X271660952Y-66857619D01*
X271565714Y-67000476D01*
X271518095Y-67190952D01*
X271518095Y-67571905D01*
X271565714Y-67667143D01*
X271613333Y-67714762D01*
X271708571Y-67762381D01*
X271899048Y-67762381D01*
X271994286Y-67714762D01*
X272041905Y-67667143D01*
X272089524Y-67571905D01*
X272089524Y-67333810D01*
X272041905Y-67238571D01*
X271994286Y-67190952D01*
X271899048Y-67143333D01*
X271708571Y-67143333D01*
X271613333Y-67190952D01*
X271565714Y-67238571D01*
X271518095Y-67333810D01*
X272470476Y-66857619D02*
X272518095Y-66810000D01*
X272613333Y-66762381D01*
X272851429Y-66762381D01*
X272946667Y-66810000D01*
X272994286Y-66857619D01*
X273041905Y-66952857D01*
X273041905Y-67048095D01*
X272994286Y-67190952D01*
X272422857Y-67762381D01*
X273041905Y-67762381D01*
X287075714Y-88082381D02*
X287075714Y-87082381D01*
X287313809Y-87082381D01*
X287456667Y-87130000D01*
X287551905Y-87225238D01*
X287599524Y-87320476D01*
X287647143Y-87510952D01*
X287647143Y-87653810D01*
X287599524Y-87844286D01*
X287551905Y-87939524D01*
X287456667Y-88034762D01*
X287313809Y-88082381D01*
X287075714Y-88082381D01*
X288504286Y-87082381D02*
X288313809Y-87082381D01*
X288218571Y-87130000D01*
X288170952Y-87177619D01*
X288075714Y-87320476D01*
X288028095Y-87510952D01*
X288028095Y-87891905D01*
X288075714Y-87987143D01*
X288123333Y-88034762D01*
X288218571Y-88082381D01*
X288409048Y-88082381D01*
X288504286Y-88034762D01*
X288551905Y-87987143D01*
X288599524Y-87891905D01*
X288599524Y-87653810D01*
X288551905Y-87558571D01*
X288504286Y-87510952D01*
X288409048Y-87463333D01*
X288218571Y-87463333D01*
X288123333Y-87510952D01*
X288075714Y-87558571D01*
X288028095Y-87653810D01*
X288932857Y-87082381D02*
X289551905Y-87082381D01*
X289218571Y-87463333D01*
X289361429Y-87463333D01*
X289456667Y-87510952D01*
X289504286Y-87558571D01*
X289551905Y-87653810D01*
X289551905Y-87891905D01*
X289504286Y-87987143D01*
X289456667Y-88034762D01*
X289361429Y-88082381D01*
X289075714Y-88082381D01*
X288980476Y-88034762D01*
X288932857Y-87987143D01*
X290885714Y-47442381D02*
X290885714Y-46442381D01*
X291123809Y-46442381D01*
X291266667Y-46490000D01*
X291361905Y-46585238D01*
X291409524Y-46680476D01*
X291457143Y-46870952D01*
X291457143Y-47013810D01*
X291409524Y-47204286D01*
X291361905Y-47299524D01*
X291266667Y-47394762D01*
X291123809Y-47442381D01*
X290885714Y-47442381D01*
X292314286Y-46442381D02*
X292123809Y-46442381D01*
X292028571Y-46490000D01*
X291980952Y-46537619D01*
X291885714Y-46680476D01*
X291838095Y-46870952D01*
X291838095Y-47251905D01*
X291885714Y-47347143D01*
X291933333Y-47394762D01*
X292028571Y-47442381D01*
X292219048Y-47442381D01*
X292314286Y-47394762D01*
X292361905Y-47347143D01*
X292409524Y-47251905D01*
X292409524Y-47013810D01*
X292361905Y-46918571D01*
X292314286Y-46870952D01*
X292219048Y-46823333D01*
X292028571Y-46823333D01*
X291933333Y-46870952D01*
X291885714Y-46918571D01*
X291838095Y-47013810D01*
X293266667Y-46442381D02*
X293076190Y-46442381D01*
X292980952Y-46490000D01*
X292933333Y-46537619D01*
X292838095Y-46680476D01*
X292790476Y-46870952D01*
X292790476Y-47251905D01*
X292838095Y-47347143D01*
X292885714Y-47394762D01*
X292980952Y-47442381D01*
X293171429Y-47442381D01*
X293266667Y-47394762D01*
X293314286Y-47347143D01*
X293361905Y-47251905D01*
X293361905Y-47013810D01*
X293314286Y-46918571D01*
X293266667Y-46870952D01*
X293171429Y-46823333D01*
X292980952Y-46823333D01*
X292885714Y-46870952D01*
X292838095Y-46918571D01*
X292790476Y-47013810D01*
X290885714Y-67762381D02*
X290885714Y-66762381D01*
X291123809Y-66762381D01*
X291266667Y-66810000D01*
X291361905Y-66905238D01*
X291409524Y-67000476D01*
X291457143Y-67190952D01*
X291457143Y-67333810D01*
X291409524Y-67524286D01*
X291361905Y-67619524D01*
X291266667Y-67714762D01*
X291123809Y-67762381D01*
X290885714Y-67762381D01*
X292314286Y-66762381D02*
X292123809Y-66762381D01*
X292028571Y-66810000D01*
X291980952Y-66857619D01*
X291885714Y-67000476D01*
X291838095Y-67190952D01*
X291838095Y-67571905D01*
X291885714Y-67667143D01*
X291933333Y-67714762D01*
X292028571Y-67762381D01*
X292219048Y-67762381D01*
X292314286Y-67714762D01*
X292361905Y-67667143D01*
X292409524Y-67571905D01*
X292409524Y-67333810D01*
X292361905Y-67238571D01*
X292314286Y-67190952D01*
X292219048Y-67143333D01*
X292028571Y-67143333D01*
X291933333Y-67190952D01*
X291885714Y-67238571D01*
X291838095Y-67333810D01*
X292742857Y-66762381D02*
X293409524Y-66762381D01*
X292980952Y-67762381D01*
D13*
X14478000Y-55759048D02*
X14695714Y-55819524D01*
X15058571Y-55819524D01*
X15203714Y-55759048D01*
X15276285Y-55698571D01*
X15348857Y-55577619D01*
X15348857Y-55456667D01*
X15276285Y-55335714D01*
X15203714Y-55275238D01*
X15058571Y-55214762D01*
X14768285Y-55154286D01*
X14623143Y-55093810D01*
X14550571Y-55033333D01*
X14478000Y-54912381D01*
X14478000Y-54791429D01*
X14550571Y-54670476D01*
X14623143Y-54610000D01*
X14768285Y-54549524D01*
X15131143Y-54549524D01*
X15348857Y-54610000D01*
X15856857Y-54549524D02*
X16219714Y-55819524D01*
X16510000Y-54912381D01*
X16800286Y-55819524D01*
X17163143Y-54549524D01*
X18542000Y-55819524D02*
X17671143Y-55819524D01*
X18106571Y-55819524D02*
X18106571Y-54549524D01*
X17961428Y-54730952D01*
X17816286Y-54851905D01*
X17671143Y-54912381D01*
X19558000Y-76079048D02*
X19775714Y-76139524D01*
X20138571Y-76139524D01*
X20283714Y-76079048D01*
X20356285Y-76018571D01*
X20428857Y-75897619D01*
X20428857Y-75776667D01*
X20356285Y-75655714D01*
X20283714Y-75595238D01*
X20138571Y-75534762D01*
X19848285Y-75474286D01*
X19703143Y-75413810D01*
X19630571Y-75353333D01*
X19558000Y-75232381D01*
X19558000Y-75111429D01*
X19630571Y-74990476D01*
X19703143Y-74930000D01*
X19848285Y-74869524D01*
X20211143Y-74869524D01*
X20428857Y-74930000D01*
X20936857Y-74869524D02*
X21299714Y-76139524D01*
X21590000Y-75232381D01*
X21880286Y-76139524D01*
X22243143Y-74869524D01*
X22751143Y-74990476D02*
X22823714Y-74930000D01*
X22968857Y-74869524D01*
X23331714Y-74869524D01*
X23476857Y-74930000D01*
X23549428Y-74990476D01*
X23622000Y-75111429D01*
X23622000Y-75232381D01*
X23549428Y-75413810D01*
X22678571Y-76139524D01*
X23622000Y-76139524D01*
X22098000Y-96399048D02*
X22315714Y-96459524D01*
X22678571Y-96459524D01*
X22823714Y-96399048D01*
X22896285Y-96338571D01*
X22968857Y-96217619D01*
X22968857Y-96096667D01*
X22896285Y-95975714D01*
X22823714Y-95915238D01*
X22678571Y-95854762D01*
X22388285Y-95794286D01*
X22243143Y-95733810D01*
X22170571Y-95673333D01*
X22098000Y-95552381D01*
X22098000Y-95431429D01*
X22170571Y-95310476D01*
X22243143Y-95250000D01*
X22388285Y-95189524D01*
X22751143Y-95189524D01*
X22968857Y-95250000D01*
X23476857Y-95189524D02*
X23839714Y-96459524D01*
X24130000Y-95552381D01*
X24420286Y-96459524D01*
X24783143Y-95189524D01*
X25218571Y-95189524D02*
X26162000Y-95189524D01*
X25654000Y-95673333D01*
X25871714Y-95673333D01*
X26016857Y-95733810D01*
X26089428Y-95794286D01*
X26162000Y-95915238D01*
X26162000Y-96217619D01*
X26089428Y-96338571D01*
X26016857Y-96399048D01*
X25871714Y-96459524D01*
X25436286Y-96459524D01*
X25291143Y-96399048D01*
X25218571Y-96338571D01*
X24638000Y-116719048D02*
X24855714Y-116779524D01*
X25218571Y-116779524D01*
X25363714Y-116719048D01*
X25436285Y-116658571D01*
X25508857Y-116537619D01*
X25508857Y-116416667D01*
X25436285Y-116295714D01*
X25363714Y-116235238D01*
X25218571Y-116174762D01*
X24928285Y-116114286D01*
X24783143Y-116053810D01*
X24710571Y-115993333D01*
X24638000Y-115872381D01*
X24638000Y-115751429D01*
X24710571Y-115630476D01*
X24783143Y-115570000D01*
X24928285Y-115509524D01*
X25291143Y-115509524D01*
X25508857Y-115570000D01*
X26016857Y-115509524D02*
X26379714Y-116779524D01*
X26670000Y-115872381D01*
X26960286Y-116779524D01*
X27323143Y-115509524D01*
X28556857Y-115932857D02*
X28556857Y-116779524D01*
X28194000Y-115449048D02*
X27831143Y-116356190D01*
X28774571Y-116356190D01*
X25908000Y-137039048D02*
X26125714Y-137099524D01*
X26488571Y-137099524D01*
X26633714Y-137039048D01*
X26706285Y-136978571D01*
X26778857Y-136857619D01*
X26778857Y-136736667D01*
X26706285Y-136615714D01*
X26633714Y-136555238D01*
X26488571Y-136494762D01*
X26198285Y-136434286D01*
X26053143Y-136373810D01*
X25980571Y-136313333D01*
X25908000Y-136192381D01*
X25908000Y-136071429D01*
X25980571Y-135950476D01*
X26053143Y-135890000D01*
X26198285Y-135829524D01*
X26561143Y-135829524D01*
X26778857Y-135890000D01*
X27286857Y-135829524D02*
X27649714Y-137099524D01*
X27940000Y-136192381D01*
X28230286Y-137099524D01*
X28593143Y-135829524D01*
X29899428Y-135829524D02*
X29173714Y-135829524D01*
X29101143Y-136434286D01*
X29173714Y-136373810D01*
X29318857Y-136313333D01*
X29681714Y-136313333D01*
X29826857Y-136373810D01*
X29899428Y-136434286D01*
X29972000Y-136555238D01*
X29972000Y-136857619D01*
X29899428Y-136978571D01*
X29826857Y-137039048D01*
X29681714Y-137099524D01*
X29318857Y-137099524D01*
X29173714Y-137039048D01*
X29101143Y-136978571D01*
X34798000Y-55759048D02*
X35015714Y-55819524D01*
X35378571Y-55819524D01*
X35523714Y-55759048D01*
X35596285Y-55698571D01*
X35668857Y-55577619D01*
X35668857Y-55456667D01*
X35596285Y-55335714D01*
X35523714Y-55275238D01*
X35378571Y-55214762D01*
X35088285Y-55154286D01*
X34943143Y-55093810D01*
X34870571Y-55033333D01*
X34798000Y-54912381D01*
X34798000Y-54791429D01*
X34870571Y-54670476D01*
X34943143Y-54610000D01*
X35088285Y-54549524D01*
X35451143Y-54549524D01*
X35668857Y-54610000D01*
X36176857Y-54549524D02*
X36539714Y-55819524D01*
X36830000Y-54912381D01*
X37120286Y-55819524D01*
X37483143Y-54549524D01*
X38716857Y-54549524D02*
X38426571Y-54549524D01*
X38281428Y-54610000D01*
X38208857Y-54670476D01*
X38063714Y-54851905D01*
X37991143Y-55093810D01*
X37991143Y-55577619D01*
X38063714Y-55698571D01*
X38136286Y-55759048D01*
X38281428Y-55819524D01*
X38571714Y-55819524D01*
X38716857Y-55759048D01*
X38789428Y-55698571D01*
X38862000Y-55577619D01*
X38862000Y-55275238D01*
X38789428Y-55154286D01*
X38716857Y-55093810D01*
X38571714Y-55033333D01*
X38281428Y-55033333D01*
X38136286Y-55093810D01*
X38063714Y-55154286D01*
X37991143Y-55275238D01*
X44958000Y-76079048D02*
X45175714Y-76139524D01*
X45538571Y-76139524D01*
X45683714Y-76079048D01*
X45756285Y-76018571D01*
X45828857Y-75897619D01*
X45828857Y-75776667D01*
X45756285Y-75655714D01*
X45683714Y-75595238D01*
X45538571Y-75534762D01*
X45248285Y-75474286D01*
X45103143Y-75413810D01*
X45030571Y-75353333D01*
X44958000Y-75232381D01*
X44958000Y-75111429D01*
X45030571Y-74990476D01*
X45103143Y-74930000D01*
X45248285Y-74869524D01*
X45611143Y-74869524D01*
X45828857Y-74930000D01*
X46336857Y-74869524D02*
X46699714Y-76139524D01*
X46990000Y-75232381D01*
X47280286Y-76139524D01*
X47643143Y-74869524D01*
X48078571Y-74869524D02*
X49094571Y-74869524D01*
X48441428Y-76139524D01*
X50038000Y-96399048D02*
X50255714Y-96459524D01*
X50618571Y-96459524D01*
X50763714Y-96399048D01*
X50836285Y-96338571D01*
X50908857Y-96217619D01*
X50908857Y-96096667D01*
X50836285Y-95975714D01*
X50763714Y-95915238D01*
X50618571Y-95854762D01*
X50328285Y-95794286D01*
X50183143Y-95733810D01*
X50110571Y-95673333D01*
X50038000Y-95552381D01*
X50038000Y-95431429D01*
X50110571Y-95310476D01*
X50183143Y-95250000D01*
X50328285Y-95189524D01*
X50691143Y-95189524D01*
X50908857Y-95250000D01*
X51416857Y-95189524D02*
X51779714Y-96459524D01*
X52070000Y-95552381D01*
X52360286Y-96459524D01*
X52723143Y-95189524D01*
X53521428Y-95733810D02*
X53376286Y-95673333D01*
X53303714Y-95612857D01*
X53231143Y-95491905D01*
X53231143Y-95431429D01*
X53303714Y-95310476D01*
X53376286Y-95250000D01*
X53521428Y-95189524D01*
X53811714Y-95189524D01*
X53956857Y-95250000D01*
X54029428Y-95310476D01*
X54102000Y-95431429D01*
X54102000Y-95491905D01*
X54029428Y-95612857D01*
X53956857Y-95673333D01*
X53811714Y-95733810D01*
X53521428Y-95733810D01*
X53376286Y-95794286D01*
X53303714Y-95854762D01*
X53231143Y-95975714D01*
X53231143Y-96217619D01*
X53303714Y-96338571D01*
X53376286Y-96399048D01*
X53521428Y-96459524D01*
X53811714Y-96459524D01*
X53956857Y-96399048D01*
X54029428Y-96338571D01*
X54102000Y-96217619D01*
X54102000Y-95975714D01*
X54029428Y-95854762D01*
X53956857Y-95794286D01*
X53811714Y-95733810D01*
X55118000Y-116719048D02*
X55335714Y-116779524D01*
X55698571Y-116779524D01*
X55843714Y-116719048D01*
X55916285Y-116658571D01*
X55988857Y-116537619D01*
X55988857Y-116416667D01*
X55916285Y-116295714D01*
X55843714Y-116235238D01*
X55698571Y-116174762D01*
X55408285Y-116114286D01*
X55263143Y-116053810D01*
X55190571Y-115993333D01*
X55118000Y-115872381D01*
X55118000Y-115751429D01*
X55190571Y-115630476D01*
X55263143Y-115570000D01*
X55408285Y-115509524D01*
X55771143Y-115509524D01*
X55988857Y-115570000D01*
X56496857Y-115509524D02*
X56859714Y-116779524D01*
X57150000Y-115872381D01*
X57440286Y-116779524D01*
X57803143Y-115509524D01*
X58456286Y-116779524D02*
X58746571Y-116779524D01*
X58891714Y-116719048D01*
X58964286Y-116658571D01*
X59109428Y-116477143D01*
X59182000Y-116235238D01*
X59182000Y-115751429D01*
X59109428Y-115630476D01*
X59036857Y-115570000D01*
X58891714Y-115509524D01*
X58601428Y-115509524D01*
X58456286Y-115570000D01*
X58383714Y-115630476D01*
X58311143Y-115751429D01*
X58311143Y-116053810D01*
X58383714Y-116174762D01*
X58456286Y-116235238D01*
X58601428Y-116295714D01*
X58891714Y-116295714D01*
X59036857Y-116235238D01*
X59109428Y-116174762D01*
X59182000Y-116053810D01*
X50582286Y-137039048D02*
X50800000Y-137099524D01*
X51162857Y-137099524D01*
X51308000Y-137039048D01*
X51380571Y-136978571D01*
X51453143Y-136857619D01*
X51453143Y-136736667D01*
X51380571Y-136615714D01*
X51308000Y-136555238D01*
X51162857Y-136494762D01*
X50872571Y-136434286D01*
X50727429Y-136373810D01*
X50654857Y-136313333D01*
X50582286Y-136192381D01*
X50582286Y-136071429D01*
X50654857Y-135950476D01*
X50727429Y-135890000D01*
X50872571Y-135829524D01*
X51235429Y-135829524D01*
X51453143Y-135890000D01*
X51961143Y-135829524D02*
X52324000Y-137099524D01*
X52614286Y-136192381D01*
X52904572Y-137099524D01*
X53267429Y-135829524D01*
X54646286Y-137099524D02*
X53775429Y-137099524D01*
X54210857Y-137099524D02*
X54210857Y-135829524D01*
X54065714Y-136010952D01*
X53920572Y-136131905D01*
X53775429Y-136192381D01*
X55589715Y-135829524D02*
X55734858Y-135829524D01*
X55880001Y-135890000D01*
X55952572Y-135950476D01*
X56025143Y-136071429D01*
X56097715Y-136313333D01*
X56097715Y-136615714D01*
X56025143Y-136857619D01*
X55952572Y-136978571D01*
X55880001Y-137039048D01*
X55734858Y-137099524D01*
X55589715Y-137099524D01*
X55444572Y-137039048D01*
X55372001Y-136978571D01*
X55299429Y-136857619D01*
X55226858Y-136615714D01*
X55226858Y-136313333D01*
X55299429Y-136071429D01*
X55372001Y-135950476D01*
X55444572Y-135890000D01*
X55589715Y-135829524D01*
X54392286Y-55759048D02*
X54610000Y-55819524D01*
X54972857Y-55819524D01*
X55118000Y-55759048D01*
X55190571Y-55698571D01*
X55263143Y-55577619D01*
X55263143Y-55456667D01*
X55190571Y-55335714D01*
X55118000Y-55275238D01*
X54972857Y-55214762D01*
X54682571Y-55154286D01*
X54537429Y-55093810D01*
X54464857Y-55033333D01*
X54392286Y-54912381D01*
X54392286Y-54791429D01*
X54464857Y-54670476D01*
X54537429Y-54610000D01*
X54682571Y-54549524D01*
X55045429Y-54549524D01*
X55263143Y-54610000D01*
X55771143Y-54549524D02*
X56134000Y-55819524D01*
X56424286Y-54912381D01*
X56714572Y-55819524D01*
X57077429Y-54549524D01*
X58456286Y-55819524D02*
X57585429Y-55819524D01*
X58020857Y-55819524D02*
X58020857Y-54549524D01*
X57875714Y-54730952D01*
X57730572Y-54851905D01*
X57585429Y-54912381D01*
X59907715Y-55819524D02*
X59036858Y-55819524D01*
X59472286Y-55819524D02*
X59472286Y-54549524D01*
X59327143Y-54730952D01*
X59182001Y-54851905D01*
X59036858Y-54912381D01*
X64552286Y-76079048D02*
X64770000Y-76139524D01*
X65132857Y-76139524D01*
X65278000Y-76079048D01*
X65350571Y-76018571D01*
X65423143Y-75897619D01*
X65423143Y-75776667D01*
X65350571Y-75655714D01*
X65278000Y-75595238D01*
X65132857Y-75534762D01*
X64842571Y-75474286D01*
X64697429Y-75413810D01*
X64624857Y-75353333D01*
X64552286Y-75232381D01*
X64552286Y-75111429D01*
X64624857Y-74990476D01*
X64697429Y-74930000D01*
X64842571Y-74869524D01*
X65205429Y-74869524D01*
X65423143Y-74930000D01*
X65931143Y-74869524D02*
X66294000Y-76139524D01*
X66584286Y-75232381D01*
X66874572Y-76139524D01*
X67237429Y-74869524D01*
X68616286Y-76139524D02*
X67745429Y-76139524D01*
X68180857Y-76139524D02*
X68180857Y-74869524D01*
X68035714Y-75050952D01*
X67890572Y-75171905D01*
X67745429Y-75232381D01*
X69196858Y-74990476D02*
X69269429Y-74930000D01*
X69414572Y-74869524D01*
X69777429Y-74869524D01*
X69922572Y-74930000D01*
X69995143Y-74990476D01*
X70067715Y-75111429D01*
X70067715Y-75232381D01*
X69995143Y-75413810D01*
X69124286Y-76139524D01*
X70067715Y-76139524D01*
X69632286Y-96399048D02*
X69850000Y-96459524D01*
X70212857Y-96459524D01*
X70358000Y-96399048D01*
X70430571Y-96338571D01*
X70503143Y-96217619D01*
X70503143Y-96096667D01*
X70430571Y-95975714D01*
X70358000Y-95915238D01*
X70212857Y-95854762D01*
X69922571Y-95794286D01*
X69777429Y-95733810D01*
X69704857Y-95673333D01*
X69632286Y-95552381D01*
X69632286Y-95431429D01*
X69704857Y-95310476D01*
X69777429Y-95250000D01*
X69922571Y-95189524D01*
X70285429Y-95189524D01*
X70503143Y-95250000D01*
X71011143Y-95189524D02*
X71374000Y-96459524D01*
X71664286Y-95552381D01*
X71954572Y-96459524D01*
X72317429Y-95189524D01*
X73696286Y-96459524D02*
X72825429Y-96459524D01*
X73260857Y-96459524D02*
X73260857Y-95189524D01*
X73115714Y-95370952D01*
X72970572Y-95491905D01*
X72825429Y-95552381D01*
X74204286Y-95189524D02*
X75147715Y-95189524D01*
X74639715Y-95673333D01*
X74857429Y-95673333D01*
X75002572Y-95733810D01*
X75075143Y-95794286D01*
X75147715Y-95915238D01*
X75147715Y-96217619D01*
X75075143Y-96338571D01*
X75002572Y-96399048D01*
X74857429Y-96459524D01*
X74422001Y-96459524D01*
X74276858Y-96399048D01*
X74204286Y-96338571D01*
X74712286Y-116719048D02*
X74930000Y-116779524D01*
X75292857Y-116779524D01*
X75438000Y-116719048D01*
X75510571Y-116658571D01*
X75583143Y-116537619D01*
X75583143Y-116416667D01*
X75510571Y-116295714D01*
X75438000Y-116235238D01*
X75292857Y-116174762D01*
X75002571Y-116114286D01*
X74857429Y-116053810D01*
X74784857Y-115993333D01*
X74712286Y-115872381D01*
X74712286Y-115751429D01*
X74784857Y-115630476D01*
X74857429Y-115570000D01*
X75002571Y-115509524D01*
X75365429Y-115509524D01*
X75583143Y-115570000D01*
X76091143Y-115509524D02*
X76454000Y-116779524D01*
X76744286Y-115872381D01*
X77034572Y-116779524D01*
X77397429Y-115509524D01*
X78776286Y-116779524D02*
X77905429Y-116779524D01*
X78340857Y-116779524D02*
X78340857Y-115509524D01*
X78195714Y-115690952D01*
X78050572Y-115811905D01*
X77905429Y-115872381D01*
X80082572Y-115932857D02*
X80082572Y-116779524D01*
X79719715Y-115449048D02*
X79356858Y-116356190D01*
X80300286Y-116356190D01*
X75982286Y-137039048D02*
X76200000Y-137099524D01*
X76562857Y-137099524D01*
X76708000Y-137039048D01*
X76780571Y-136978571D01*
X76853143Y-136857619D01*
X76853143Y-136736667D01*
X76780571Y-136615714D01*
X76708000Y-136555238D01*
X76562857Y-136494762D01*
X76272571Y-136434286D01*
X76127429Y-136373810D01*
X76054857Y-136313333D01*
X75982286Y-136192381D01*
X75982286Y-136071429D01*
X76054857Y-135950476D01*
X76127429Y-135890000D01*
X76272571Y-135829524D01*
X76635429Y-135829524D01*
X76853143Y-135890000D01*
X77361143Y-135829524D02*
X77724000Y-137099524D01*
X78014286Y-136192381D01*
X78304572Y-137099524D01*
X78667429Y-135829524D01*
X80046286Y-137099524D02*
X79175429Y-137099524D01*
X79610857Y-137099524D02*
X79610857Y-135829524D01*
X79465714Y-136010952D01*
X79320572Y-136131905D01*
X79175429Y-136192381D01*
X81425143Y-135829524D02*
X80699429Y-135829524D01*
X80626858Y-136434286D01*
X80699429Y-136373810D01*
X80844572Y-136313333D01*
X81207429Y-136313333D01*
X81352572Y-136373810D01*
X81425143Y-136434286D01*
X81497715Y-136555238D01*
X81497715Y-136857619D01*
X81425143Y-136978571D01*
X81352572Y-137039048D01*
X81207429Y-137099524D01*
X80844572Y-137099524D01*
X80699429Y-137039048D01*
X80626858Y-136978571D01*
X74712286Y-55759048D02*
X74930000Y-55819524D01*
X75292857Y-55819524D01*
X75438000Y-55759048D01*
X75510571Y-55698571D01*
X75583143Y-55577619D01*
X75583143Y-55456667D01*
X75510571Y-55335714D01*
X75438000Y-55275238D01*
X75292857Y-55214762D01*
X75002571Y-55154286D01*
X74857429Y-55093810D01*
X74784857Y-55033333D01*
X74712286Y-54912381D01*
X74712286Y-54791429D01*
X74784857Y-54670476D01*
X74857429Y-54610000D01*
X75002571Y-54549524D01*
X75365429Y-54549524D01*
X75583143Y-54610000D01*
X76091143Y-54549524D02*
X76454000Y-55819524D01*
X76744286Y-54912381D01*
X77034572Y-55819524D01*
X77397429Y-54549524D01*
X78776286Y-55819524D02*
X77905429Y-55819524D01*
X78340857Y-55819524D02*
X78340857Y-54549524D01*
X78195714Y-54730952D01*
X78050572Y-54851905D01*
X77905429Y-54912381D01*
X80082572Y-54549524D02*
X79792286Y-54549524D01*
X79647143Y-54610000D01*
X79574572Y-54670476D01*
X79429429Y-54851905D01*
X79356858Y-55093810D01*
X79356858Y-55577619D01*
X79429429Y-55698571D01*
X79502001Y-55759048D01*
X79647143Y-55819524D01*
X79937429Y-55819524D01*
X80082572Y-55759048D01*
X80155143Y-55698571D01*
X80227715Y-55577619D01*
X80227715Y-55275238D01*
X80155143Y-55154286D01*
X80082572Y-55093810D01*
X79937429Y-55033333D01*
X79647143Y-55033333D01*
X79502001Y-55093810D01*
X79429429Y-55154286D01*
X79356858Y-55275238D01*
X84872286Y-76079048D02*
X85090000Y-76139524D01*
X85452857Y-76139524D01*
X85598000Y-76079048D01*
X85670571Y-76018571D01*
X85743143Y-75897619D01*
X85743143Y-75776667D01*
X85670571Y-75655714D01*
X85598000Y-75595238D01*
X85452857Y-75534762D01*
X85162571Y-75474286D01*
X85017429Y-75413810D01*
X84944857Y-75353333D01*
X84872286Y-75232381D01*
X84872286Y-75111429D01*
X84944857Y-74990476D01*
X85017429Y-74930000D01*
X85162571Y-74869524D01*
X85525429Y-74869524D01*
X85743143Y-74930000D01*
X86251143Y-74869524D02*
X86614000Y-76139524D01*
X86904286Y-75232381D01*
X87194572Y-76139524D01*
X87557429Y-74869524D01*
X88936286Y-76139524D02*
X88065429Y-76139524D01*
X88500857Y-76139524D02*
X88500857Y-74869524D01*
X88355714Y-75050952D01*
X88210572Y-75171905D01*
X88065429Y-75232381D01*
X89444286Y-74869524D02*
X90460286Y-74869524D01*
X89807143Y-76139524D01*
X89952286Y-96399048D02*
X90170000Y-96459524D01*
X90532857Y-96459524D01*
X90678000Y-96399048D01*
X90750571Y-96338571D01*
X90823143Y-96217619D01*
X90823143Y-96096667D01*
X90750571Y-95975714D01*
X90678000Y-95915238D01*
X90532857Y-95854762D01*
X90242571Y-95794286D01*
X90097429Y-95733810D01*
X90024857Y-95673333D01*
X89952286Y-95552381D01*
X89952286Y-95431429D01*
X90024857Y-95310476D01*
X90097429Y-95250000D01*
X90242571Y-95189524D01*
X90605429Y-95189524D01*
X90823143Y-95250000D01*
X91331143Y-95189524D02*
X91694000Y-96459524D01*
X91984286Y-95552381D01*
X92274572Y-96459524D01*
X92637429Y-95189524D01*
X94016286Y-96459524D02*
X93145429Y-96459524D01*
X93580857Y-96459524D02*
X93580857Y-95189524D01*
X93435714Y-95370952D01*
X93290572Y-95491905D01*
X93145429Y-95552381D01*
X94887143Y-95733810D02*
X94742001Y-95673333D01*
X94669429Y-95612857D01*
X94596858Y-95491905D01*
X94596858Y-95431429D01*
X94669429Y-95310476D01*
X94742001Y-95250000D01*
X94887143Y-95189524D01*
X95177429Y-95189524D01*
X95322572Y-95250000D01*
X95395143Y-95310476D01*
X95467715Y-95431429D01*
X95467715Y-95491905D01*
X95395143Y-95612857D01*
X95322572Y-95673333D01*
X95177429Y-95733810D01*
X94887143Y-95733810D01*
X94742001Y-95794286D01*
X94669429Y-95854762D01*
X94596858Y-95975714D01*
X94596858Y-96217619D01*
X94669429Y-96338571D01*
X94742001Y-96399048D01*
X94887143Y-96459524D01*
X95177429Y-96459524D01*
X95322572Y-96399048D01*
X95395143Y-96338571D01*
X95467715Y-96217619D01*
X95467715Y-95975714D01*
X95395143Y-95854762D01*
X95322572Y-95794286D01*
X95177429Y-95733810D01*
X95032286Y-116719048D02*
X95250000Y-116779524D01*
X95612857Y-116779524D01*
X95758000Y-116719048D01*
X95830571Y-116658571D01*
X95903143Y-116537619D01*
X95903143Y-116416667D01*
X95830571Y-116295714D01*
X95758000Y-116235238D01*
X95612857Y-116174762D01*
X95322571Y-116114286D01*
X95177429Y-116053810D01*
X95104857Y-115993333D01*
X95032286Y-115872381D01*
X95032286Y-115751429D01*
X95104857Y-115630476D01*
X95177429Y-115570000D01*
X95322571Y-115509524D01*
X95685429Y-115509524D01*
X95903143Y-115570000D01*
X96411143Y-115509524D02*
X96774000Y-116779524D01*
X97064286Y-115872381D01*
X97354572Y-116779524D01*
X97717429Y-115509524D01*
X99096286Y-116779524D02*
X98225429Y-116779524D01*
X98660857Y-116779524D02*
X98660857Y-115509524D01*
X98515714Y-115690952D01*
X98370572Y-115811905D01*
X98225429Y-115872381D01*
X99822001Y-116779524D02*
X100112286Y-116779524D01*
X100257429Y-116719048D01*
X100330001Y-116658571D01*
X100475143Y-116477143D01*
X100547715Y-116235238D01*
X100547715Y-115751429D01*
X100475143Y-115630476D01*
X100402572Y-115570000D01*
X100257429Y-115509524D01*
X99967143Y-115509524D01*
X99822001Y-115570000D01*
X99749429Y-115630476D01*
X99676858Y-115751429D01*
X99676858Y-116053810D01*
X99749429Y-116174762D01*
X99822001Y-116235238D01*
X99967143Y-116295714D01*
X100257429Y-116295714D01*
X100402572Y-116235238D01*
X100475143Y-116174762D01*
X100547715Y-116053810D01*
X148372286Y-137039048D02*
X148590000Y-137099524D01*
X148952857Y-137099524D01*
X149098000Y-137039048D01*
X149170571Y-136978571D01*
X149243143Y-136857619D01*
X149243143Y-136736667D01*
X149170571Y-136615714D01*
X149098000Y-136555238D01*
X148952857Y-136494762D01*
X148662571Y-136434286D01*
X148517429Y-136373810D01*
X148444857Y-136313333D01*
X148372286Y-136192381D01*
X148372286Y-136071429D01*
X148444857Y-135950476D01*
X148517429Y-135890000D01*
X148662571Y-135829524D01*
X149025429Y-135829524D01*
X149243143Y-135890000D01*
X149751143Y-135829524D02*
X150114000Y-137099524D01*
X150404286Y-136192381D01*
X150694572Y-137099524D01*
X151057429Y-135829524D01*
X151565429Y-135950476D02*
X151638000Y-135890000D01*
X151783143Y-135829524D01*
X152146000Y-135829524D01*
X152291143Y-135890000D01*
X152363714Y-135950476D01*
X152436286Y-136071429D01*
X152436286Y-136192381D01*
X152363714Y-136373810D01*
X151492857Y-137099524D01*
X152436286Y-137099524D01*
X153379715Y-135829524D02*
X153524858Y-135829524D01*
X153670001Y-135890000D01*
X153742572Y-135950476D01*
X153815143Y-136071429D01*
X153887715Y-136313333D01*
X153887715Y-136615714D01*
X153815143Y-136857619D01*
X153742572Y-136978571D01*
X153670001Y-137039048D01*
X153524858Y-137099524D01*
X153379715Y-137099524D01*
X153234572Y-137039048D01*
X153162001Y-136978571D01*
X153089429Y-136857619D01*
X153016858Y-136615714D01*
X153016858Y-136313333D01*
X153089429Y-136071429D01*
X153162001Y-135950476D01*
X153234572Y-135890000D01*
X153379715Y-135829524D01*
X95032286Y-55759048D02*
X95250000Y-55819524D01*
X95612857Y-55819524D01*
X95758000Y-55759048D01*
X95830571Y-55698571D01*
X95903143Y-55577619D01*
X95903143Y-55456667D01*
X95830571Y-55335714D01*
X95758000Y-55275238D01*
X95612857Y-55214762D01*
X95322571Y-55154286D01*
X95177429Y-55093810D01*
X95104857Y-55033333D01*
X95032286Y-54912381D01*
X95032286Y-54791429D01*
X95104857Y-54670476D01*
X95177429Y-54610000D01*
X95322571Y-54549524D01*
X95685429Y-54549524D01*
X95903143Y-54610000D01*
X96411143Y-54549524D02*
X96774000Y-55819524D01*
X97064286Y-54912381D01*
X97354572Y-55819524D01*
X97717429Y-54549524D01*
X98225429Y-54670476D02*
X98298000Y-54610000D01*
X98443143Y-54549524D01*
X98806000Y-54549524D01*
X98951143Y-54610000D01*
X99023714Y-54670476D01*
X99096286Y-54791429D01*
X99096286Y-54912381D01*
X99023714Y-55093810D01*
X98152857Y-55819524D01*
X99096286Y-55819524D01*
X100547715Y-55819524D02*
X99676858Y-55819524D01*
X100112286Y-55819524D02*
X100112286Y-54549524D01*
X99967143Y-54730952D01*
X99822001Y-54851905D01*
X99676858Y-54912381D01*
X105192286Y-76079048D02*
X105410000Y-76139524D01*
X105772857Y-76139524D01*
X105918000Y-76079048D01*
X105990571Y-76018571D01*
X106063143Y-75897619D01*
X106063143Y-75776667D01*
X105990571Y-75655714D01*
X105918000Y-75595238D01*
X105772857Y-75534762D01*
X105482571Y-75474286D01*
X105337429Y-75413810D01*
X105264857Y-75353333D01*
X105192286Y-75232381D01*
X105192286Y-75111429D01*
X105264857Y-74990476D01*
X105337429Y-74930000D01*
X105482571Y-74869524D01*
X105845429Y-74869524D01*
X106063143Y-74930000D01*
X106571143Y-74869524D02*
X106934000Y-76139524D01*
X107224286Y-75232381D01*
X107514572Y-76139524D01*
X107877429Y-74869524D01*
X108385429Y-74990476D02*
X108458000Y-74930000D01*
X108603143Y-74869524D01*
X108966000Y-74869524D01*
X109111143Y-74930000D01*
X109183714Y-74990476D01*
X109256286Y-75111429D01*
X109256286Y-75232381D01*
X109183714Y-75413810D01*
X108312857Y-76139524D01*
X109256286Y-76139524D01*
X109836858Y-74990476D02*
X109909429Y-74930000D01*
X110054572Y-74869524D01*
X110417429Y-74869524D01*
X110562572Y-74930000D01*
X110635143Y-74990476D01*
X110707715Y-75111429D01*
X110707715Y-75232381D01*
X110635143Y-75413810D01*
X109764286Y-76139524D01*
X110707715Y-76139524D01*
X110272286Y-96399048D02*
X110490000Y-96459524D01*
X110852857Y-96459524D01*
X110998000Y-96399048D01*
X111070571Y-96338571D01*
X111143143Y-96217619D01*
X111143143Y-96096667D01*
X111070571Y-95975714D01*
X110998000Y-95915238D01*
X110852857Y-95854762D01*
X110562571Y-95794286D01*
X110417429Y-95733810D01*
X110344857Y-95673333D01*
X110272286Y-95552381D01*
X110272286Y-95431429D01*
X110344857Y-95310476D01*
X110417429Y-95250000D01*
X110562571Y-95189524D01*
X110925429Y-95189524D01*
X111143143Y-95250000D01*
X111651143Y-95189524D02*
X112014000Y-96459524D01*
X112304286Y-95552381D01*
X112594572Y-96459524D01*
X112957429Y-95189524D01*
X113465429Y-95310476D02*
X113538000Y-95250000D01*
X113683143Y-95189524D01*
X114046000Y-95189524D01*
X114191143Y-95250000D01*
X114263714Y-95310476D01*
X114336286Y-95431429D01*
X114336286Y-95552381D01*
X114263714Y-95733810D01*
X113392857Y-96459524D01*
X114336286Y-96459524D01*
X114844286Y-95189524D02*
X115787715Y-95189524D01*
X115279715Y-95673333D01*
X115497429Y-95673333D01*
X115642572Y-95733810D01*
X115715143Y-95794286D01*
X115787715Y-95915238D01*
X115787715Y-96217619D01*
X115715143Y-96338571D01*
X115642572Y-96399048D01*
X115497429Y-96459524D01*
X115062001Y-96459524D01*
X114916858Y-96399048D01*
X114844286Y-96338571D01*
X115352286Y-116719048D02*
X115570000Y-116779524D01*
X115932857Y-116779524D01*
X116078000Y-116719048D01*
X116150571Y-116658571D01*
X116223143Y-116537619D01*
X116223143Y-116416667D01*
X116150571Y-116295714D01*
X116078000Y-116235238D01*
X115932857Y-116174762D01*
X115642571Y-116114286D01*
X115497429Y-116053810D01*
X115424857Y-115993333D01*
X115352286Y-115872381D01*
X115352286Y-115751429D01*
X115424857Y-115630476D01*
X115497429Y-115570000D01*
X115642571Y-115509524D01*
X116005429Y-115509524D01*
X116223143Y-115570000D01*
X116731143Y-115509524D02*
X117094000Y-116779524D01*
X117384286Y-115872381D01*
X117674572Y-116779524D01*
X118037429Y-115509524D01*
X118545429Y-115630476D02*
X118618000Y-115570000D01*
X118763143Y-115509524D01*
X119126000Y-115509524D01*
X119271143Y-115570000D01*
X119343714Y-115630476D01*
X119416286Y-115751429D01*
X119416286Y-115872381D01*
X119343714Y-116053810D01*
X118472857Y-116779524D01*
X119416286Y-116779524D01*
X120722572Y-115932857D02*
X120722572Y-116779524D01*
X120359715Y-115449048D02*
X119996858Y-116356190D01*
X120940286Y-116356190D01*
X115352286Y-55759048D02*
X115570000Y-55819524D01*
X115932857Y-55819524D01*
X116078000Y-55759048D01*
X116150571Y-55698571D01*
X116223143Y-55577619D01*
X116223143Y-55456667D01*
X116150571Y-55335714D01*
X116078000Y-55275238D01*
X115932857Y-55214762D01*
X115642571Y-55154286D01*
X115497429Y-55093810D01*
X115424857Y-55033333D01*
X115352286Y-54912381D01*
X115352286Y-54791429D01*
X115424857Y-54670476D01*
X115497429Y-54610000D01*
X115642571Y-54549524D01*
X116005429Y-54549524D01*
X116223143Y-54610000D01*
X116731143Y-54549524D02*
X117094000Y-55819524D01*
X117384286Y-54912381D01*
X117674572Y-55819524D01*
X118037429Y-54549524D01*
X118545429Y-54670476D02*
X118618000Y-54610000D01*
X118763143Y-54549524D01*
X119126000Y-54549524D01*
X119271143Y-54610000D01*
X119343714Y-54670476D01*
X119416286Y-54791429D01*
X119416286Y-54912381D01*
X119343714Y-55093810D01*
X118472857Y-55819524D01*
X119416286Y-55819524D01*
X120722572Y-54549524D02*
X120432286Y-54549524D01*
X120287143Y-54610000D01*
X120214572Y-54670476D01*
X120069429Y-54851905D01*
X119996858Y-55093810D01*
X119996858Y-55577619D01*
X120069429Y-55698571D01*
X120142001Y-55759048D01*
X120287143Y-55819524D01*
X120577429Y-55819524D01*
X120722572Y-55759048D01*
X120795143Y-55698571D01*
X120867715Y-55577619D01*
X120867715Y-55275238D01*
X120795143Y-55154286D01*
X120722572Y-55093810D01*
X120577429Y-55033333D01*
X120287143Y-55033333D01*
X120142001Y-55093810D01*
X120069429Y-55154286D01*
X119996858Y-55275238D01*
X125512286Y-76079048D02*
X125730000Y-76139524D01*
X126092857Y-76139524D01*
X126238000Y-76079048D01*
X126310571Y-76018571D01*
X126383143Y-75897619D01*
X126383143Y-75776667D01*
X126310571Y-75655714D01*
X126238000Y-75595238D01*
X126092857Y-75534762D01*
X125802571Y-75474286D01*
X125657429Y-75413810D01*
X125584857Y-75353333D01*
X125512286Y-75232381D01*
X125512286Y-75111429D01*
X125584857Y-74990476D01*
X125657429Y-74930000D01*
X125802571Y-74869524D01*
X126165429Y-74869524D01*
X126383143Y-74930000D01*
X126891143Y-74869524D02*
X127254000Y-76139524D01*
X127544286Y-75232381D01*
X127834572Y-76139524D01*
X128197429Y-74869524D01*
X128705429Y-74990476D02*
X128778000Y-74930000D01*
X128923143Y-74869524D01*
X129286000Y-74869524D01*
X129431143Y-74930000D01*
X129503714Y-74990476D01*
X129576286Y-75111429D01*
X129576286Y-75232381D01*
X129503714Y-75413810D01*
X128632857Y-76139524D01*
X129576286Y-76139524D01*
X130084286Y-74869524D02*
X131100286Y-74869524D01*
X130447143Y-76139524D01*
X130592286Y-96399048D02*
X130810000Y-96459524D01*
X131172857Y-96459524D01*
X131318000Y-96399048D01*
X131390571Y-96338571D01*
X131463143Y-96217619D01*
X131463143Y-96096667D01*
X131390571Y-95975714D01*
X131318000Y-95915238D01*
X131172857Y-95854762D01*
X130882571Y-95794286D01*
X130737429Y-95733810D01*
X130664857Y-95673333D01*
X130592286Y-95552381D01*
X130592286Y-95431429D01*
X130664857Y-95310476D01*
X130737429Y-95250000D01*
X130882571Y-95189524D01*
X131245429Y-95189524D01*
X131463143Y-95250000D01*
X131971143Y-95189524D02*
X132334000Y-96459524D01*
X132624286Y-95552381D01*
X132914572Y-96459524D01*
X133277429Y-95189524D01*
X133785429Y-95310476D02*
X133858000Y-95250000D01*
X134003143Y-95189524D01*
X134366000Y-95189524D01*
X134511143Y-95250000D01*
X134583714Y-95310476D01*
X134656286Y-95431429D01*
X134656286Y-95552381D01*
X134583714Y-95733810D01*
X133712857Y-96459524D01*
X134656286Y-96459524D01*
X135527143Y-95733810D02*
X135382001Y-95673333D01*
X135309429Y-95612857D01*
X135236858Y-95491905D01*
X135236858Y-95431429D01*
X135309429Y-95310476D01*
X135382001Y-95250000D01*
X135527143Y-95189524D01*
X135817429Y-95189524D01*
X135962572Y-95250000D01*
X136035143Y-95310476D01*
X136107715Y-95431429D01*
X136107715Y-95491905D01*
X136035143Y-95612857D01*
X135962572Y-95673333D01*
X135817429Y-95733810D01*
X135527143Y-95733810D01*
X135382001Y-95794286D01*
X135309429Y-95854762D01*
X135236858Y-95975714D01*
X135236858Y-96217619D01*
X135309429Y-96338571D01*
X135382001Y-96399048D01*
X135527143Y-96459524D01*
X135817429Y-96459524D01*
X135962572Y-96399048D01*
X136035143Y-96338571D01*
X136107715Y-96217619D01*
X136107715Y-95975714D01*
X136035143Y-95854762D01*
X135962572Y-95794286D01*
X135817429Y-95733810D01*
X135672286Y-116719048D02*
X135890000Y-116779524D01*
X136252857Y-116779524D01*
X136398000Y-116719048D01*
X136470571Y-116658571D01*
X136543143Y-116537619D01*
X136543143Y-116416667D01*
X136470571Y-116295714D01*
X136398000Y-116235238D01*
X136252857Y-116174762D01*
X135962571Y-116114286D01*
X135817429Y-116053810D01*
X135744857Y-115993333D01*
X135672286Y-115872381D01*
X135672286Y-115751429D01*
X135744857Y-115630476D01*
X135817429Y-115570000D01*
X135962571Y-115509524D01*
X136325429Y-115509524D01*
X136543143Y-115570000D01*
X137051143Y-115509524D02*
X137414000Y-116779524D01*
X137704286Y-115872381D01*
X137994572Y-116779524D01*
X138357429Y-115509524D01*
X138865429Y-115630476D02*
X138938000Y-115570000D01*
X139083143Y-115509524D01*
X139446000Y-115509524D01*
X139591143Y-115570000D01*
X139663714Y-115630476D01*
X139736286Y-115751429D01*
X139736286Y-115872381D01*
X139663714Y-116053810D01*
X138792857Y-116779524D01*
X139736286Y-116779524D01*
X140462001Y-116779524D02*
X140752286Y-116779524D01*
X140897429Y-116719048D01*
X140970001Y-116658571D01*
X141115143Y-116477143D01*
X141187715Y-116235238D01*
X141187715Y-115751429D01*
X141115143Y-115630476D01*
X141042572Y-115570000D01*
X140897429Y-115509524D01*
X140607143Y-115509524D01*
X140462001Y-115570000D01*
X140389429Y-115630476D01*
X140316858Y-115751429D01*
X140316858Y-116053810D01*
X140389429Y-116174762D01*
X140462001Y-116235238D01*
X140607143Y-116295714D01*
X140897429Y-116295714D01*
X141042572Y-116235238D01*
X141115143Y-116174762D01*
X141187715Y-116053810D01*
X220762286Y-137039048D02*
X220980000Y-137099524D01*
X221342857Y-137099524D01*
X221488000Y-137039048D01*
X221560571Y-136978571D01*
X221633143Y-136857619D01*
X221633143Y-136736667D01*
X221560571Y-136615714D01*
X221488000Y-136555238D01*
X221342857Y-136494762D01*
X221052571Y-136434286D01*
X220907429Y-136373810D01*
X220834857Y-136313333D01*
X220762286Y-136192381D01*
X220762286Y-136071429D01*
X220834857Y-135950476D01*
X220907429Y-135890000D01*
X221052571Y-135829524D01*
X221415429Y-135829524D01*
X221633143Y-135890000D01*
X222141143Y-135829524D02*
X222504000Y-137099524D01*
X222794286Y-136192381D01*
X223084572Y-137099524D01*
X223447429Y-135829524D01*
X223882857Y-135829524D02*
X224826286Y-135829524D01*
X224318286Y-136313333D01*
X224536000Y-136313333D01*
X224681143Y-136373810D01*
X224753714Y-136434286D01*
X224826286Y-136555238D01*
X224826286Y-136857619D01*
X224753714Y-136978571D01*
X224681143Y-137039048D01*
X224536000Y-137099524D01*
X224100572Y-137099524D01*
X223955429Y-137039048D01*
X223882857Y-136978571D01*
X225769715Y-135829524D02*
X225914858Y-135829524D01*
X226060001Y-135890000D01*
X226132572Y-135950476D01*
X226205143Y-136071429D01*
X226277715Y-136313333D01*
X226277715Y-136615714D01*
X226205143Y-136857619D01*
X226132572Y-136978571D01*
X226060001Y-137039048D01*
X225914858Y-137099524D01*
X225769715Y-137099524D01*
X225624572Y-137039048D01*
X225552001Y-136978571D01*
X225479429Y-136857619D01*
X225406858Y-136615714D01*
X225406858Y-136313333D01*
X225479429Y-136071429D01*
X225552001Y-135950476D01*
X225624572Y-135890000D01*
X225769715Y-135829524D01*
X135672286Y-55759048D02*
X135890000Y-55819524D01*
X136252857Y-55819524D01*
X136398000Y-55759048D01*
X136470571Y-55698571D01*
X136543143Y-55577619D01*
X136543143Y-55456667D01*
X136470571Y-55335714D01*
X136398000Y-55275238D01*
X136252857Y-55214762D01*
X135962571Y-55154286D01*
X135817429Y-55093810D01*
X135744857Y-55033333D01*
X135672286Y-54912381D01*
X135672286Y-54791429D01*
X135744857Y-54670476D01*
X135817429Y-54610000D01*
X135962571Y-54549524D01*
X136325429Y-54549524D01*
X136543143Y-54610000D01*
X137051143Y-54549524D02*
X137414000Y-55819524D01*
X137704286Y-54912381D01*
X137994572Y-55819524D01*
X138357429Y-54549524D01*
X138792857Y-54549524D02*
X139736286Y-54549524D01*
X139228286Y-55033333D01*
X139446000Y-55033333D01*
X139591143Y-55093810D01*
X139663714Y-55154286D01*
X139736286Y-55275238D01*
X139736286Y-55577619D01*
X139663714Y-55698571D01*
X139591143Y-55759048D01*
X139446000Y-55819524D01*
X139010572Y-55819524D01*
X138865429Y-55759048D01*
X138792857Y-55698571D01*
X141187715Y-55819524D02*
X140316858Y-55819524D01*
X140752286Y-55819524D02*
X140752286Y-54549524D01*
X140607143Y-54730952D01*
X140462001Y-54851905D01*
X140316858Y-54912381D01*
X145832286Y-76079048D02*
X146050000Y-76139524D01*
X146412857Y-76139524D01*
X146558000Y-76079048D01*
X146630571Y-76018571D01*
X146703143Y-75897619D01*
X146703143Y-75776667D01*
X146630571Y-75655714D01*
X146558000Y-75595238D01*
X146412857Y-75534762D01*
X146122571Y-75474286D01*
X145977429Y-75413810D01*
X145904857Y-75353333D01*
X145832286Y-75232381D01*
X145832286Y-75111429D01*
X145904857Y-74990476D01*
X145977429Y-74930000D01*
X146122571Y-74869524D01*
X146485429Y-74869524D01*
X146703143Y-74930000D01*
X147211143Y-74869524D02*
X147574000Y-76139524D01*
X147864286Y-75232381D01*
X148154572Y-76139524D01*
X148517429Y-74869524D01*
X148952857Y-74869524D02*
X149896286Y-74869524D01*
X149388286Y-75353333D01*
X149606000Y-75353333D01*
X149751143Y-75413810D01*
X149823714Y-75474286D01*
X149896286Y-75595238D01*
X149896286Y-75897619D01*
X149823714Y-76018571D01*
X149751143Y-76079048D01*
X149606000Y-76139524D01*
X149170572Y-76139524D01*
X149025429Y-76079048D01*
X148952857Y-76018571D01*
X150476858Y-74990476D02*
X150549429Y-74930000D01*
X150694572Y-74869524D01*
X151057429Y-74869524D01*
X151202572Y-74930000D01*
X151275143Y-74990476D01*
X151347715Y-75111429D01*
X151347715Y-75232381D01*
X151275143Y-75413810D01*
X150404286Y-76139524D01*
X151347715Y-76139524D01*
X150912286Y-96399048D02*
X151130000Y-96459524D01*
X151492857Y-96459524D01*
X151638000Y-96399048D01*
X151710571Y-96338571D01*
X151783143Y-96217619D01*
X151783143Y-96096667D01*
X151710571Y-95975714D01*
X151638000Y-95915238D01*
X151492857Y-95854762D01*
X151202571Y-95794286D01*
X151057429Y-95733810D01*
X150984857Y-95673333D01*
X150912286Y-95552381D01*
X150912286Y-95431429D01*
X150984857Y-95310476D01*
X151057429Y-95250000D01*
X151202571Y-95189524D01*
X151565429Y-95189524D01*
X151783143Y-95250000D01*
X152291143Y-95189524D02*
X152654000Y-96459524D01*
X152944286Y-95552381D01*
X153234572Y-96459524D01*
X153597429Y-95189524D01*
X154032857Y-95189524D02*
X154976286Y-95189524D01*
X154468286Y-95673333D01*
X154686000Y-95673333D01*
X154831143Y-95733810D01*
X154903714Y-95794286D01*
X154976286Y-95915238D01*
X154976286Y-96217619D01*
X154903714Y-96338571D01*
X154831143Y-96399048D01*
X154686000Y-96459524D01*
X154250572Y-96459524D01*
X154105429Y-96399048D01*
X154032857Y-96338571D01*
X155484286Y-95189524D02*
X156427715Y-95189524D01*
X155919715Y-95673333D01*
X156137429Y-95673333D01*
X156282572Y-95733810D01*
X156355143Y-95794286D01*
X156427715Y-95915238D01*
X156427715Y-96217619D01*
X156355143Y-96338571D01*
X156282572Y-96399048D01*
X156137429Y-96459524D01*
X155702001Y-96459524D01*
X155556858Y-96399048D01*
X155484286Y-96338571D01*
X155992286Y-116719048D02*
X156210000Y-116779524D01*
X156572857Y-116779524D01*
X156718000Y-116719048D01*
X156790571Y-116658571D01*
X156863143Y-116537619D01*
X156863143Y-116416667D01*
X156790571Y-116295714D01*
X156718000Y-116235238D01*
X156572857Y-116174762D01*
X156282571Y-116114286D01*
X156137429Y-116053810D01*
X156064857Y-115993333D01*
X155992286Y-115872381D01*
X155992286Y-115751429D01*
X156064857Y-115630476D01*
X156137429Y-115570000D01*
X156282571Y-115509524D01*
X156645429Y-115509524D01*
X156863143Y-115570000D01*
X157371143Y-115509524D02*
X157734000Y-116779524D01*
X158024286Y-115872381D01*
X158314572Y-116779524D01*
X158677429Y-115509524D01*
X159112857Y-115509524D02*
X160056286Y-115509524D01*
X159548286Y-115993333D01*
X159766000Y-115993333D01*
X159911143Y-116053810D01*
X159983714Y-116114286D01*
X160056286Y-116235238D01*
X160056286Y-116537619D01*
X159983714Y-116658571D01*
X159911143Y-116719048D01*
X159766000Y-116779524D01*
X159330572Y-116779524D01*
X159185429Y-116719048D01*
X159112857Y-116658571D01*
X161362572Y-115932857D02*
X161362572Y-116779524D01*
X160999715Y-115449048D02*
X160636858Y-116356190D01*
X161580286Y-116356190D01*
X246162286Y-137039048D02*
X246380000Y-137099524D01*
X246742857Y-137099524D01*
X246888000Y-137039048D01*
X246960571Y-136978571D01*
X247033143Y-136857619D01*
X247033143Y-136736667D01*
X246960571Y-136615714D01*
X246888000Y-136555238D01*
X246742857Y-136494762D01*
X246452571Y-136434286D01*
X246307429Y-136373810D01*
X246234857Y-136313333D01*
X246162286Y-136192381D01*
X246162286Y-136071429D01*
X246234857Y-135950476D01*
X246307429Y-135890000D01*
X246452571Y-135829524D01*
X246815429Y-135829524D01*
X247033143Y-135890000D01*
X247541143Y-135829524D02*
X247904000Y-137099524D01*
X248194286Y-136192381D01*
X248484572Y-137099524D01*
X248847429Y-135829524D01*
X249282857Y-135829524D02*
X250226286Y-135829524D01*
X249718286Y-136313333D01*
X249936000Y-136313333D01*
X250081143Y-136373810D01*
X250153714Y-136434286D01*
X250226286Y-136555238D01*
X250226286Y-136857619D01*
X250153714Y-136978571D01*
X250081143Y-137039048D01*
X249936000Y-137099524D01*
X249500572Y-137099524D01*
X249355429Y-137039048D01*
X249282857Y-136978571D01*
X251605143Y-135829524D02*
X250879429Y-135829524D01*
X250806858Y-136434286D01*
X250879429Y-136373810D01*
X251024572Y-136313333D01*
X251387429Y-136313333D01*
X251532572Y-136373810D01*
X251605143Y-136434286D01*
X251677715Y-136555238D01*
X251677715Y-136857619D01*
X251605143Y-136978571D01*
X251532572Y-137039048D01*
X251387429Y-137099524D01*
X251024572Y-137099524D01*
X250879429Y-137039048D01*
X250806858Y-136978571D01*
X155992286Y-55759048D02*
X156210000Y-55819524D01*
X156572857Y-55819524D01*
X156718000Y-55759048D01*
X156790571Y-55698571D01*
X156863143Y-55577619D01*
X156863143Y-55456667D01*
X156790571Y-55335714D01*
X156718000Y-55275238D01*
X156572857Y-55214762D01*
X156282571Y-55154286D01*
X156137429Y-55093810D01*
X156064857Y-55033333D01*
X155992286Y-54912381D01*
X155992286Y-54791429D01*
X156064857Y-54670476D01*
X156137429Y-54610000D01*
X156282571Y-54549524D01*
X156645429Y-54549524D01*
X156863143Y-54610000D01*
X157371143Y-54549524D02*
X157734000Y-55819524D01*
X158024286Y-54912381D01*
X158314572Y-55819524D01*
X158677429Y-54549524D01*
X159112857Y-54549524D02*
X160056286Y-54549524D01*
X159548286Y-55033333D01*
X159766000Y-55033333D01*
X159911143Y-55093810D01*
X159983714Y-55154286D01*
X160056286Y-55275238D01*
X160056286Y-55577619D01*
X159983714Y-55698571D01*
X159911143Y-55759048D01*
X159766000Y-55819524D01*
X159330572Y-55819524D01*
X159185429Y-55759048D01*
X159112857Y-55698571D01*
X161362572Y-54549524D02*
X161072286Y-54549524D01*
X160927143Y-54610000D01*
X160854572Y-54670476D01*
X160709429Y-54851905D01*
X160636858Y-55093810D01*
X160636858Y-55577619D01*
X160709429Y-55698571D01*
X160782001Y-55759048D01*
X160927143Y-55819524D01*
X161217429Y-55819524D01*
X161362572Y-55759048D01*
X161435143Y-55698571D01*
X161507715Y-55577619D01*
X161507715Y-55275238D01*
X161435143Y-55154286D01*
X161362572Y-55093810D01*
X161217429Y-55033333D01*
X160927143Y-55033333D01*
X160782001Y-55093810D01*
X160709429Y-55154286D01*
X160636858Y-55275238D01*
X166152286Y-76079048D02*
X166370000Y-76139524D01*
X166732857Y-76139524D01*
X166878000Y-76079048D01*
X166950571Y-76018571D01*
X167023143Y-75897619D01*
X167023143Y-75776667D01*
X166950571Y-75655714D01*
X166878000Y-75595238D01*
X166732857Y-75534762D01*
X166442571Y-75474286D01*
X166297429Y-75413810D01*
X166224857Y-75353333D01*
X166152286Y-75232381D01*
X166152286Y-75111429D01*
X166224857Y-74990476D01*
X166297429Y-74930000D01*
X166442571Y-74869524D01*
X166805429Y-74869524D01*
X167023143Y-74930000D01*
X167531143Y-74869524D02*
X167894000Y-76139524D01*
X168184286Y-75232381D01*
X168474572Y-76139524D01*
X168837429Y-74869524D01*
X169272857Y-74869524D02*
X170216286Y-74869524D01*
X169708286Y-75353333D01*
X169926000Y-75353333D01*
X170071143Y-75413810D01*
X170143714Y-75474286D01*
X170216286Y-75595238D01*
X170216286Y-75897619D01*
X170143714Y-76018571D01*
X170071143Y-76079048D01*
X169926000Y-76139524D01*
X169490572Y-76139524D01*
X169345429Y-76079048D01*
X169272857Y-76018571D01*
X170724286Y-74869524D02*
X171740286Y-74869524D01*
X171087143Y-76139524D01*
X171232286Y-96399048D02*
X171450000Y-96459524D01*
X171812857Y-96459524D01*
X171958000Y-96399048D01*
X172030571Y-96338571D01*
X172103143Y-96217619D01*
X172103143Y-96096667D01*
X172030571Y-95975714D01*
X171958000Y-95915238D01*
X171812857Y-95854762D01*
X171522571Y-95794286D01*
X171377429Y-95733810D01*
X171304857Y-95673333D01*
X171232286Y-95552381D01*
X171232286Y-95431429D01*
X171304857Y-95310476D01*
X171377429Y-95250000D01*
X171522571Y-95189524D01*
X171885429Y-95189524D01*
X172103143Y-95250000D01*
X172611143Y-95189524D02*
X172974000Y-96459524D01*
X173264286Y-95552381D01*
X173554572Y-96459524D01*
X173917429Y-95189524D01*
X174352857Y-95189524D02*
X175296286Y-95189524D01*
X174788286Y-95673333D01*
X175006000Y-95673333D01*
X175151143Y-95733810D01*
X175223714Y-95794286D01*
X175296286Y-95915238D01*
X175296286Y-96217619D01*
X175223714Y-96338571D01*
X175151143Y-96399048D01*
X175006000Y-96459524D01*
X174570572Y-96459524D01*
X174425429Y-96399048D01*
X174352857Y-96338571D01*
X176167143Y-95733810D02*
X176022001Y-95673333D01*
X175949429Y-95612857D01*
X175876858Y-95491905D01*
X175876858Y-95431429D01*
X175949429Y-95310476D01*
X176022001Y-95250000D01*
X176167143Y-95189524D01*
X176457429Y-95189524D01*
X176602572Y-95250000D01*
X176675143Y-95310476D01*
X176747715Y-95431429D01*
X176747715Y-95491905D01*
X176675143Y-95612857D01*
X176602572Y-95673333D01*
X176457429Y-95733810D01*
X176167143Y-95733810D01*
X176022001Y-95794286D01*
X175949429Y-95854762D01*
X175876858Y-95975714D01*
X175876858Y-96217619D01*
X175949429Y-96338571D01*
X176022001Y-96399048D01*
X176167143Y-96459524D01*
X176457429Y-96459524D01*
X176602572Y-96399048D01*
X176675143Y-96338571D01*
X176747715Y-96217619D01*
X176747715Y-95975714D01*
X176675143Y-95854762D01*
X176602572Y-95794286D01*
X176457429Y-95733810D01*
X176312286Y-116719048D02*
X176530000Y-116779524D01*
X176892857Y-116779524D01*
X177038000Y-116719048D01*
X177110571Y-116658571D01*
X177183143Y-116537619D01*
X177183143Y-116416667D01*
X177110571Y-116295714D01*
X177038000Y-116235238D01*
X176892857Y-116174762D01*
X176602571Y-116114286D01*
X176457429Y-116053810D01*
X176384857Y-115993333D01*
X176312286Y-115872381D01*
X176312286Y-115751429D01*
X176384857Y-115630476D01*
X176457429Y-115570000D01*
X176602571Y-115509524D01*
X176965429Y-115509524D01*
X177183143Y-115570000D01*
X177691143Y-115509524D02*
X178054000Y-116779524D01*
X178344286Y-115872381D01*
X178634572Y-116779524D01*
X178997429Y-115509524D01*
X179432857Y-115509524D02*
X180376286Y-115509524D01*
X179868286Y-115993333D01*
X180086000Y-115993333D01*
X180231143Y-116053810D01*
X180303714Y-116114286D01*
X180376286Y-116235238D01*
X180376286Y-116537619D01*
X180303714Y-116658571D01*
X180231143Y-116719048D01*
X180086000Y-116779524D01*
X179650572Y-116779524D01*
X179505429Y-116719048D01*
X179432857Y-116658571D01*
X181102001Y-116779524D02*
X181392286Y-116779524D01*
X181537429Y-116719048D01*
X181610001Y-116658571D01*
X181755143Y-116477143D01*
X181827715Y-116235238D01*
X181827715Y-115751429D01*
X181755143Y-115630476D01*
X181682572Y-115570000D01*
X181537429Y-115509524D01*
X181247143Y-115509524D01*
X181102001Y-115570000D01*
X181029429Y-115630476D01*
X180956858Y-115751429D01*
X180956858Y-116053810D01*
X181029429Y-116174762D01*
X181102001Y-116235238D01*
X181247143Y-116295714D01*
X181537429Y-116295714D01*
X181682572Y-116235238D01*
X181755143Y-116174762D01*
X181827715Y-116053810D01*
X271562286Y-137039048D02*
X271780000Y-137099524D01*
X272142857Y-137099524D01*
X272288000Y-137039048D01*
X272360571Y-136978571D01*
X272433143Y-136857619D01*
X272433143Y-136736667D01*
X272360571Y-136615714D01*
X272288000Y-136555238D01*
X272142857Y-136494762D01*
X271852571Y-136434286D01*
X271707429Y-136373810D01*
X271634857Y-136313333D01*
X271562286Y-136192381D01*
X271562286Y-136071429D01*
X271634857Y-135950476D01*
X271707429Y-135890000D01*
X271852571Y-135829524D01*
X272215429Y-135829524D01*
X272433143Y-135890000D01*
X272941143Y-135829524D02*
X273304000Y-137099524D01*
X273594286Y-136192381D01*
X273884572Y-137099524D01*
X274247429Y-135829524D01*
X275481143Y-136252857D02*
X275481143Y-137099524D01*
X275118286Y-135769048D02*
X274755429Y-136676190D01*
X275698857Y-136676190D01*
X276569715Y-135829524D02*
X276714858Y-135829524D01*
X276860001Y-135890000D01*
X276932572Y-135950476D01*
X277005143Y-136071429D01*
X277077715Y-136313333D01*
X277077715Y-136615714D01*
X277005143Y-136857619D01*
X276932572Y-136978571D01*
X276860001Y-137039048D01*
X276714858Y-137099524D01*
X276569715Y-137099524D01*
X276424572Y-137039048D01*
X276352001Y-136978571D01*
X276279429Y-136857619D01*
X276206858Y-136615714D01*
X276206858Y-136313333D01*
X276279429Y-136071429D01*
X276352001Y-135950476D01*
X276424572Y-135890000D01*
X276569715Y-135829524D01*
X176312286Y-55759048D02*
X176530000Y-55819524D01*
X176892857Y-55819524D01*
X177038000Y-55759048D01*
X177110571Y-55698571D01*
X177183143Y-55577619D01*
X177183143Y-55456667D01*
X177110571Y-55335714D01*
X177038000Y-55275238D01*
X176892857Y-55214762D01*
X176602571Y-55154286D01*
X176457429Y-55093810D01*
X176384857Y-55033333D01*
X176312286Y-54912381D01*
X176312286Y-54791429D01*
X176384857Y-54670476D01*
X176457429Y-54610000D01*
X176602571Y-54549524D01*
X176965429Y-54549524D01*
X177183143Y-54610000D01*
X177691143Y-54549524D02*
X178054000Y-55819524D01*
X178344286Y-54912381D01*
X178634572Y-55819524D01*
X178997429Y-54549524D01*
X180231143Y-54972857D02*
X180231143Y-55819524D01*
X179868286Y-54489048D02*
X179505429Y-55396190D01*
X180448857Y-55396190D01*
X181827715Y-55819524D02*
X180956858Y-55819524D01*
X181392286Y-55819524D02*
X181392286Y-54549524D01*
X181247143Y-54730952D01*
X181102001Y-54851905D01*
X180956858Y-54912381D01*
X186472286Y-76079048D02*
X186690000Y-76139524D01*
X187052857Y-76139524D01*
X187198000Y-76079048D01*
X187270571Y-76018571D01*
X187343143Y-75897619D01*
X187343143Y-75776667D01*
X187270571Y-75655714D01*
X187198000Y-75595238D01*
X187052857Y-75534762D01*
X186762571Y-75474286D01*
X186617429Y-75413810D01*
X186544857Y-75353333D01*
X186472286Y-75232381D01*
X186472286Y-75111429D01*
X186544857Y-74990476D01*
X186617429Y-74930000D01*
X186762571Y-74869524D01*
X187125429Y-74869524D01*
X187343143Y-74930000D01*
X187851143Y-74869524D02*
X188214000Y-76139524D01*
X188504286Y-75232381D01*
X188794572Y-76139524D01*
X189157429Y-74869524D01*
X190391143Y-75292857D02*
X190391143Y-76139524D01*
X190028286Y-74809048D02*
X189665429Y-75716190D01*
X190608857Y-75716190D01*
X191116858Y-74990476D02*
X191189429Y-74930000D01*
X191334572Y-74869524D01*
X191697429Y-74869524D01*
X191842572Y-74930000D01*
X191915143Y-74990476D01*
X191987715Y-75111429D01*
X191987715Y-75232381D01*
X191915143Y-75413810D01*
X191044286Y-76139524D01*
X191987715Y-76139524D01*
X191552286Y-96399048D02*
X191770000Y-96459524D01*
X192132857Y-96459524D01*
X192278000Y-96399048D01*
X192350571Y-96338571D01*
X192423143Y-96217619D01*
X192423143Y-96096667D01*
X192350571Y-95975714D01*
X192278000Y-95915238D01*
X192132857Y-95854762D01*
X191842571Y-95794286D01*
X191697429Y-95733810D01*
X191624857Y-95673333D01*
X191552286Y-95552381D01*
X191552286Y-95431429D01*
X191624857Y-95310476D01*
X191697429Y-95250000D01*
X191842571Y-95189524D01*
X192205429Y-95189524D01*
X192423143Y-95250000D01*
X192931143Y-95189524D02*
X193294000Y-96459524D01*
X193584286Y-95552381D01*
X193874572Y-96459524D01*
X194237429Y-95189524D01*
X195471143Y-95612857D02*
X195471143Y-96459524D01*
X195108286Y-95129048D02*
X194745429Y-96036190D01*
X195688857Y-96036190D01*
X196124286Y-95189524D02*
X197067715Y-95189524D01*
X196559715Y-95673333D01*
X196777429Y-95673333D01*
X196922572Y-95733810D01*
X196995143Y-95794286D01*
X197067715Y-95915238D01*
X197067715Y-96217619D01*
X196995143Y-96338571D01*
X196922572Y-96399048D01*
X196777429Y-96459524D01*
X196342001Y-96459524D01*
X196196858Y-96399048D01*
X196124286Y-96338571D01*
X196632286Y-116719048D02*
X196850000Y-116779524D01*
X197212857Y-116779524D01*
X197358000Y-116719048D01*
X197430571Y-116658571D01*
X197503143Y-116537619D01*
X197503143Y-116416667D01*
X197430571Y-116295714D01*
X197358000Y-116235238D01*
X197212857Y-116174762D01*
X196922571Y-116114286D01*
X196777429Y-116053810D01*
X196704857Y-115993333D01*
X196632286Y-115872381D01*
X196632286Y-115751429D01*
X196704857Y-115630476D01*
X196777429Y-115570000D01*
X196922571Y-115509524D01*
X197285429Y-115509524D01*
X197503143Y-115570000D01*
X198011143Y-115509524D02*
X198374000Y-116779524D01*
X198664286Y-115872381D01*
X198954572Y-116779524D01*
X199317429Y-115509524D01*
X200551143Y-115932857D02*
X200551143Y-116779524D01*
X200188286Y-115449048D02*
X199825429Y-116356190D01*
X200768857Y-116356190D01*
X202002572Y-115932857D02*
X202002572Y-116779524D01*
X201639715Y-115449048D02*
X201276858Y-116356190D01*
X202220286Y-116356190D01*
X196632286Y-55759048D02*
X196850000Y-55819524D01*
X197212857Y-55819524D01*
X197358000Y-55759048D01*
X197430571Y-55698571D01*
X197503143Y-55577619D01*
X197503143Y-55456667D01*
X197430571Y-55335714D01*
X197358000Y-55275238D01*
X197212857Y-55214762D01*
X196922571Y-55154286D01*
X196777429Y-55093810D01*
X196704857Y-55033333D01*
X196632286Y-54912381D01*
X196632286Y-54791429D01*
X196704857Y-54670476D01*
X196777429Y-54610000D01*
X196922571Y-54549524D01*
X197285429Y-54549524D01*
X197503143Y-54610000D01*
X198011143Y-54549524D02*
X198374000Y-55819524D01*
X198664286Y-54912381D01*
X198954572Y-55819524D01*
X199317429Y-54549524D01*
X200551143Y-54972857D02*
X200551143Y-55819524D01*
X200188286Y-54489048D02*
X199825429Y-55396190D01*
X200768857Y-55396190D01*
X202002572Y-54549524D02*
X201712286Y-54549524D01*
X201567143Y-54610000D01*
X201494572Y-54670476D01*
X201349429Y-54851905D01*
X201276858Y-55093810D01*
X201276858Y-55577619D01*
X201349429Y-55698571D01*
X201422001Y-55759048D01*
X201567143Y-55819524D01*
X201857429Y-55819524D01*
X202002572Y-55759048D01*
X202075143Y-55698571D01*
X202147715Y-55577619D01*
X202147715Y-55275238D01*
X202075143Y-55154286D01*
X202002572Y-55093810D01*
X201857429Y-55033333D01*
X201567143Y-55033333D01*
X201422001Y-55093810D01*
X201349429Y-55154286D01*
X201276858Y-55275238D01*
X206792286Y-76079048D02*
X207010000Y-76139524D01*
X207372857Y-76139524D01*
X207518000Y-76079048D01*
X207590571Y-76018571D01*
X207663143Y-75897619D01*
X207663143Y-75776667D01*
X207590571Y-75655714D01*
X207518000Y-75595238D01*
X207372857Y-75534762D01*
X207082571Y-75474286D01*
X206937429Y-75413810D01*
X206864857Y-75353333D01*
X206792286Y-75232381D01*
X206792286Y-75111429D01*
X206864857Y-74990476D01*
X206937429Y-74930000D01*
X207082571Y-74869524D01*
X207445429Y-74869524D01*
X207663143Y-74930000D01*
X208171143Y-74869524D02*
X208534000Y-76139524D01*
X208824286Y-75232381D01*
X209114572Y-76139524D01*
X209477429Y-74869524D01*
X210711143Y-75292857D02*
X210711143Y-76139524D01*
X210348286Y-74809048D02*
X209985429Y-75716190D01*
X210928857Y-75716190D01*
X211364286Y-74869524D02*
X212380286Y-74869524D01*
X211727143Y-76139524D01*
X211872286Y-96399048D02*
X212090000Y-96459524D01*
X212452857Y-96459524D01*
X212598000Y-96399048D01*
X212670571Y-96338571D01*
X212743143Y-96217619D01*
X212743143Y-96096667D01*
X212670571Y-95975714D01*
X212598000Y-95915238D01*
X212452857Y-95854762D01*
X212162571Y-95794286D01*
X212017429Y-95733810D01*
X211944857Y-95673333D01*
X211872286Y-95552381D01*
X211872286Y-95431429D01*
X211944857Y-95310476D01*
X212017429Y-95250000D01*
X212162571Y-95189524D01*
X212525429Y-95189524D01*
X212743143Y-95250000D01*
X213251143Y-95189524D02*
X213614000Y-96459524D01*
X213904286Y-95552381D01*
X214194572Y-96459524D01*
X214557429Y-95189524D01*
X215791143Y-95612857D02*
X215791143Y-96459524D01*
X215428286Y-95129048D02*
X215065429Y-96036190D01*
X216008857Y-96036190D01*
X216807143Y-95733810D02*
X216662001Y-95673333D01*
X216589429Y-95612857D01*
X216516858Y-95491905D01*
X216516858Y-95431429D01*
X216589429Y-95310476D01*
X216662001Y-95250000D01*
X216807143Y-95189524D01*
X217097429Y-95189524D01*
X217242572Y-95250000D01*
X217315143Y-95310476D01*
X217387715Y-95431429D01*
X217387715Y-95491905D01*
X217315143Y-95612857D01*
X217242572Y-95673333D01*
X217097429Y-95733810D01*
X216807143Y-95733810D01*
X216662001Y-95794286D01*
X216589429Y-95854762D01*
X216516858Y-95975714D01*
X216516858Y-96217619D01*
X216589429Y-96338571D01*
X216662001Y-96399048D01*
X216807143Y-96459524D01*
X217097429Y-96459524D01*
X217242572Y-96399048D01*
X217315143Y-96338571D01*
X217387715Y-96217619D01*
X217387715Y-95975714D01*
X217315143Y-95854762D01*
X217242572Y-95794286D01*
X217097429Y-95733810D01*
X216952286Y-116719048D02*
X217170000Y-116779524D01*
X217532857Y-116779524D01*
X217678000Y-116719048D01*
X217750571Y-116658571D01*
X217823143Y-116537619D01*
X217823143Y-116416667D01*
X217750571Y-116295714D01*
X217678000Y-116235238D01*
X217532857Y-116174762D01*
X217242571Y-116114286D01*
X217097429Y-116053810D01*
X217024857Y-115993333D01*
X216952286Y-115872381D01*
X216952286Y-115751429D01*
X217024857Y-115630476D01*
X217097429Y-115570000D01*
X217242571Y-115509524D01*
X217605429Y-115509524D01*
X217823143Y-115570000D01*
X218331143Y-115509524D02*
X218694000Y-116779524D01*
X218984286Y-115872381D01*
X219274572Y-116779524D01*
X219637429Y-115509524D01*
X220871143Y-115932857D02*
X220871143Y-116779524D01*
X220508286Y-115449048D02*
X220145429Y-116356190D01*
X221088857Y-116356190D01*
X221742001Y-116779524D02*
X222032286Y-116779524D01*
X222177429Y-116719048D01*
X222250001Y-116658571D01*
X222395143Y-116477143D01*
X222467715Y-116235238D01*
X222467715Y-115751429D01*
X222395143Y-115630476D01*
X222322572Y-115570000D01*
X222177429Y-115509524D01*
X221887143Y-115509524D01*
X221742001Y-115570000D01*
X221669429Y-115630476D01*
X221596858Y-115751429D01*
X221596858Y-116053810D01*
X221669429Y-116174762D01*
X221742001Y-116235238D01*
X221887143Y-116295714D01*
X222177429Y-116295714D01*
X222322572Y-116235238D01*
X222395143Y-116174762D01*
X222467715Y-116053810D01*
X216952286Y-55759048D02*
X217170000Y-55819524D01*
X217532857Y-55819524D01*
X217678000Y-55759048D01*
X217750571Y-55698571D01*
X217823143Y-55577619D01*
X217823143Y-55456667D01*
X217750571Y-55335714D01*
X217678000Y-55275238D01*
X217532857Y-55214762D01*
X217242571Y-55154286D01*
X217097429Y-55093810D01*
X217024857Y-55033333D01*
X216952286Y-54912381D01*
X216952286Y-54791429D01*
X217024857Y-54670476D01*
X217097429Y-54610000D01*
X217242571Y-54549524D01*
X217605429Y-54549524D01*
X217823143Y-54610000D01*
X218331143Y-54549524D02*
X218694000Y-55819524D01*
X218984286Y-54912381D01*
X219274572Y-55819524D01*
X219637429Y-54549524D01*
X220943714Y-54549524D02*
X220218000Y-54549524D01*
X220145429Y-55154286D01*
X220218000Y-55093810D01*
X220363143Y-55033333D01*
X220726000Y-55033333D01*
X220871143Y-55093810D01*
X220943714Y-55154286D01*
X221016286Y-55275238D01*
X221016286Y-55577619D01*
X220943714Y-55698571D01*
X220871143Y-55759048D01*
X220726000Y-55819524D01*
X220363143Y-55819524D01*
X220218000Y-55759048D01*
X220145429Y-55698571D01*
X222467715Y-55819524D02*
X221596858Y-55819524D01*
X222032286Y-55819524D02*
X222032286Y-54549524D01*
X221887143Y-54730952D01*
X221742001Y-54851905D01*
X221596858Y-54912381D01*
X227112286Y-76079048D02*
X227330000Y-76139524D01*
X227692857Y-76139524D01*
X227838000Y-76079048D01*
X227910571Y-76018571D01*
X227983143Y-75897619D01*
X227983143Y-75776667D01*
X227910571Y-75655714D01*
X227838000Y-75595238D01*
X227692857Y-75534762D01*
X227402571Y-75474286D01*
X227257429Y-75413810D01*
X227184857Y-75353333D01*
X227112286Y-75232381D01*
X227112286Y-75111429D01*
X227184857Y-74990476D01*
X227257429Y-74930000D01*
X227402571Y-74869524D01*
X227765429Y-74869524D01*
X227983143Y-74930000D01*
X228491143Y-74869524D02*
X228854000Y-76139524D01*
X229144286Y-75232381D01*
X229434572Y-76139524D01*
X229797429Y-74869524D01*
X231103714Y-74869524D02*
X230378000Y-74869524D01*
X230305429Y-75474286D01*
X230378000Y-75413810D01*
X230523143Y-75353333D01*
X230886000Y-75353333D01*
X231031143Y-75413810D01*
X231103714Y-75474286D01*
X231176286Y-75595238D01*
X231176286Y-75897619D01*
X231103714Y-76018571D01*
X231031143Y-76079048D01*
X230886000Y-76139524D01*
X230523143Y-76139524D01*
X230378000Y-76079048D01*
X230305429Y-76018571D01*
X231756858Y-74990476D02*
X231829429Y-74930000D01*
X231974572Y-74869524D01*
X232337429Y-74869524D01*
X232482572Y-74930000D01*
X232555143Y-74990476D01*
X232627715Y-75111429D01*
X232627715Y-75232381D01*
X232555143Y-75413810D01*
X231684286Y-76139524D01*
X232627715Y-76139524D01*
X232192286Y-96399048D02*
X232410000Y-96459524D01*
X232772857Y-96459524D01*
X232918000Y-96399048D01*
X232990571Y-96338571D01*
X233063143Y-96217619D01*
X233063143Y-96096667D01*
X232990571Y-95975714D01*
X232918000Y-95915238D01*
X232772857Y-95854762D01*
X232482571Y-95794286D01*
X232337429Y-95733810D01*
X232264857Y-95673333D01*
X232192286Y-95552381D01*
X232192286Y-95431429D01*
X232264857Y-95310476D01*
X232337429Y-95250000D01*
X232482571Y-95189524D01*
X232845429Y-95189524D01*
X233063143Y-95250000D01*
X233571143Y-95189524D02*
X233934000Y-96459524D01*
X234224286Y-95552381D01*
X234514572Y-96459524D01*
X234877429Y-95189524D01*
X236183714Y-95189524D02*
X235458000Y-95189524D01*
X235385429Y-95794286D01*
X235458000Y-95733810D01*
X235603143Y-95673333D01*
X235966000Y-95673333D01*
X236111143Y-95733810D01*
X236183714Y-95794286D01*
X236256286Y-95915238D01*
X236256286Y-96217619D01*
X236183714Y-96338571D01*
X236111143Y-96399048D01*
X235966000Y-96459524D01*
X235603143Y-96459524D01*
X235458000Y-96399048D01*
X235385429Y-96338571D01*
X236764286Y-95189524D02*
X237707715Y-95189524D01*
X237199715Y-95673333D01*
X237417429Y-95673333D01*
X237562572Y-95733810D01*
X237635143Y-95794286D01*
X237707715Y-95915238D01*
X237707715Y-96217619D01*
X237635143Y-96338571D01*
X237562572Y-96399048D01*
X237417429Y-96459524D01*
X236982001Y-96459524D01*
X236836858Y-96399048D01*
X236764286Y-96338571D01*
X237272286Y-116719048D02*
X237490000Y-116779524D01*
X237852857Y-116779524D01*
X237998000Y-116719048D01*
X238070571Y-116658571D01*
X238143143Y-116537619D01*
X238143143Y-116416667D01*
X238070571Y-116295714D01*
X237998000Y-116235238D01*
X237852857Y-116174762D01*
X237562571Y-116114286D01*
X237417429Y-116053810D01*
X237344857Y-115993333D01*
X237272286Y-115872381D01*
X237272286Y-115751429D01*
X237344857Y-115630476D01*
X237417429Y-115570000D01*
X237562571Y-115509524D01*
X237925429Y-115509524D01*
X238143143Y-115570000D01*
X238651143Y-115509524D02*
X239014000Y-116779524D01*
X239304286Y-115872381D01*
X239594572Y-116779524D01*
X239957429Y-115509524D01*
X241263714Y-115509524D02*
X240538000Y-115509524D01*
X240465429Y-116114286D01*
X240538000Y-116053810D01*
X240683143Y-115993333D01*
X241046000Y-115993333D01*
X241191143Y-116053810D01*
X241263714Y-116114286D01*
X241336286Y-116235238D01*
X241336286Y-116537619D01*
X241263714Y-116658571D01*
X241191143Y-116719048D01*
X241046000Y-116779524D01*
X240683143Y-116779524D01*
X240538000Y-116719048D01*
X240465429Y-116658571D01*
X242642572Y-115932857D02*
X242642572Y-116779524D01*
X242279715Y-115449048D02*
X241916858Y-116356190D01*
X242860286Y-116356190D01*
X237272286Y-55759048D02*
X237490000Y-55819524D01*
X237852857Y-55819524D01*
X237998000Y-55759048D01*
X238070571Y-55698571D01*
X238143143Y-55577619D01*
X238143143Y-55456667D01*
X238070571Y-55335714D01*
X237998000Y-55275238D01*
X237852857Y-55214762D01*
X237562571Y-55154286D01*
X237417429Y-55093810D01*
X237344857Y-55033333D01*
X237272286Y-54912381D01*
X237272286Y-54791429D01*
X237344857Y-54670476D01*
X237417429Y-54610000D01*
X237562571Y-54549524D01*
X237925429Y-54549524D01*
X238143143Y-54610000D01*
X238651143Y-54549524D02*
X239014000Y-55819524D01*
X239304286Y-54912381D01*
X239594572Y-55819524D01*
X239957429Y-54549524D01*
X241263714Y-54549524D02*
X240538000Y-54549524D01*
X240465429Y-55154286D01*
X240538000Y-55093810D01*
X240683143Y-55033333D01*
X241046000Y-55033333D01*
X241191143Y-55093810D01*
X241263714Y-55154286D01*
X241336286Y-55275238D01*
X241336286Y-55577619D01*
X241263714Y-55698571D01*
X241191143Y-55759048D01*
X241046000Y-55819524D01*
X240683143Y-55819524D01*
X240538000Y-55759048D01*
X240465429Y-55698571D01*
X242642572Y-54549524D02*
X242352286Y-54549524D01*
X242207143Y-54610000D01*
X242134572Y-54670476D01*
X241989429Y-54851905D01*
X241916858Y-55093810D01*
X241916858Y-55577619D01*
X241989429Y-55698571D01*
X242062001Y-55759048D01*
X242207143Y-55819524D01*
X242497429Y-55819524D01*
X242642572Y-55759048D01*
X242715143Y-55698571D01*
X242787715Y-55577619D01*
X242787715Y-55275238D01*
X242715143Y-55154286D01*
X242642572Y-55093810D01*
X242497429Y-55033333D01*
X242207143Y-55033333D01*
X242062001Y-55093810D01*
X241989429Y-55154286D01*
X241916858Y-55275238D01*
X247432286Y-76079048D02*
X247650000Y-76139524D01*
X248012857Y-76139524D01*
X248158000Y-76079048D01*
X248230571Y-76018571D01*
X248303143Y-75897619D01*
X248303143Y-75776667D01*
X248230571Y-75655714D01*
X248158000Y-75595238D01*
X248012857Y-75534762D01*
X247722571Y-75474286D01*
X247577429Y-75413810D01*
X247504857Y-75353333D01*
X247432286Y-75232381D01*
X247432286Y-75111429D01*
X247504857Y-74990476D01*
X247577429Y-74930000D01*
X247722571Y-74869524D01*
X248085429Y-74869524D01*
X248303143Y-74930000D01*
X248811143Y-74869524D02*
X249174000Y-76139524D01*
X249464286Y-75232381D01*
X249754572Y-76139524D01*
X250117429Y-74869524D01*
X251423714Y-74869524D02*
X250698000Y-74869524D01*
X250625429Y-75474286D01*
X250698000Y-75413810D01*
X250843143Y-75353333D01*
X251206000Y-75353333D01*
X251351143Y-75413810D01*
X251423714Y-75474286D01*
X251496286Y-75595238D01*
X251496286Y-75897619D01*
X251423714Y-76018571D01*
X251351143Y-76079048D01*
X251206000Y-76139524D01*
X250843143Y-76139524D01*
X250698000Y-76079048D01*
X250625429Y-76018571D01*
X252004286Y-74869524D02*
X253020286Y-74869524D01*
X252367143Y-76139524D01*
X252512286Y-96399048D02*
X252730000Y-96459524D01*
X253092857Y-96459524D01*
X253238000Y-96399048D01*
X253310571Y-96338571D01*
X253383143Y-96217619D01*
X253383143Y-96096667D01*
X253310571Y-95975714D01*
X253238000Y-95915238D01*
X253092857Y-95854762D01*
X252802571Y-95794286D01*
X252657429Y-95733810D01*
X252584857Y-95673333D01*
X252512286Y-95552381D01*
X252512286Y-95431429D01*
X252584857Y-95310476D01*
X252657429Y-95250000D01*
X252802571Y-95189524D01*
X253165429Y-95189524D01*
X253383143Y-95250000D01*
X253891143Y-95189524D02*
X254254000Y-96459524D01*
X254544286Y-95552381D01*
X254834572Y-96459524D01*
X255197429Y-95189524D01*
X256503714Y-95189524D02*
X255778000Y-95189524D01*
X255705429Y-95794286D01*
X255778000Y-95733810D01*
X255923143Y-95673333D01*
X256286000Y-95673333D01*
X256431143Y-95733810D01*
X256503714Y-95794286D01*
X256576286Y-95915238D01*
X256576286Y-96217619D01*
X256503714Y-96338571D01*
X256431143Y-96399048D01*
X256286000Y-96459524D01*
X255923143Y-96459524D01*
X255778000Y-96399048D01*
X255705429Y-96338571D01*
X257447143Y-95733810D02*
X257302001Y-95673333D01*
X257229429Y-95612857D01*
X257156858Y-95491905D01*
X257156858Y-95431429D01*
X257229429Y-95310476D01*
X257302001Y-95250000D01*
X257447143Y-95189524D01*
X257737429Y-95189524D01*
X257882572Y-95250000D01*
X257955143Y-95310476D01*
X258027715Y-95431429D01*
X258027715Y-95491905D01*
X257955143Y-95612857D01*
X257882572Y-95673333D01*
X257737429Y-95733810D01*
X257447143Y-95733810D01*
X257302001Y-95794286D01*
X257229429Y-95854762D01*
X257156858Y-95975714D01*
X257156858Y-96217619D01*
X257229429Y-96338571D01*
X257302001Y-96399048D01*
X257447143Y-96459524D01*
X257737429Y-96459524D01*
X257882572Y-96399048D01*
X257955143Y-96338571D01*
X258027715Y-96217619D01*
X258027715Y-95975714D01*
X257955143Y-95854762D01*
X257882572Y-95794286D01*
X257737429Y-95733810D01*
X274102286Y-116719048D02*
X274320000Y-116779524D01*
X274682857Y-116779524D01*
X274828000Y-116719048D01*
X274900571Y-116658571D01*
X274973143Y-116537619D01*
X274973143Y-116416667D01*
X274900571Y-116295714D01*
X274828000Y-116235238D01*
X274682857Y-116174762D01*
X274392571Y-116114286D01*
X274247429Y-116053810D01*
X274174857Y-115993333D01*
X274102286Y-115872381D01*
X274102286Y-115751429D01*
X274174857Y-115630476D01*
X274247429Y-115570000D01*
X274392571Y-115509524D01*
X274755429Y-115509524D01*
X274973143Y-115570000D01*
X275481143Y-115509524D02*
X275844000Y-116779524D01*
X276134286Y-115872381D01*
X276424572Y-116779524D01*
X276787429Y-115509524D01*
X278093714Y-115509524D02*
X277368000Y-115509524D01*
X277295429Y-116114286D01*
X277368000Y-116053810D01*
X277513143Y-115993333D01*
X277876000Y-115993333D01*
X278021143Y-116053810D01*
X278093714Y-116114286D01*
X278166286Y-116235238D01*
X278166286Y-116537619D01*
X278093714Y-116658571D01*
X278021143Y-116719048D01*
X277876000Y-116779524D01*
X277513143Y-116779524D01*
X277368000Y-116719048D01*
X277295429Y-116658571D01*
X278892001Y-116779524D02*
X279182286Y-116779524D01*
X279327429Y-116719048D01*
X279400001Y-116658571D01*
X279545143Y-116477143D01*
X279617715Y-116235238D01*
X279617715Y-115751429D01*
X279545143Y-115630476D01*
X279472572Y-115570000D01*
X279327429Y-115509524D01*
X279037143Y-115509524D01*
X278892001Y-115570000D01*
X278819429Y-115630476D01*
X278746858Y-115751429D01*
X278746858Y-116053810D01*
X278819429Y-116174762D01*
X278892001Y-116235238D01*
X279037143Y-116295714D01*
X279327429Y-116295714D01*
X279472572Y-116235238D01*
X279545143Y-116174762D01*
X279617715Y-116053810D01*
X257592286Y-55759048D02*
X257810000Y-55819524D01*
X258172857Y-55819524D01*
X258318000Y-55759048D01*
X258390571Y-55698571D01*
X258463143Y-55577619D01*
X258463143Y-55456667D01*
X258390571Y-55335714D01*
X258318000Y-55275238D01*
X258172857Y-55214762D01*
X257882571Y-55154286D01*
X257737429Y-55093810D01*
X257664857Y-55033333D01*
X257592286Y-54912381D01*
X257592286Y-54791429D01*
X257664857Y-54670476D01*
X257737429Y-54610000D01*
X257882571Y-54549524D01*
X258245429Y-54549524D01*
X258463143Y-54610000D01*
X258971143Y-54549524D02*
X259334000Y-55819524D01*
X259624286Y-54912381D01*
X259914572Y-55819524D01*
X260277429Y-54549524D01*
X261511143Y-54549524D02*
X261220857Y-54549524D01*
X261075714Y-54610000D01*
X261003143Y-54670476D01*
X260858000Y-54851905D01*
X260785429Y-55093810D01*
X260785429Y-55577619D01*
X260858000Y-55698571D01*
X260930572Y-55759048D01*
X261075714Y-55819524D01*
X261366000Y-55819524D01*
X261511143Y-55759048D01*
X261583714Y-55698571D01*
X261656286Y-55577619D01*
X261656286Y-55275238D01*
X261583714Y-55154286D01*
X261511143Y-55093810D01*
X261366000Y-55033333D01*
X261075714Y-55033333D01*
X260930572Y-55093810D01*
X260858000Y-55154286D01*
X260785429Y-55275238D01*
X263107715Y-55819524D02*
X262236858Y-55819524D01*
X262672286Y-55819524D02*
X262672286Y-54549524D01*
X262527143Y-54730952D01*
X262382001Y-54851905D01*
X262236858Y-54912381D01*
X267752286Y-76079048D02*
X267970000Y-76139524D01*
X268332857Y-76139524D01*
X268478000Y-76079048D01*
X268550571Y-76018571D01*
X268623143Y-75897619D01*
X268623143Y-75776667D01*
X268550571Y-75655714D01*
X268478000Y-75595238D01*
X268332857Y-75534762D01*
X268042571Y-75474286D01*
X267897429Y-75413810D01*
X267824857Y-75353333D01*
X267752286Y-75232381D01*
X267752286Y-75111429D01*
X267824857Y-74990476D01*
X267897429Y-74930000D01*
X268042571Y-74869524D01*
X268405429Y-74869524D01*
X268623143Y-74930000D01*
X269131143Y-74869524D02*
X269494000Y-76139524D01*
X269784286Y-75232381D01*
X270074572Y-76139524D01*
X270437429Y-74869524D01*
X271671143Y-74869524D02*
X271380857Y-74869524D01*
X271235714Y-74930000D01*
X271163143Y-74990476D01*
X271018000Y-75171905D01*
X270945429Y-75413810D01*
X270945429Y-75897619D01*
X271018000Y-76018571D01*
X271090572Y-76079048D01*
X271235714Y-76139524D01*
X271526000Y-76139524D01*
X271671143Y-76079048D01*
X271743714Y-76018571D01*
X271816286Y-75897619D01*
X271816286Y-75595238D01*
X271743714Y-75474286D01*
X271671143Y-75413810D01*
X271526000Y-75353333D01*
X271235714Y-75353333D01*
X271090572Y-75413810D01*
X271018000Y-75474286D01*
X270945429Y-75595238D01*
X272396858Y-74990476D02*
X272469429Y-74930000D01*
X272614572Y-74869524D01*
X272977429Y-74869524D01*
X273122572Y-74930000D01*
X273195143Y-74990476D01*
X273267715Y-75111429D01*
X273267715Y-75232381D01*
X273195143Y-75413810D01*
X272324286Y-76139524D01*
X273267715Y-76139524D01*
X284262286Y-96399048D02*
X284480000Y-96459524D01*
X284842857Y-96459524D01*
X284988000Y-96399048D01*
X285060571Y-96338571D01*
X285133143Y-96217619D01*
X285133143Y-96096667D01*
X285060571Y-95975714D01*
X284988000Y-95915238D01*
X284842857Y-95854762D01*
X284552571Y-95794286D01*
X284407429Y-95733810D01*
X284334857Y-95673333D01*
X284262286Y-95552381D01*
X284262286Y-95431429D01*
X284334857Y-95310476D01*
X284407429Y-95250000D01*
X284552571Y-95189524D01*
X284915429Y-95189524D01*
X285133143Y-95250000D01*
X285641143Y-95189524D02*
X286004000Y-96459524D01*
X286294286Y-95552381D01*
X286584572Y-96459524D01*
X286947429Y-95189524D01*
X288181143Y-95189524D02*
X287890857Y-95189524D01*
X287745714Y-95250000D01*
X287673143Y-95310476D01*
X287528000Y-95491905D01*
X287455429Y-95733810D01*
X287455429Y-96217619D01*
X287528000Y-96338571D01*
X287600572Y-96399048D01*
X287745714Y-96459524D01*
X288036000Y-96459524D01*
X288181143Y-96399048D01*
X288253714Y-96338571D01*
X288326286Y-96217619D01*
X288326286Y-95915238D01*
X288253714Y-95794286D01*
X288181143Y-95733810D01*
X288036000Y-95673333D01*
X287745714Y-95673333D01*
X287600572Y-95733810D01*
X287528000Y-95794286D01*
X287455429Y-95915238D01*
X288834286Y-95189524D02*
X289777715Y-95189524D01*
X289269715Y-95673333D01*
X289487429Y-95673333D01*
X289632572Y-95733810D01*
X289705143Y-95794286D01*
X289777715Y-95915238D01*
X289777715Y-96217619D01*
X289705143Y-96338571D01*
X289632572Y-96399048D01*
X289487429Y-96459524D01*
X289052001Y-96459524D01*
X288906858Y-96399048D01*
X288834286Y-96338571D01*
X288072286Y-55759048D02*
X288290000Y-55819524D01*
X288652857Y-55819524D01*
X288798000Y-55759048D01*
X288870571Y-55698571D01*
X288943143Y-55577619D01*
X288943143Y-55456667D01*
X288870571Y-55335714D01*
X288798000Y-55275238D01*
X288652857Y-55214762D01*
X288362571Y-55154286D01*
X288217429Y-55093810D01*
X288144857Y-55033333D01*
X288072286Y-54912381D01*
X288072286Y-54791429D01*
X288144857Y-54670476D01*
X288217429Y-54610000D01*
X288362571Y-54549524D01*
X288725429Y-54549524D01*
X288943143Y-54610000D01*
X289451143Y-54549524D02*
X289814000Y-55819524D01*
X290104286Y-54912381D01*
X290394572Y-55819524D01*
X290757429Y-54549524D01*
X291991143Y-54549524D02*
X291700857Y-54549524D01*
X291555714Y-54610000D01*
X291483143Y-54670476D01*
X291338000Y-54851905D01*
X291265429Y-55093810D01*
X291265429Y-55577619D01*
X291338000Y-55698571D01*
X291410572Y-55759048D01*
X291555714Y-55819524D01*
X291846000Y-55819524D01*
X291991143Y-55759048D01*
X292063714Y-55698571D01*
X292136286Y-55577619D01*
X292136286Y-55275238D01*
X292063714Y-55154286D01*
X291991143Y-55093810D01*
X291846000Y-55033333D01*
X291555714Y-55033333D01*
X291410572Y-55093810D01*
X291338000Y-55154286D01*
X291265429Y-55275238D01*
X293442572Y-54549524D02*
X293152286Y-54549524D01*
X293007143Y-54610000D01*
X292934572Y-54670476D01*
X292789429Y-54851905D01*
X292716858Y-55093810D01*
X292716858Y-55577619D01*
X292789429Y-55698571D01*
X292862001Y-55759048D01*
X293007143Y-55819524D01*
X293297429Y-55819524D01*
X293442572Y-55759048D01*
X293515143Y-55698571D01*
X293587715Y-55577619D01*
X293587715Y-55275238D01*
X293515143Y-55154286D01*
X293442572Y-55093810D01*
X293297429Y-55033333D01*
X293007143Y-55033333D01*
X292862001Y-55093810D01*
X292789429Y-55154286D01*
X292716858Y-55275238D01*
X288072286Y-76079048D02*
X288290000Y-76139524D01*
X288652857Y-76139524D01*
X288798000Y-76079048D01*
X288870571Y-76018571D01*
X288943143Y-75897619D01*
X288943143Y-75776667D01*
X288870571Y-75655714D01*
X288798000Y-75595238D01*
X288652857Y-75534762D01*
X288362571Y-75474286D01*
X288217429Y-75413810D01*
X288144857Y-75353333D01*
X288072286Y-75232381D01*
X288072286Y-75111429D01*
X288144857Y-74990476D01*
X288217429Y-74930000D01*
X288362571Y-74869524D01*
X288725429Y-74869524D01*
X288943143Y-74930000D01*
X289451143Y-74869524D02*
X289814000Y-76139524D01*
X290104286Y-75232381D01*
X290394572Y-76139524D01*
X290757429Y-74869524D01*
X291991143Y-74869524D02*
X291700857Y-74869524D01*
X291555714Y-74930000D01*
X291483143Y-74990476D01*
X291338000Y-75171905D01*
X291265429Y-75413810D01*
X291265429Y-75897619D01*
X291338000Y-76018571D01*
X291410572Y-76079048D01*
X291555714Y-76139524D01*
X291846000Y-76139524D01*
X291991143Y-76079048D01*
X292063714Y-76018571D01*
X292136286Y-75897619D01*
X292136286Y-75595238D01*
X292063714Y-75474286D01*
X291991143Y-75413810D01*
X291846000Y-75353333D01*
X291555714Y-75353333D01*
X291410572Y-75413810D01*
X291338000Y-75474286D01*
X291265429Y-75595238D01*
X292644286Y-74869524D02*
X293660286Y-74869524D01*
X293007143Y-76139524D01*
X149968857Y-26609524D02*
X149968857Y-27637619D01*
X150041429Y-27758571D01*
X150114000Y-27819048D01*
X150259143Y-27879524D01*
X150549429Y-27879524D01*
X150694571Y-27819048D01*
X150767143Y-27758571D01*
X150839714Y-27637619D01*
X150839714Y-26609524D01*
X152363714Y-27879524D02*
X151492857Y-27879524D01*
X151928285Y-27879524D02*
X151928285Y-26609524D01*
X151783142Y-26790952D01*
X151638000Y-26911905D01*
X151492857Y-26972381D01*
M02*
