G04 #@! TF.FileFunction,Copper,L1,Top,Signal*
%FSLAX46Y46*%
G04 Gerber Fmt 4.6, Leading zero omitted, Abs format (unit mm)*
G04 Created by KiCad (PCBNEW (2015-01-16 BZR 5376)-product) date 17/05/2015 12:40:51*
%MOMM*%
G01*
G04 APERTURE LIST*
%ADD10C,0.100000*%
%ADD11C,1.699260*%
%ADD12R,1.699260X1.699260*%
%ADD13C,2.286000*%
%ADD14R,1.752600X1.752600*%
%ADD15C,1.752600*%
%ADD16C,0.889000*%
%ADD17C,0.254000*%
G04 APERTURE END LIST*
D10*
D11*
X275590000Y-135890000D03*
D12*
X285750000Y-135890000D03*
D13*
X281940000Y-138430000D03*
X275590000Y-140970000D03*
D11*
X32004000Y-59182000D03*
D12*
X42164000Y-59182000D03*
D11*
X36830000Y-78740000D03*
D12*
X46990000Y-78740000D03*
D11*
X39370000Y-97790000D03*
D12*
X49530000Y-97790000D03*
D11*
X41910000Y-116840000D03*
D12*
X52070000Y-116840000D03*
D11*
X34798000Y-135890000D03*
D12*
X44958000Y-135890000D03*
D11*
X52070000Y-59690000D03*
D12*
X62230000Y-59690000D03*
D11*
X60960000Y-78740000D03*
D12*
X71120000Y-78740000D03*
D11*
X66040000Y-97790000D03*
D12*
X76200000Y-97790000D03*
D11*
X71120000Y-116840000D03*
D12*
X81280000Y-116840000D03*
D11*
X58420000Y-135890000D03*
D12*
X68580000Y-135890000D03*
D11*
X71120000Y-59690000D03*
D12*
X81280000Y-59690000D03*
D11*
X80010000Y-78740000D03*
D12*
X90170000Y-78740000D03*
D11*
X85090000Y-97790000D03*
D12*
X95250000Y-97790000D03*
D11*
X90170000Y-116840000D03*
D12*
X100330000Y-116840000D03*
D11*
X82550000Y-135890000D03*
D12*
X92710000Y-135890000D03*
D11*
X90170000Y-59690000D03*
D12*
X100330000Y-59690000D03*
D11*
X99060000Y-78740000D03*
D12*
X109220000Y-78740000D03*
D11*
X104140000Y-97790000D03*
D12*
X114300000Y-97790000D03*
D11*
X109220000Y-116840000D03*
D12*
X119380000Y-116840000D03*
D11*
X154940000Y-135890000D03*
D12*
X165100000Y-135890000D03*
D11*
X109220000Y-59690000D03*
D12*
X119380000Y-59690000D03*
D11*
X118110000Y-78740000D03*
D12*
X128270000Y-78740000D03*
D11*
X123190000Y-97790000D03*
D12*
X133350000Y-97790000D03*
D11*
X128270000Y-116840000D03*
D12*
X138430000Y-116840000D03*
D11*
X128270000Y-59690000D03*
D12*
X138430000Y-59690000D03*
D11*
X137160000Y-78740000D03*
D12*
X147320000Y-78740000D03*
D11*
X142240000Y-97790000D03*
D12*
X152400000Y-97790000D03*
D11*
X147320000Y-116840000D03*
D12*
X157480000Y-116840000D03*
D11*
X147320000Y-59690000D03*
D12*
X157480000Y-59690000D03*
D11*
X156210000Y-78740000D03*
D12*
X166370000Y-78740000D03*
D11*
X161290000Y-97790000D03*
D12*
X171450000Y-97790000D03*
D11*
X163830000Y-116840000D03*
D12*
X173990000Y-116840000D03*
D11*
X166370000Y-59690000D03*
D12*
X176530000Y-59690000D03*
D11*
X175260000Y-78740000D03*
D12*
X185420000Y-78740000D03*
D11*
X180340000Y-97790000D03*
D12*
X190500000Y-97790000D03*
D11*
X185420000Y-116840000D03*
D12*
X195580000Y-116840000D03*
D11*
X185420000Y-59690000D03*
D12*
X195580000Y-59690000D03*
D11*
X194310000Y-78740000D03*
D12*
X204470000Y-78740000D03*
D11*
X199390000Y-97790000D03*
D12*
X209550000Y-97790000D03*
D11*
X204470000Y-116840000D03*
D12*
X214630000Y-116840000D03*
D11*
X227330000Y-135890000D03*
D12*
X237490000Y-135890000D03*
D11*
X204470000Y-59690000D03*
D12*
X214630000Y-59690000D03*
D11*
X213360000Y-78740000D03*
D12*
X223520000Y-78740000D03*
D11*
X218440000Y-97790000D03*
D12*
X228600000Y-97790000D03*
D11*
X223520000Y-116840000D03*
D12*
X233680000Y-116840000D03*
D11*
X251460000Y-135890000D03*
D12*
X261620000Y-135890000D03*
D11*
X223520000Y-59690000D03*
D12*
X233680000Y-59690000D03*
D11*
X232410000Y-78740000D03*
D12*
X242570000Y-78740000D03*
D11*
X237490000Y-97790000D03*
D12*
X247650000Y-97790000D03*
D11*
X242570000Y-116840000D03*
D12*
X252730000Y-116840000D03*
D11*
X242570000Y-59690000D03*
D12*
X252730000Y-59690000D03*
D11*
X251460000Y-78740000D03*
D12*
X261620000Y-78740000D03*
D11*
X256540000Y-97790000D03*
D12*
X266700000Y-97790000D03*
D11*
X278130000Y-116840000D03*
D12*
X288290000Y-116840000D03*
D11*
X261620000Y-59690000D03*
D12*
X271780000Y-59690000D03*
D11*
X270510000Y-78740000D03*
D12*
X280670000Y-78740000D03*
D11*
X288290000Y-97790000D03*
D12*
X298450000Y-97790000D03*
D11*
X290322000Y-59690000D03*
D12*
X300482000Y-59690000D03*
D11*
X289560000Y-78740000D03*
D12*
X299720000Y-78740000D03*
D13*
X39116000Y-62230000D03*
X32766000Y-64770000D03*
X58420000Y-62230000D03*
X52070000Y-64770000D03*
X77470000Y-62230000D03*
X71120000Y-64770000D03*
X96520000Y-62230000D03*
X90170000Y-64770000D03*
X115570000Y-62230000D03*
X109220000Y-64770000D03*
X134620000Y-62230000D03*
X128270000Y-64770000D03*
X153670000Y-62230000D03*
X147320000Y-64770000D03*
X172720000Y-62230000D03*
X166370000Y-64770000D03*
X191770000Y-62230000D03*
X185420000Y-64770000D03*
X210820000Y-62230000D03*
X204470000Y-64770000D03*
X229870000Y-62230000D03*
X223520000Y-64770000D03*
X248920000Y-62230000D03*
X242570000Y-64770000D03*
X267970000Y-62230000D03*
X261620000Y-64770000D03*
X296672000Y-62230000D03*
X290322000Y-64770000D03*
X43180000Y-81280000D03*
X36830000Y-83820000D03*
X67310000Y-81280000D03*
X60960000Y-83820000D03*
X86360000Y-81280000D03*
X80010000Y-83820000D03*
X105410000Y-81280000D03*
X99060000Y-83820000D03*
X124460000Y-81280000D03*
X118110000Y-83820000D03*
X143510000Y-81280000D03*
X137160000Y-83820000D03*
X162560000Y-81280000D03*
X156210000Y-83820000D03*
X181610000Y-81280000D03*
X175260000Y-83820000D03*
X200660000Y-81280000D03*
X194310000Y-83820000D03*
X219710000Y-81280000D03*
X213360000Y-83820000D03*
X238760000Y-81280000D03*
X232410000Y-83820000D03*
X257810000Y-81280000D03*
X251460000Y-83820000D03*
X276860000Y-81280000D03*
X270510000Y-83820000D03*
X45974000Y-100330000D03*
X39624000Y-102870000D03*
X72390000Y-100330000D03*
X66040000Y-102870000D03*
X91440000Y-100330000D03*
X85090000Y-102870000D03*
X110490000Y-100330000D03*
X104140000Y-102870000D03*
X129540000Y-100330000D03*
X123190000Y-102870000D03*
X148590000Y-100330000D03*
X142240000Y-102870000D03*
X167640000Y-100330000D03*
X161290000Y-102870000D03*
X186690000Y-100330000D03*
X180340000Y-102870000D03*
X205740000Y-100330000D03*
X199390000Y-102870000D03*
X224790000Y-100330000D03*
X218440000Y-102870000D03*
X243840000Y-100330000D03*
X237490000Y-102870000D03*
X262890000Y-100330000D03*
X256540000Y-102870000D03*
X294640000Y-100330000D03*
X288290000Y-102870000D03*
X48260000Y-119380000D03*
X41910000Y-121920000D03*
X77470000Y-119380000D03*
X71120000Y-121920000D03*
X96520000Y-119380000D03*
X90170000Y-121920000D03*
X115570000Y-119380000D03*
X109220000Y-121920000D03*
X134620000Y-119380000D03*
X128270000Y-121920000D03*
X153670000Y-119380000D03*
X147320000Y-121920000D03*
X172720000Y-119380000D03*
X166370000Y-121920000D03*
X191770000Y-119380000D03*
X185420000Y-121920000D03*
X210820000Y-119380000D03*
X204470000Y-121920000D03*
X229870000Y-119380000D03*
X223520000Y-121920000D03*
X248920000Y-119380000D03*
X242570000Y-121920000D03*
X284480000Y-119380000D03*
X278130000Y-121920000D03*
X41148000Y-138430000D03*
X34798000Y-140970000D03*
X64770000Y-138430000D03*
X58420000Y-140970000D03*
X88900000Y-138430000D03*
X82550000Y-140970000D03*
X161290000Y-138430000D03*
X154940000Y-140970000D03*
X233680000Y-138430000D03*
X227330000Y-140970000D03*
X257810000Y-138430000D03*
X251460000Y-140970000D03*
D14*
X171907200Y-133908800D03*
D15*
X174447200Y-133908800D03*
X176987200Y-133908800D03*
X179527200Y-133908800D03*
X182067200Y-133908800D03*
X184607200Y-133908800D03*
X187147200Y-133908800D03*
X189687200Y-133908800D03*
X192227200Y-133908800D03*
X194767200Y-133908800D03*
X197307200Y-133908800D03*
X199847200Y-133908800D03*
X199847200Y-136448800D03*
X199847200Y-138988800D03*
X199847200Y-141528800D03*
X199847200Y-144068800D03*
X199847200Y-146608800D03*
X199847200Y-149148800D03*
X197307200Y-149148800D03*
X194767200Y-149148800D03*
X192227200Y-149148800D03*
X189687200Y-149148800D03*
X187147200Y-149148800D03*
X184607200Y-149148800D03*
X182067200Y-149148800D03*
X179527200Y-149148800D03*
X176987200Y-149148800D03*
X174447200Y-149148800D03*
X171907200Y-149148800D03*
X182067200Y-146608800D03*
X182067200Y-136448800D03*
D13*
X300990000Y-81280000D03*
X294640000Y-83820000D03*
D16*
X102006400Y-152044400D03*
X160274000Y-134416800D03*
X287426400Y-145034000D03*
X286410400Y-147828000D03*
X187756800Y-83058000D03*
X184810400Y-95351600D03*
X175514000Y-142036800D03*
X178409600Y-140665200D03*
D17*
X187045600Y-151790400D02*
X189687200Y-149148800D01*
X168808400Y-151790400D02*
X187045600Y-151790400D01*
X166116000Y-149098000D02*
X168808400Y-151790400D01*
X104952800Y-149098000D02*
X166116000Y-149098000D01*
X102006400Y-152044400D02*
X104952800Y-149098000D01*
X174447200Y-132791200D02*
X174447200Y-133908800D01*
X173888400Y-132232400D02*
X174447200Y-132791200D01*
X162458400Y-132232400D02*
X173888400Y-132232400D01*
X160274000Y-134416800D02*
X162458400Y-132232400D01*
X201930000Y-146151600D02*
X199847200Y-144068800D01*
X286308800Y-146151600D02*
X201930000Y-146151600D01*
X287426400Y-145034000D02*
X286308800Y-146151600D01*
X195072000Y-151993600D02*
X192227200Y-149148800D01*
X200152000Y-151993600D02*
X195072000Y-151993600D01*
X202946000Y-149199600D02*
X200152000Y-151993600D01*
X285038800Y-149199600D02*
X202946000Y-149199600D01*
X286410400Y-147828000D02*
X285038800Y-149199600D01*
X187858400Y-83159600D02*
X187756800Y-83058000D01*
X187858400Y-92303600D02*
X187858400Y-83159600D01*
X184810400Y-95351600D02*
X187858400Y-92303600D01*
X191770000Y-62230000D02*
X172720000Y-62230000D01*
X115570000Y-62230000D02*
X96520000Y-62230000D01*
X210820000Y-62230000D02*
X191770000Y-62230000D01*
X210820000Y-62230000D02*
X229870000Y-62230000D01*
X248920000Y-62230000D02*
X229870000Y-62230000D01*
X267970000Y-62230000D02*
X248920000Y-62230000D01*
X153670000Y-62230000D02*
X191770000Y-62230000D01*
X267970000Y-62230000D02*
X279654000Y-62230000D01*
X288798000Y-62230000D02*
X296672000Y-62230000D01*
X287528000Y-63500000D02*
X288798000Y-62230000D01*
X280924000Y-63500000D02*
X287528000Y-63500000D01*
X279654000Y-62230000D02*
X280924000Y-63500000D01*
X134620000Y-62230000D02*
X153670000Y-62230000D01*
X115570000Y-62230000D02*
X134620000Y-62230000D01*
X77470000Y-62230000D02*
X115570000Y-62230000D01*
X58420000Y-62230000D02*
X77470000Y-62230000D01*
X39116000Y-62230000D02*
X58420000Y-62230000D01*
X300990000Y-81280000D02*
X300990000Y-80975200D01*
X86360000Y-81280000D02*
X67310000Y-81280000D01*
X105410000Y-81280000D02*
X86360000Y-81280000D01*
X124460000Y-81280000D02*
X105410000Y-81280000D01*
X143510000Y-81280000D02*
X124460000Y-81280000D01*
X162560000Y-81280000D02*
X143510000Y-81280000D01*
X181610000Y-81280000D02*
X162560000Y-81280000D01*
X200660000Y-81280000D02*
X181610000Y-81280000D01*
X219710000Y-81280000D02*
X200660000Y-81280000D01*
X238760000Y-81280000D02*
X219710000Y-81280000D01*
X257810000Y-81280000D02*
X238760000Y-81280000D01*
X276860000Y-81280000D02*
X257810000Y-81280000D01*
X300990000Y-81280000D02*
X276860000Y-81280000D01*
X67310000Y-81280000D02*
X43180000Y-81280000D01*
X262890000Y-100330000D02*
X276606000Y-100330000D01*
X285242000Y-100330000D02*
X294640000Y-100330000D01*
X283464000Y-102108000D02*
X285242000Y-100330000D01*
X278384000Y-102108000D02*
X283464000Y-102108000D01*
X276606000Y-100330000D02*
X278384000Y-102108000D01*
X243840000Y-100330000D02*
X262890000Y-100330000D01*
X224790000Y-100330000D02*
X243840000Y-100330000D01*
X205740000Y-100330000D02*
X224790000Y-100330000D01*
X186690000Y-100330000D02*
X205740000Y-100330000D01*
X167640000Y-100330000D02*
X186690000Y-100330000D01*
X148590000Y-100330000D02*
X167640000Y-100330000D01*
X148590000Y-100330000D02*
X129540000Y-100330000D01*
X110490000Y-100330000D02*
X129540000Y-100330000D01*
X91440000Y-100330000D02*
X110490000Y-100330000D01*
X72390000Y-100330000D02*
X91440000Y-100330000D01*
X45974000Y-100330000D02*
X72390000Y-100330000D01*
X172720000Y-119380000D02*
X172720000Y-129641600D01*
X172720000Y-129641600D02*
X176987200Y-133908800D01*
X284480000Y-119380000D02*
X284607000Y-119380000D01*
X77470000Y-119380000D02*
X58928000Y-119380000D01*
X49276000Y-120396000D02*
X48260000Y-119380000D01*
X57912000Y-120396000D02*
X49276000Y-120396000D01*
X58928000Y-119380000D02*
X57912000Y-120396000D01*
X96520000Y-119380000D02*
X77470000Y-119380000D01*
X115570000Y-119380000D02*
X96520000Y-119380000D01*
X134620000Y-119380000D02*
X115570000Y-119380000D01*
X153670000Y-119380000D02*
X134620000Y-119380000D01*
X172720000Y-119380000D02*
X153670000Y-119380000D01*
X191770000Y-119380000D02*
X172720000Y-119380000D01*
X210820000Y-119380000D02*
X191770000Y-119380000D01*
X229870000Y-119380000D02*
X210820000Y-119380000D01*
X248920000Y-119380000D02*
X229870000Y-119380000D01*
X248920000Y-119380000D02*
X268224000Y-119380000D01*
X268732000Y-119888000D02*
X283972000Y-119888000D01*
X268224000Y-119380000D02*
X268732000Y-119888000D01*
X283972000Y-119888000D02*
X284480000Y-119380000D01*
X161290000Y-138430000D02*
X172110400Y-138430000D01*
X175514000Y-141833600D02*
X175514000Y-142036800D01*
X172110400Y-138430000D02*
X175514000Y-141833600D01*
X161290000Y-138430000D02*
X111099600Y-138430000D01*
X110490000Y-139039600D02*
X89509600Y-139039600D01*
X111099600Y-138430000D02*
X110490000Y-139039600D01*
X89509600Y-139039600D02*
X88900000Y-138430000D01*
X257810000Y-138430000D02*
X281940000Y-138430000D01*
X233680000Y-138430000D02*
X257810000Y-138430000D01*
X64770000Y-138430000D02*
X88900000Y-138430000D01*
X41148000Y-138430000D02*
X64770000Y-138430000D01*
X171907200Y-149148800D02*
X171907200Y-147167600D01*
X171907200Y-147167600D02*
X178409600Y-140665200D01*
M02*
