M48
INCH,TZ
T1C0.067
T2C0.120
T3C0.157
%
G90
G05
T1
X1.24Y-2.65
X1.32Y-5.65
X1.4Y-3.4
X1.51Y-4.15
X1.6Y-4.9
X1.64Y-2.65
X1.72Y-5.65
X1.8Y-3.4
X1.91Y-4.15
X2.Y-2.65
X2.Y-4.9
X2.25Y-5.65
X2.35Y-3.4
X2.4Y-2.65
X2.55Y-4.15
X2.65Y-5.65
X2.75Y-2.65
X2.75Y-3.4
X2.75Y-4.9
X2.95Y-4.15
X3.1Y-3.4
X3.15Y-2.65
X3.15Y-4.9
X3.2Y-5.65
X3.3Y-4.15
X3.5Y-2.65
X3.5Y-3.4
X3.5Y-4.9
X3.6Y-5.65
X3.7Y-4.15
X3.85Y-3.4
X3.9Y-2.65
X3.9Y-4.9
X4.05Y-4.15
X4.25Y-2.65
X4.25Y-3.4
X4.25Y-4.9
X4.45Y-4.15
X4.6Y-3.4
X4.65Y-2.65
X4.65Y-4.9
X4.8Y-4.15
X5.Y-2.65
X5.Y-3.4
X5.Y-4.9
X5.2Y-4.15
X5.35Y-3.4
X5.4Y-2.65
X5.4Y-4.9
X5.55Y-4.15
X5.75Y-2.65
X5.75Y-3.4
X5.75Y-4.9
X5.95Y-4.15
X6.05Y-5.65
X6.1Y-3.4
X6.15Y-2.65
X6.15Y-4.9
X6.3Y-4.15
X6.45Y-5.65
X6.5Y-2.65
X6.5Y-3.4
X6.5Y-4.9
X6.7Y-4.15
X6.85Y-3.4
X6.9Y-2.65
X6.9Y-4.9
X7.05Y-4.15
X7.25Y-2.65
X7.25Y-3.4
X7.25Y-4.9
X7.45Y-4.15
X7.6Y-3.4
X7.65Y-2.65
X7.65Y-4.9
X7.8Y-4.15
X8.Y-2.65
X8.Y-3.4
X8.Y-4.9
X8.2Y-4.15
X8.35Y-3.4
X8.4Y-2.65
X8.4Y-4.9
X8.55Y-4.15
X8.75Y-2.65
X8.75Y-3.4
X8.75Y-4.9
X8.9Y-5.65
X8.95Y-4.15
X9.1Y-3.4
X9.15Y-2.65
X9.15Y-4.9
X9.3Y-4.15
X9.3Y-5.65
X9.5Y-2.65
X9.5Y-3.4
X9.5Y-4.9
X9.7Y-4.15
X9.85Y-3.4
X9.85Y-5.65
X9.9Y-2.65
X9.9Y-4.9
X10.05Y-4.15
X10.25Y-2.65
X10.25Y-3.4
X10.25Y-5.65
X10.45Y-4.15
X10.6Y-3.4
X10.65Y-2.65
X10.8Y-5.65
X10.9Y-4.9
X11.Y-3.4
X11.2Y-5.65
X11.3Y-4.15
X11.3Y-4.9
X11.38Y-2.65
X11.55Y-3.4
X11.7Y-4.15
X11.78Y-2.65
X11.95Y-3.4
T2
X1.33Y-4.625
X2.27Y-4.625
X4.28Y-5.375
X8.22Y-5.375
X10.63Y-4.625
X11.03Y-3.875
X11.11Y-2.375
X11.57Y-4.625
X11.97Y-3.875
X12.05Y-2.375
T3
X1.33Y-5.225
X1.44Y-2.65
X1.52Y-5.65
X1.6Y-3.4
X1.71Y-4.15
X1.8Y-4.9
X2.2Y-2.65
X2.27Y-5.225
X2.45Y-5.65
X2.55Y-3.4
X2.75Y-4.15
X2.95Y-2.65
X2.95Y-4.9
X3.3Y-3.4
X3.4Y-5.65
X3.5Y-4.15
X3.7Y-2.65
X3.7Y-4.9
X4.05Y-3.4
X4.25Y-4.15
X4.28Y-5.975
X4.45Y-2.65
X4.45Y-4.9
X4.8Y-3.4
X5.Y-4.15
X5.2Y-2.65
X5.2Y-4.9
X5.55Y-3.4
X5.75Y-4.15
X5.95Y-2.65
X5.95Y-4.9
X6.25Y-5.65
X6.3Y-3.4
X6.5Y-4.15
X6.7Y-2.65
X6.7Y-4.9
X7.05Y-3.4
X7.25Y-4.15
X7.45Y-2.65
X7.45Y-4.9
X7.8Y-3.4
X8.Y-4.15
X8.2Y-2.65
X8.2Y-4.9
X8.22Y-5.975
X8.55Y-3.4
X8.75Y-4.15
X8.95Y-2.65
X8.95Y-4.9
X9.1Y-5.65
X9.3Y-3.4
X9.5Y-4.15
X9.7Y-2.65
X9.7Y-4.9
X10.05Y-3.4
X10.05Y-5.65
X10.25Y-4.15
X10.45Y-2.65
X10.63Y-5.225
X10.8Y-3.4
X11.Y-5.65
X11.03Y-4.475
X11.1Y-4.9
X11.11Y-2.975
X11.5Y-4.15
X11.57Y-5.225
X11.58Y-2.65
X11.75Y-3.4
X11.97Y-4.475
X12.05Y-2.975
T0
M30
