M48
INCH,TZ
T10C0.025
T11C0.028
T12C0.043
T13C0.059
T14C0.067
T15C0.120
T16C0.157
%
T10
X040160Y-59860
X063100Y-52920
X069100Y-55920
X070240Y-55380
X072760Y-37540
X073920Y-32700
X112760Y-58200
X113160Y-57100
T11
X012600Y-23300
X014260Y-53280
X014500Y-30840
X015440Y-38320
X016480Y-45840
X016600Y-23300
X018260Y-53280
X018500Y-30840
X019440Y-38320
X020480Y-45840
X020500Y-23260
X023620Y-53300
X024000Y-30860
X024500Y-23260
X025920Y-38340
X027620Y-53300
X028000Y-23240
X028000Y-30860
X028000Y-45820
X029920Y-38340
X031500Y-30840
X032000Y-23240
X032000Y-45820
X032500Y-53300
X033480Y-38360
X035500Y-23300
X035500Y-30840
X035500Y-45820
X036500Y-53300
X037480Y-38360
X039000Y-30780
X039500Y-23300
X039500Y-45820
X040980Y-38340
X043000Y-23200
X043000Y-30780
X043000Y-45840
X044980Y-38340
X046500Y-30860
X047000Y-23200
X047000Y-45840
X048500Y-38360
X050500Y-23280
X050500Y-30860
X050500Y-45820
X052500Y-38360
X053980Y-30840
X054500Y-23280
X054500Y-45820
X055020Y-53220
X055980Y-38360
X057980Y-30840
X058000Y-23280
X058000Y-45800
X059020Y-53220
X059980Y-38360
X061520Y-30820
X062000Y-23280
X062000Y-45800
X063480Y-38340
X064500Y-45860
X065500Y-23280
X065520Y-30820
X067480Y-38340
X068500Y-45860
X069000Y-30840
X069500Y-23280
X071000Y-38360
X073000Y-23280
X073000Y-30840
X073000Y-45860
X075000Y-38360
X076500Y-31000
X077000Y-23280
X077000Y-45860
X078500Y-38360
X080500Y-23280
X080500Y-31000
X080500Y-45860
X082500Y-38360
X083980Y-30820
X084500Y-23280
X084500Y-45860
X086000Y-38340
X087980Y-30820
X087980Y-45820
X088000Y-23280
X089500Y-53200
X090000Y-38340
X091500Y-30820
X091980Y-45820
X092000Y-23280
X093500Y-38360
X093500Y-53200
X095500Y-23280
X095500Y-30820
X095500Y-45860
X097500Y-38360
X098960Y-30760
X099000Y-53260
X099500Y-23280
X099500Y-45860
X101000Y-38360
X102960Y-30760
X103000Y-23280
X103000Y-53260
X103720Y-47580
X103720Y-51580
X105000Y-38360
X105820Y-30760
X107000Y-23280
X108500Y-53220
X109820Y-30760
X112500Y-53220
X113500Y-38320
X113840Y-30820
X114300Y-23280
X117500Y-38320
X117840Y-30820
X118300Y-23280
T12
X067680Y-52720
X067680Y-58720
X068680Y-52720
X068680Y-58720
X069680Y-52720
X069680Y-58720
X070680Y-52720
X070680Y-58720
X071680Y-52720
X071680Y-53720
X071680Y-57720
X071680Y-58720
X072680Y-52720
X072680Y-58720
X073680Y-52720
X073680Y-58720
X074680Y-52720
X074680Y-58720
X075680Y-52720
X075680Y-58720
X076680Y-52720
X076680Y-58720
X077680Y-52720
X077680Y-58720
X078680Y-52720
X078680Y-53720
X078680Y-54720
X078680Y-55720
X078680Y-56720
X078680Y-57720
X078680Y-58720
T13
X012900Y-25500
X013700Y-55500
X014500Y-33000
X015400Y-24500
X015600Y-40500
X016200Y-54500
X016500Y-48000
X017000Y-32000
X018100Y-39500
X019000Y-47000
X020500Y-25500
X023000Y-24500
X023000Y-55500
X024000Y-33000
X025500Y-54500
X026000Y-40500
X026500Y-32000
X028000Y-25500
X028000Y-48000
X028500Y-39500
X030500Y-24500
X030500Y-47000
X031500Y-33000
X032500Y-55500
X033500Y-40500
X034000Y-32000
X035000Y-54500
X035500Y-25500
X035500Y-48000
X036000Y-39500
X038000Y-24500
X038000Y-47000
X039000Y-33000
X041000Y-40500
X041500Y-32000
X043000Y-25500
X043000Y-48000
X043500Y-39500
X045500Y-24500
X045500Y-47000
X046500Y-33000
X048500Y-40500
X049000Y-32000
X050500Y-25500
X050500Y-48000
X051000Y-39500
X053000Y-24500
X053000Y-47000
X054000Y-33000
X056000Y-40500
X056500Y-32000
X058000Y-25500
X058000Y-48000
X058500Y-39500
X060500Y-24500
X060500Y-47000
X061000Y-55500
X061500Y-33000
X063500Y-40500
X063500Y-54500
X064000Y-32000
X065500Y-25500
X065500Y-48000
X066000Y-39500
X068000Y-24500
X068000Y-47000
X069000Y-33000
X071000Y-40500
X071500Y-32000
X073000Y-25500
X073000Y-48000
X073500Y-39500
X075500Y-24500
X075500Y-47000
X076500Y-33000
X078500Y-40500
X079000Y-32000
X080500Y-25500
X080500Y-48000
X081000Y-39500
X083000Y-24500
X083000Y-47000
X084000Y-33000
X086000Y-40500
X086500Y-32000
X088000Y-25500
X088000Y-48000
X088500Y-39500
X089500Y-55500
X090500Y-24500
X090500Y-47000
X091500Y-33000
X092000Y-54500
X093500Y-40500
X094000Y-32000
X095500Y-25500
X095500Y-48000
X096000Y-39500
X098000Y-24500
X098000Y-47000
X099000Y-33000
X099000Y-55500
X101000Y-40500
X101500Y-32000
X101500Y-54500
X103000Y-25500
X103500Y-39500
X105500Y-24500
X106500Y-33000
X108500Y-55500
X109000Y-32000
X109500Y-48000
X111000Y-54500
X112000Y-47000
X113500Y-40500
X114300Y-25500
X116000Y-33000
X116000Y-39500
X116800Y-24500
X118500Y-32000
T14
X012400Y-26500
X013200Y-56500
X014000Y-34000
X015100Y-41500
X016000Y-49000
X016400Y-26500
X017200Y-56500
X018000Y-34000
X019100Y-41500
X020000Y-26500
X020000Y-49000
X022500Y-56500
X023500Y-34000
X024000Y-26500
X025500Y-41500
X026500Y-56500
X027500Y-26500
X027500Y-34000
X027500Y-49000
X029500Y-41500
X031000Y-34000
X031500Y-26500
X031500Y-49000
X032000Y-56500
X033000Y-41500
X035000Y-26500
X035000Y-34000
X035000Y-49000
X036000Y-56500
X037000Y-41500
X038500Y-34000
X039000Y-26500
X039000Y-49000
X040500Y-41500
X042500Y-26500
X042500Y-34000
X042500Y-49000
X044500Y-41500
X046000Y-34000
X046500Y-26500
X046500Y-49000
X048000Y-41500
X050000Y-26500
X050000Y-34000
X050000Y-49000
X052000Y-41500
X053500Y-34000
X054000Y-26500
X054000Y-49000
X055500Y-41500
X057500Y-26500
X057500Y-34000
X057500Y-49000
X059500Y-41500
X060500Y-56500
X061000Y-34000
X061500Y-26500
X061500Y-49000
X063000Y-41500
X064500Y-56500
X065000Y-26500
X065000Y-34000
X065000Y-49000
X067000Y-41500
X068500Y-34000
X069000Y-26500
X069000Y-49000
X070500Y-41500
X072500Y-26500
X072500Y-34000
X072500Y-49000
X074500Y-41500
X076000Y-34000
X076500Y-26500
X076500Y-49000
X078000Y-41500
X080000Y-26500
X080000Y-34000
X080000Y-49000
X082000Y-41500
X083500Y-34000
X084000Y-26500
X084000Y-49000
X085500Y-41500
X087500Y-26500
X087500Y-34000
X087500Y-49000
X089000Y-56500
X089500Y-41500
X091000Y-34000
X091500Y-26500
X091500Y-49000
X093000Y-41500
X093000Y-56500
X095000Y-26500
X095000Y-34000
X095000Y-49000
X097000Y-41500
X098500Y-34000
X098500Y-56500
X099000Y-26500
X099000Y-49000
X100500Y-41500
X102500Y-26500
X102500Y-34000
X102500Y-56500
X104500Y-41500
X106000Y-34000
X106500Y-26500
X108000Y-56500
X109000Y-49000
X110000Y-34000
X112000Y-56500
X113000Y-41500
X113000Y-49000
X113800Y-26500
X115500Y-34000
X117000Y-41500
X117800Y-26500
X119500Y-34000
T15
X013300Y-46250
X022700Y-46250
X042800Y-53750
X082200Y-53750
X106300Y-46250
X110300Y-38750
X111100Y-23750
X115700Y-46250
X119700Y-38750
X120500Y-23750
T16
X013300Y-52250
X014400Y-26500
X015200Y-56500
X016000Y-34000
X017100Y-41500
X018000Y-49000
X022000Y-26500
X022700Y-52250
X024500Y-56500
X025500Y-34000
X027500Y-41500
X029500Y-26500
X029500Y-49000
X033000Y-34000
X034000Y-56500
X035000Y-41500
X037000Y-26500
X037000Y-49000
X040500Y-34000
X042500Y-41500
X042800Y-59750
X044500Y-26500
X044500Y-49000
X048000Y-34000
X050000Y-41500
X052000Y-26500
X052000Y-49000
X055500Y-34000
X057500Y-41500
X059500Y-26500
X059500Y-49000
X062500Y-56500
X063000Y-34000
X065000Y-41500
X067000Y-26500
X067000Y-49000
X070500Y-34000
X072500Y-41500
X074500Y-26500
X074500Y-49000
X078000Y-34000
X080000Y-41500
X082000Y-26500
X082000Y-49000
X082200Y-59750
X085500Y-34000
X087500Y-41500
X089500Y-26500
X089500Y-49000
X091000Y-56500
X093000Y-34000
X095000Y-41500
X097000Y-26500
X097000Y-49000
X100500Y-34000
X100500Y-56500
X102500Y-41500
X104500Y-26500
X106300Y-52250
X108000Y-34000
X110000Y-56500
X110300Y-44750
X111000Y-49000
X111100Y-29750
X115000Y-41500
X115700Y-52250
X115800Y-26500
X117500Y-34000
X119700Y-44750
X120500Y-29750
M30

